<?xml version="1.0" encoding="UTF-8" standalone="no"?>
<svg
   xmlns:dc="http://purl.org/dc/elements/1.1/"
   xmlns:cc="http://creativecommons.org/ns#"
   xmlns:rdf="http://www.w3.org/1999/02/22-rdf-syntax-ns#"
   xmlns:svg="http://www.w3.org/2000/svg"
   xmlns="http://www.w3.org/2000/svg"
   xmlns:sodipodi="http://sodipodi.sourceforge.net/DTD/sodipodi-0.dtd"
   xmlns:inkscape="http://www.inkscape.org/namespaces/inkscape"
   version="1.1"
   id="svg47911"
   xml:space="preserve"
   width="75.360001"
   height="75.360001"
   viewBox="0 0 75.36 75.360003"
   sodipodi:docname="ISO 7010 WSP008.svg"
   inkscape:version="1.0.1 (3bc2e813f5, 2020-09-07)"><metadata
     id="metadata47917"><rdf:RDF><cc:Work
         rdf:about=""><dc:format>image/svg+xml</dc:format><dc:type
           rdf:resource="http://purl.org/dc/dcmitype/StillImage" /><dc:title></dc:title></cc:Work></rdf:RDF></metadata><defs
     id="defs47915" /><sodipodi:namedview
     pagecolor="#ffffff"
     bordercolor="#666666"
     borderopacity="1"
     objecttolerance="10"
     gridtolerance="10"
     guidetolerance="10"
     inkscape:pageopacity="0"
     inkscape:pageshadow="2"
     inkscape:window-width="1920"
     inkscape:window-height="1017"
     id="namedview47913"
     showgrid="false"
     fit-margin-top="0"
     fit-margin-left="0"
     fit-margin-right="0"
     fit-margin-bottom="0"
     inkscape:zoom="0.92647061"
     inkscape:cx="321.07643"
     inkscape:cy="-61.308123"
     inkscape:window-x="-8"
     inkscape:window-y="-8"
     inkscape:window-maximized="1"
     inkscape:current-layer="g47919" /><g
     id="g47919"
     inkscape:groupmode="layer"
     inkscape:label="4457193"
     transform="matrix(0,1.3333333,1.3333333,0,-1628.2193,-565.70271)"><g
       id="g90717"><path
         d="m 480.79704,1249.3645 -0.12,1.44 -0.12,1.44 -0.12,1.44 -0.24,1.32 -0.36,1.44 -0.36,1.32 -0.48,1.32 -0.48,1.32 -0.6,1.2 -0.6,1.2 -0.72,1.2 -0.72,1.2 -0.72,1.08 -0.84,1.08 -0.96,0.96 -0.96,0.96 -0.96,0.96 -0.96,0.96 -1.08,0.84 -1.08,0.72 -1.2,0.72 -1.2,0.72 -1.2,0.6 -1.2,0.6 -1.32,0.48 -1.32,0.48 -1.32,0.36 -1.44,0.36 -1.32,0.24 -1.44,0.12 -1.44,0.12 -1.44,0.12 -1.44,-0.12 -1.44,-0.12 -1.44,-0.12 -1.32,-0.24 -1.44,-0.36 -1.32,-0.36 -1.32,-0.48 -1.2,-0.48 -1.32,-0.6 -1.2,-0.6 -1.2,-0.72 -1.08,-0.72 -1.2,-0.72 -1.08,-0.84 -0.96,-0.96 -0.96,-0.96 -0.96,-0.96 -0.96,-0.96 -0.84,-1.08 -0.72,-1.08 -0.72,-1.2 -0.72,-1.2 -0.6,-1.2 -0.6,-1.2 -0.48,-1.32 -0.48,-1.32 -0.36,-1.32 -0.36,-1.44 -0.24,-1.32 -0.12,-1.44 -0.12,-1.44 v -2.88 l 0.12,-1.44 0.12,-1.44 0.24,-1.32 0.36,-1.44 0.36,-1.32 0.48,-1.32 0.48,-1.2 0.6,-1.32 0.6,-1.2 0.72,-1.2 0.72,-1.08 0.72,-1.2 0.84,-1.08 0.96,-0.96 0.96,-0.96 0.96,-0.96 0.96,-0.96 1.08,-0.84 1.2,-0.72 1.08,-0.72 1.2,-0.72 1.2,-0.6 1.32,-0.6 1.2,-0.48 1.32,-0.48 1.32,-0.36 1.44,-0.36 1.32,-0.24 1.44,-0.12 1.44,-0.12 h 2.88 l 1.44,0.12 1.44,0.12 1.32,0.24 1.44,0.36 1.32,0.36 1.32,0.48 1.32,0.48 1.2,0.6 1.2,0.6 1.2,0.72 1.2,0.72 1.08,0.72 1.08,0.84 0.96,0.96 0.96,0.96 0.96,0.96 0.96,0.96 0.84,1.08 0.72,1.2 0.72,1.08 0.72,1.2 0.6,1.2 0.6,1.32 0.48,1.2 0.48,1.32 0.36,1.32 0.36,1.44 0.24,1.32 0.12,1.44 0.12,1.44 0.12,1.44"
         style="fill:#a1262d;fill-opacity:1;fill-rule:evenodd;stroke:none;stroke-width:0.12"
         id="path88090" /><path
         d="m 475.03704,1249.3645 v 1.2 l -0.12,1.08 -0.12,1.2 -0.12,1.08 -0.36,1.08 -0.24,1.08 -0.36,1.08 -0.36,0.96 -0.48,1.08 -0.48,0.96 -0.6,0.96 -0.6,0.84 -0.6,0.96 -0.72,0.84 -0.72,0.84 -0.72,0.72 -0.72,0.72 -0.84,0.72 -0.84,0.72 -0.96,0.6 -0.84,0.6 -0.96,0.6 -0.96,0.48 -1.08,0.48 -0.96,0.36 -1.08,0.36 -1.08,0.24 -1.08,0.36 -1.08,0.12 -1.2,0.12 -1.08,0.12 h -2.4 l -1.08,-0.12 -1.2,-0.12 -1.08,-0.12 -1.08,-0.36 -1.08,-0.24 -1.08,-0.36 -0.96,-0.36 -1.08,-0.48 -0.96,-0.48 -0.96,-0.6 -0.84,-0.6 -0.96,-0.6 -0.84,-0.72 -0.84,-0.72 -0.72,-0.72 -0.72,-0.72 -0.72,-0.84 -0.72,-0.84 -0.6,-0.96 -0.6,-0.84 -0.6,-0.96 -0.48,-0.96 -0.48,-1.08 -0.36,-0.96 -0.36,-1.08 -0.24,-1.08 -0.36,-1.08 -0.12,-1.08 -0.12,-1.2 -0.12,-1.08 v -2.4 l 0.12,-1.08 0.12,-1.2 0.12,-1.08 0.36,-1.08 0.24,-1.08 0.36,-1.08 0.36,-0.96 0.48,-1.08 0.48,-0.96 0.6,-0.96 0.6,-0.84 0.6,-0.96 0.72,-0.84 0.72,-0.84 0.72,-0.72 0.72,-0.72 0.84,-0.72 0.84,-0.72 0.96,-0.6 0.84,-0.6 0.96,-0.6 0.96,-0.48 1.08,-0.48 0.96,-0.36 1.08,-0.36 1.08,-0.24 1.08,-0.36 1.08,-0.12 1.2,-0.12 1.08,-0.12 h 2.4 l 1.08,0.12 1.2,0.12 1.08,0.12 1.08,0.36 1.08,0.24 1.08,0.36 0.96,0.36 1.08,0.48 0.96,0.48 0.96,0.6 0.84,0.6 0.96,0.6 0.84,0.72 0.84,0.72 0.72,0.72 0.72,0.72 0.72,0.84 0.72,0.84 0.6,0.96 0.6,0.84 0.6,0.96 0.48,0.96 0.48,1.08 0.36,0.96 0.36,1.08 0.24,1.08 0.36,1.08 0.12,1.08 0.12,1.2 0.12,1.08 v 1.2"
         style="fill:#ffffff;fill-opacity:1;fill-rule:evenodd;stroke:none;stroke-width:0.12"
         id="path88092" /><path
         d="m 435.31704,1250.0845 v 0.48 l 0.12,0.12 v 0.24 l 0.12,0.12 v 0.12 l 0.12,0.12 v 0.12 l 0.12,0.12 v 0.12 h 0.12 v 0.12 l 0.12,0.12 0.12,0.12 h 0.12 v 0.12 l 0.12,0.12 h 0.12 l 0.12,0.12 h 0.24 l 0.12,0.12 h 0.24 l 0.12,0.12 h 0.96 l 0.12,-0.12 h 0.24 l 0.12,-0.12 h 0.24 l 0.12,-0.12 h 0.12 l 0.12,-0.12 v -0.12 h 0.12 l 0.12,-0.12 v -0.12 l 0.12,-0.12 h 0.12 v -0.12 l 0.12,-0.12 v -0.12 l 0.12,-0.12 v -0.12 l 0.12,-0.12 v -0.24 l 0.12,-0.12 v -0.96 l -0.12,-0.12 v -0.24 l -0.12,-0.12 v -0.12 l -0.12,-0.12 v -0.12 l -0.12,-0.12 v 0 l -0.12,-0.12 -0.12,-0.12 v -0.12 h -0.12 l -0.12,-0.12 v -0.12 h -0.12 l -0.12,-0.12 h -0.12 l -0.12,-0.12 h -0.12 l -0.12,-0.12 h -0.36 l -0.12,-0.12 h -0.72 l -0.12,0.12 h -0.36 l -0.12,0.12 h -0.12 l -0.12,0.12 h -0.12 l -0.12,0.12 h -0.12 v 0.12 l -0.12,0.12 h -0.12 l -0.12,0.12 v 0.12 l -0.12,0.12 v 0 l -0.12,0.12 v 0.12 l -0.12,0.12 v 0.12 l -0.12,0.12 v 0.24 l -0.12,0.12 v 0.48"
         style="fill:#0e1313;fill-opacity:1;fill-rule:evenodd;stroke:none;stroke-width:0.12"
         id="path88094" /><path
         d="m 460.03704,1246.8445 v 0.24 l 0.12,0.12 v 0.48 l 0.12,0.24 v 0.6 l 0.12,0.12 v 1.08 l -0.12,0.24 v 0.72 l -0.12,0.12 v 0.24 l -0.12,0.24 v 0.24 l -0.12,0.24 v 0.24 l -0.12,0.24 -0.12,0.24 -0.12,0.36 -0.12,0.24 -0.12,0.36 -0.12,0.36 v 0.24 l -0.12,0.36 -0.12,0.24 v 0.24 l -0.12,0.36 v 0.24 l -0.12,0.36 v 0.24 l -0.12,0.24 v 3 l 0.12,0.12 v 0.48 l 0.12,0.12 v 0.36 l 0.12,0.12 v 0.24 l 0.12,0.12 v 0.24 l 0.12,0.12 v 0.12 l 0.12,0.24 0.12,0.12 v 0.12 l 0.12,0.24 v 0.24 l 0.12,0.24 v 0.12 l 0.12,0.12 v 0.36 l 0.12,0.12 v 0.48 l 0.12,0.12 v 0.48 l 0.12,0.24 v 2.52 l -0.12,0.12 v 0.24 h 0.12 v 0.12 h 0.12 v 0 l 0.12,-0.12 h 0.36 l 0.12,-0.12 h 0.12 v 0 l 0.12,-0.12 h 0.12 v -0.12 h 0.24 v -0.12 h 0.12 v -0.12 l 0.12,-0.12 v 0 l 0.12,-0.12 v -0.12 h 0.12 v -0.24 l 0.12,-0.12 v -1.44 l -0.12,-0.24 v -0.48 l -0.12,-0.24 v -0.24 l -0.12,-0.24 v -0.36 l -0.12,-0.12 v -0.36 l -0.12,-0.12 v -0.36 l -0.12,-0.24 v -0.12 l -0.12,-0.24 v -0.12 l -0.12,-0.24 -0.12,-0.12 v -0.24 l -0.12,-0.12 v -0.24 l -0.12,-0.12 v -0.12 l -0.12,-0.24 v -0.24 l -0.12,-0.12 v -0.36 l -0.12,-0.24 v -1.8 l 0.12,-0.24 v -0.72 l 0.12,-0.24 v -0.24 l 0.12,-0.24 v -0.24 l 0.12,-0.36 0.12,-0.24 v -0.24 l 0.12,-0.24 0.12,-0.36 0.12,-0.24 0.12,-0.24 v -0.36 l 0.12,-0.12 v -0.12 l 0.12,-0.12 v -0.36 l 0.12,-0.12 v -0.24 l 0.12,-0.12 v -0.48 l 0.12,-0.12 v -0.48 l 0.12,-0.12 v -2.4 l -0.12,-0.12 v -0.6 l -0.12,-0.12 v -0.36 l -0.12,-0.24 v -0.12 l -0.12,-0.24 v -0.12 l -0.12,-0.24 -0.24,0.24 -0.12,0.12 -0.24,0.12 -0.24,0.12 -0.24,0.12 -0.12,0.12 h -0.12 l -0.12,0.12 h -0.12 v 0"
         style="fill:#0e1313;fill-opacity:1;fill-rule:evenodd;stroke:none;stroke-width:0.12"
         id="path88096" /><path
         d="m 460.15704,1231.6045 v 2.76 l -0.12,0.24 v 0.36 l -0.12,0.12 v 0.36 l -0.12,0.12 v 0.12 l -0.12,0.12 v 0.24 l -0.12,0.12 -0.12,0.36 -0.12,0.24 -0.12,0.12 v 0.36 l -0.12,0.12 v 0.12 l -0.12,0.12 v 0.36 l -0.12,0.12 v 0.24 l -0.12,0.12 v 0.36 l -0.12,0.12 v 0.48 l -0.12,0.24 v 1.08 l 0.12,-0.12 0.12,-0.24 0.12,-0.12 0.24,-0.12 0.12,-0.24 0.12,-0.12 0.12,-0.24 0.24,-0.12 1.08,-1.08 v -0.12 l 0.12,-0.24 v -0.12 l 0.12,-0.12 v -0.24 l 0.12,-0.12 v -0.24 l 0.12,-0.12 0.12,-0.24 v -0.12 l 0.12,-0.12 0.12,-0.24 v -0.36 l 0.12,-0.12 v -0.24 l 0.12,-0.12 v -0.36 l 0.12,-0.24 v -0.48 l 0.12,-0.24 v -1.68 l -0.12,-0.12 v -0.12 l -0.12,-0.12 v -0.12 h -0.12 v -0.12 h -0.12 v -0.12 h -0.12 v -0.12 h -0.12 v 0 l -0.12,-0.12 h -0.12 l -0.12,-0.12 h -0.12 -0.12 l -0.12,-0.12 h -0.24 -0.12 -0.12 v 0.36"
         style="fill:#0e1313;fill-opacity:1;fill-rule:evenodd;stroke:none;stroke-width:0.12"
         id="path88098" /><path
         d="m 456.67704,1249.9645 v 0.6 l -0.12,0.12 v 0.36 l -0.12,0.12 v 0.36 l -0.12,0.12 v 0.24 l -0.12,0.12 v 0.12 l -0.12,0.24 v 0.12 l -0.12,0.36 -0.12,0.24 -0.12,0.36 -0.12,0.36 -0.12,0.24 v 0.36 l -0.12,0.24 -0.12,0.24 v 0.36 l -0.12,0.24 v 0.6 l -0.12,0.24 v 0.84 l -0.12,0.36 v 0.96 l 0.12,0.12 v 0.84 l 0.12,0.12 v 0.48 l 0.12,0.12 v 0.24 l 0.12,0.12 v 0.24 l 0.12,0.12 v 0.24 l 0.12,0.12 v 0.12 l 0.12,0.24 v 0.12 l 0.12,0.12 v 0.24 l 0.12,0.12 v 0.12 l 0.12,0.24 v 0.24 l 0.12,0.24 v 0.24 l 0.12,0.12 v 0.36 l 0.12,0.12 v 0.72 l 0.12,0.24 v 2.16 l -0.12,0.12 v 0.36 l 0.12,0.12 h 0.12 v 0 l 0.12,-0.12 h 0.36 l 0.12,-0.12 h 0.12 l 0.12,-0.12 h 0.12 v -0.12 h 0.24 v -0.12 h 0.12 v -0.12 l 0.12,-0.12 v 0 l 0.12,-0.12 v -0.12 l 0.12,-0.12 v -0.24 l 0.12,-0.12 v -1.08 l -0.12,-0.24 v -0.48 l -0.12,-0.24 v -0.48 l -0.12,-0.24 v -0.36 l -0.12,-0.12 v -0.36 l -0.12,-0.12 v -0.24 l -0.12,-0.12 v -0.24 l -0.12,-0.12 v -0.24 l -0.12,-0.12 v -0.24 l -0.12,-0.12 v -0.24 l -0.12,-0.12 -0.12,-0.24 v -0.12 l -0.12,-0.12 v -0.48 l -0.12,-0.12 v -0.36 l -0.12,-0.24 v -2.04 l 0.12,-0.24 v -0.48 l 0.12,-0.24 v -0.24 l 0.12,-0.24 v -0.24 l 0.12,-0.36 v -0.24 l 0.12,-0.24 0.12,-0.24 0.12,-0.36 v -0.24 l 0.12,-0.24 0.12,-0.12 v -0.24 l 0.12,-0.12 v -0.12 l 0.12,-0.12 v -0.36 l 0.12,-0.12 v -0.24 l 0.12,-0.12 v -0.48 l 0.12,-0.12 v -0.6 l 0.12,-0.12 v -2.16 l -1.92,1.8"
         style="fill:#0e1313;fill-opacity:1;fill-rule:evenodd;stroke:none;stroke-width:0.12"
         id="path88100" /><path
         d="m 456.55704,1231.6045 v 2.64 l -0.12,0.12 v 0.6 l -0.12,0.12 v 0.36 l -0.12,0.12 v 0.12 l -0.12,0.12 v 0.12 l -0.12,0.12 v 0.12 l -0.12,0.24 v 0.12 l -0.12,0.12 v 0.12 l -0.12,0.24 v 0.12 l -0.12,0.12 v 0.12 l -0.12,0.24 v 0.24 l -0.12,0.12 v 0.36 l -0.12,0.12 v 0.24 l -0.12,0.24 v 0.36 l -0.12,0.12 v 3 l 0.12,0.24 v 0.48 l 0.12,0.24 v 0.24 l 0.12,0.24 v 0.24 l 0.12,0.24 0.12,0.24 v 0.24 l 1.08,-0.96 v -0.24 l 0.12,-0.12 v -0.24 l 0.12,-0.12 v -0.12 l 0.12,-0.12 -0.12,-0.24 v -0.48 l -0.12,-0.24 v -1.8 l 0.12,-0.12 v -0.48 l 0.12,-0.24 v -0.36 l 0.12,-0.24 v -0.24 l 0.12,-0.24 0.12,-0.24 v -0.24 l 0.12,-0.24 0.12,-0.24 0.12,-0.24 0.12,-0.24 v -0.12 l 0.12,-0.12 v -0.24 l 0.12,-0.12 v -0.24 l 0.12,-0.12 v -0.24 l 0.12,-0.12 v -0.36 l 0.12,-0.24 v -0.84 l 0.12,-0.12 v -1.32 l -0.12,-0.12 v -0.24 h -0.12 v -0.24 h -0.12 v -0.12 h -0.12 v -0.12 h -0.12 v -0.12 h -0.12 v 0 l -0.12,-0.12 h -0.12 v 0 l -0.12,-0.12 h -0.12 -0.12 l -0.12,-0.12 h -0.36 -0.12 v 0.36"
         style="fill:#0e1313;fill-opacity:1;fill-rule:evenodd;stroke:none;stroke-width:0.12"
         id="path88102" /><path
         d="m 448.51704,1230.8845 v 0.6 l 0.12,0.6 v 1.08 l 0.12,0.6 v 0.6 l 0.12,0.48 v 1.2 l 0.12,0.6 v 1.2 l 0.12,0.48 v 1.8 l -8.64,4.92 v 0 l -0.12,0.12 h -0.12 v 0.12 h -0.12 v 0.12 h -0.12 v 0.12 l -0.12,0.12 v 0.24 h -0.12 v 0.6 h 0.12 v 0.12 l 4.44,12.24 v 0.12 h 0.12 v 0.24 h 0.12 v 0.12 h 0.12 v 0.12 h 0.12 v 0 l 0.12,0.12 h 0.12 v 0 l 0.12,0.12 h 0.12 0.12 0.12 0.12 0.12 0.12 0.12 v -0.12 h 0.12 0.12 v -0.12 h 0.12 v 0 l 0.12,-0.12 v 0 l 0.12,-0.12 v -0.12 h 0.12 v -0.24 h 0.12 v -0.84 h -0.12 v -0.24 l 2.52,-2.52 v 1.44 l -0.12,0.84 v 2.28 l -0.12,0.84 v 1.56 l -0.12,0.72 v 1.56 l -0.12,0.84 v 0.72 l -0.12,0.84 v 0.72 h 0.24 l 0.24,-0.12 0.36,-0.12 0.24,-0.12 0.24,-0.12 0.24,-0.12 h 0.24 l 0.24,-0.12 0.24,-0.12 0.24,-0.12 0.24,-0.12 0.24,-0.12 0.24,-0.12 h 0.24 l 0.24,-0.12 0.12,-0.12 0.24,-0.12 0.12,-0.12 0.24,-0.12 0.12,-0.12 0.24,-0.12 0.12,-0.12 0.12,-0.12 0.24,-0.12 h 0.12 l 0.12,-0.12 0.12,-0.12 0.12,-0.12 v -0.12 l 0.12,-0.12 0.12,-0.12 0.12,-0.12 -0.12,-0.12 v -0.48 l -0.12,-0.12 v -0.48 l -0.12,-0.12 v -0.36 l -0.12,-0.12 v -0.36 l -0.12,-0.12 v -0.24 l -0.12,-0.12 v -0.24 l -0.12,-0.12 v -0.24 l -0.12,-0.12 -0.12,-0.24 v -0.12 l -0.12,-0.24 v -0.12 l -0.12,-0.12 v -0.24 l -0.12,-0.24 v -0.36 l -0.12,-0.12 v -2.52 l 0.12,-0.24 v -0.24 l 0.12,-0.24 v -0.48 l 0.12,-0.24 0.12,-0.36 v -0.24 l 0.12,-0.24 0.12,-0.24 v -0.36 l 0.12,-0.24 0.12,-0.24 0.12,-0.24 0.12,-0.24 v -0.24 l 0.12,-0.24 0.12,-0.24 v -0.24 l 0.12,-0.24 v -0.48 l 0.12,-0.24 v -0.48 l 0.12,-0.24 v -0.6 l 3.6,-3.6 v 0 l 0.12,-0.12 h 0.24 l 0.12,-0.12 h 0.12 l 0.12,-0.12 h 0.12 l 0.12,-0.12 h 0.12 l 0.12,-0.12 0.12,-0.12 h 0.12 l 0.12,-0.12 0.12,-0.12 0.12,-0.12 0.12,-0.12 h 0.24 l 0.12,-0.12 0.12,-0.12 0.12,-0.12 0.12,-0.12 0.12,-0.12 0.24,-0.12 0.12,-0.12 0.12,-0.12 0.12,-0.12 0.24,-0.12 0.12,-0.24 0.12,-0.12 0.12,-0.12 0.24,-0.12 2.76,-2.88 -2.16,-2.04 -2.64,2.52 -0.12,0.24 -0.12,0.12 -0.12,0.12 -0.24,0.24 -0.12,0.12 -0.12,0.12 -0.12,0.24 -0.12,0.12 -0.12,0.12 -0.12,0.12 -0.12,0.24 -0.12,0.12 -0.12,0.12 -0.12,0.12 -0.12,0.24 -0.12,0.12 -0.12,0.12 -0.12,0.12 v 0.12 l -0.12,0.12 -0.12,0.12 v 0.12 l -0.12,0.24 -0.12,0.12 v 0.12 l -0.12,0.12 v 0.12 l -0.12,0.12 v 0.12 l -0.12,0.12 v 0.12 l -2.76,2.76 v -0.12 l -0.12,-0.24 v -0.36 l -0.12,-0.12 v -0.36 l -0.12,-0.12 v -0.24 l -0.12,-0.12 v -0.24 l -0.12,-0.12 v -0.12 l -0.12,-0.24 -0.12,-0.12 v -0.12 l -0.12,-0.24 v -0.12 l -0.12,-0.12 v -0.24 l -0.12,-0.12 v -0.24 l -0.12,-0.12 v -0.24 l -0.12,-0.12 v -0.48 l -0.12,-0.36 v -0.96 l -0.12,-0.24 v -0.96 l 0.12,-0.24 v -0.96 l 0.12,-0.36 v -0.36 l 0.12,-0.12 v -0.36 l 0.12,-0.12 v -0.24 l 0.12,-0.12 v -0.24 l 0.12,-0.12 v -0.12 l 0.12,-0.12 v -0.12 l 0.12,-0.12 v -0.24 l 0.12,-0.12 v -0.12 l 0.12,-0.12 -0.24,-0.24 -0.12,-0.24 -0.12,-0.24 -0.12,-0.12 -0.24,-0.24 -0.12,-0.24 -0.12,-0.12 -0.24,-0.24 -0.12,-0.12 -0.24,-0.24 -0.12,-0.12 -0.24,-0.24 -0.12,-0.12 -0.24,-0.24 -0.12,-0.12 -0.24,-0.24 -0.12,-0.12 -0.24,-0.12 -0.12,-0.24 -0.24,-0.12 -0.12,-0.12 -0.24,-0.12 -0.24,-0.12 -0.12,-0.24 -0.24,-0.12 -0.24,-0.12 -0.12,-0.12 -0.24,-0.12 -0.24,-0.12 -0.24,-0.12 -0.24,-0.12 -0.12,-0.12"
         style="fill:#0e1313;fill-opacity:1;fill-rule:evenodd;stroke:none;stroke-width:0.12"
         id="path88104" /><path
         d="m 446.23704,1256.4445 -2.28,-6.24 5.4,-3.12 v 5.88 l -0.12,0.36 -3,3.12"
         style="fill:#ffffff;fill-opacity:1;fill-rule:evenodd;stroke:none;stroke-width:0.12"
         id="path88106" /><path
         d="m 432.79704,1233.0445 36,36 3.36,-3.36 -36,-36 -3.36,3.36"
         style="fill:#a1262d;fill-opacity:1;fill-rule:nonzero;stroke:none;stroke-width:0.12"
         id="path88108" /></g><g
       id="g88110"
       transform="translate(42.677037,662.69413)"><text
         transform="matrix(0,1,0.99948027,0,456.6,558.471)"
         style="font-variant:normal;font-weight:normal;font-size:8.04418px;font-family:Helvetica;-inkscape-font-specification:Helvetica;writing-mode:lr-tb;fill:#000000;fill-opacity:1;fill-rule:nonzero;stroke:none"
         id="text88116"><tspan
           x="0 6.5999632 11.039949 15.11993 19.199911 23.639898 25.439886 29.879871 34.319859 36.599854 39.239834 41.039822 45.479809 49.919796 54.359779 58.799767 63.239754 65.519745 70.919724 75.359711 79.799698 82.079697"
           y="0"
           sodipodi:role="line"
           id="tspan88112">Muskelbetriebene Boote</tspan><tspan
           x="0 3.9599812 8.3999681 11.039949 15.479936 19.919922 22.199915 26.639902 31.079889 37.919868 45.839825 51.239803 56.639786 61.079769 65.51976"
           y="9.6049919"
           sodipodi:role="line"
           id="tspan88114">verboten WSP008</tspan></text></g></g></svg>
