<?xml version="1.0" encoding="UTF-8" standalone="no"?>
<svg
   xmlns:dc="http://purl.org/dc/elements/1.1/"
   xmlns:cc="http://creativecommons.org/ns#"
   xmlns:rdf="http://www.w3.org/1999/02/22-rdf-syntax-ns#"
   xmlns:svg="http://www.w3.org/2000/svg"
   xmlns="http://www.w3.org/2000/svg"
   xmlns:sodipodi="http://sodipodi.sourceforge.net/DTD/sodipodi-0.dtd"
   xmlns:inkscape="http://www.inkscape.org/namespaces/inkscape"
   version="1.1"
   id="svg47911"
   xml:space="preserve"
   width="75.360001"
   height="75.360001"
   viewBox="0 0 75.36 75.360003"
   sodipodi:docname="ISO 7010 WSP011.svg"
   inkscape:version="1.0.1 (3bc2e813f5, 2020-09-07)"><metadata
     id="metadata47917"><rdf:RDF><cc:Work
         rdf:about=""><dc:format>image/svg+xml</dc:format><dc:type
           rdf:resource="http://purl.org/dc/dcmitype/StillImage" /><dc:title></dc:title></cc:Work></rdf:RDF></metadata><defs
     id="defs47915" /><sodipodi:namedview
     pagecolor="#ffffff"
     bordercolor="#666666"
     borderopacity="1"
     objecttolerance="10"
     gridtolerance="10"
     guidetolerance="10"
     inkscape:pageopacity="0"
     inkscape:pageshadow="2"
     inkscape:window-width="1920"
     inkscape:window-height="1017"
     id="namedview47913"
     showgrid="false"
     fit-margin-top="0"
     fit-margin-left="0"
     fit-margin-right="0"
     fit-margin-bottom="0"
     inkscape:zoom="1.8529412"
     inkscape:cx="-94.58534"
     inkscape:cy="75.507995"
     inkscape:window-x="-8"
     inkscape:window-y="-8"
     inkscape:window-maximized="1"
     inkscape:current-layer="g47919" /><g
     id="g47919"
     inkscape:groupmode="layer"
     inkscape:label="4457193"
     transform="matrix(0,1.3333333,1.3333333,0,-815.48595,-567.67908)"><g
       id="g69269"><path
         d="m 482.27932,639.81448 -0.12,1.44 -0.12,1.44 -0.12,1.44 -0.24,1.32 -0.36,1.44 -0.36,1.32 -0.48,1.32 -0.48,1.32 -0.6,1.2 -0.6,1.2 -0.72,1.2 -0.72,1.2 -0.72,1.08 -0.84,1.08 -0.96,0.96 -0.96,0.96 -0.96,0.96 -0.96,0.96 -1.08,0.84 -1.08,0.72 -1.2,0.72 -1.2,0.72 -1.2,0.6 -1.2,0.6 -1.32,0.48 -1.32,0.48 -1.32,0.36 -1.44,0.36 -1.32,0.24 -1.44,0.12 -1.44,0.12 -1.44,0.12 -1.44,-0.12 -1.44,-0.12 -1.44,-0.12 -1.32,-0.24 -1.44,-0.36 -1.32,-0.36 -1.32,-0.48 -1.2,-0.48 -1.32,-0.6 -1.2,-0.6 -1.2,-0.72 -1.08,-0.72 -1.2,-0.72 -1.08,-0.84 -0.96,-0.96 -0.96,-0.96 -0.96,-0.96 -0.96,-0.96 -0.84,-1.08 -0.72,-1.08 -0.72,-1.2 -0.72,-1.2 -0.6,-1.2 -0.6,-1.2 -0.48,-1.32 -0.48,-1.32 -0.36,-1.32 -0.36,-1.44 -0.24,-1.32 -0.12,-1.44 -0.12,-1.44 v -2.88 l 0.12,-1.44 0.12,-1.44 0.24,-1.32 0.36,-1.44 0.36,-1.32 0.48,-1.32 0.48,-1.2 0.6,-1.32 0.6,-1.2 0.72,-1.2 0.72,-1.08 0.72,-1.2 0.84,-1.08 0.96,-0.96 0.96,-0.96 0.96,-0.96 0.96,-0.96 1.08,-0.84 1.2,-0.72 1.08,-0.72 1.2,-0.72 1.2,-0.6 1.32,-0.6 1.2,-0.48 1.32,-0.48 1.32,-0.36 1.44,-0.36 1.32,-0.24 1.44,-0.12 1.44,-0.12 h 2.88 l 1.44,0.12 1.44,0.12 1.32,0.24 1.44,0.36 1.32,0.36 1.32,0.48 1.32,0.48 1.2,0.6 1.2,0.6 1.2,0.72 1.2,0.72 1.08,0.72 1.08,0.84 0.96,0.96 0.96,0.96 0.96,0.96 0.96,0.96 0.84,1.08 0.72,1.2 0.72,1.08 0.72,1.2 0.6,1.2 0.6,1.32 0.48,1.2 0.48,1.32 0.36,1.32 0.36,1.44 0.24,1.32 0.12,1.44 0.12,1.44 0.12,1.44"
         style="fill:#a1262d;fill-opacity:1;fill-rule:evenodd;stroke:none;stroke-width:0.12"
         id="path65860" /><path
         d="m 476.51932,639.81448 v 1.2 l -0.12,1.08 -0.12,1.2 -0.12,1.08 -0.36,1.08 -0.24,1.08 -0.36,1.08 -0.36,0.96 -0.48,1.08 -0.48,0.96 -0.6,0.96 -0.6,0.84 -0.6,0.96 -0.72,0.84 -0.72,0.84 -0.72,0.72 -0.72,0.72 -0.84,0.72 -0.84,0.72 -0.96,0.6 -0.84,0.6 -0.96,0.6 -0.96,0.48 -1.08,0.48 -0.96,0.36 -1.08,0.36 -1.08,0.24 -1.08,0.36 -1.08,0.12 -1.2,0.12 -1.08,0.12 h -2.4 l -1.08,-0.12 -1.2,-0.12 -1.08,-0.12 -1.08,-0.36 -1.08,-0.24 -1.08,-0.36 -0.96,-0.36 -1.08,-0.48 -0.96,-0.48 -0.96,-0.6 -0.84,-0.6 -0.96,-0.6 -0.84,-0.72 -0.84,-0.72 -0.72,-0.72 -0.72,-0.72 -0.72,-0.84 -0.72,-0.84 -0.6,-0.96 -0.6,-0.84 -0.6,-0.96 -0.48,-0.96 -0.48,-1.08 -0.36,-0.96 -0.36,-1.08 -0.24,-1.08 -0.36,-1.08 -0.12,-1.08 -0.12,-1.2 -0.12,-1.08 v -2.4 l 0.12,-1.08 0.12,-1.2 0.12,-1.08 0.36,-1.08 0.24,-1.08 0.36,-1.08 0.36,-0.96 0.48,-1.08 0.48,-0.96 0.6,-0.96 0.6,-0.84 0.6,-0.96 0.72,-0.84 0.72,-0.84 0.72,-0.72 0.72,-0.72 0.84,-0.72 0.84,-0.72 0.96,-0.6 0.84,-0.6 0.96,-0.6 0.96,-0.48 1.08,-0.48 0.96,-0.36 1.08,-0.36 1.08,-0.24 1.08,-0.36 1.08,-0.12 1.2,-0.12 1.08,-0.12 h 2.4 l 1.08,0.12 1.2,0.12 1.08,0.12 1.08,0.36 1.08,0.24 1.08,0.36 0.96,0.36 1.08,0.48 0.96,0.48 0.96,0.6 0.84,0.6 0.96,0.6 0.84,0.72 0.84,0.72 0.72,0.72 0.72,0.72 0.72,0.84 0.72,0.84 0.6,0.96 0.6,0.84 0.6,0.96 0.48,0.96 0.48,1.08 0.36,0.96 0.36,1.08 0.24,1.08 0.36,1.08 0.12,1.08 0.12,1.2 0.12,1.08 v 1.2"
         style="fill:#ffffff;fill-opacity:1;fill-rule:evenodd;stroke:none;stroke-width:0.12"
         id="path65862" /><path
         d="m 464.63932,626.61448 v 2.16 l -0.12,0.12 v 0.48 l -0.12,0.12 v 0.36 l -0.12,0.12 v 0.24 l -0.12,0.12 v 0.12 l -0.12,0.24 -0.12,0.24 -0.12,0.24 -0.12,0.24 v 0.24 l -0.12,0.24 v 0.24 l -0.12,0.24 v 0.24 l -0.12,0.24 v 0.48 l -0.12,0.24 v 1.44 l 0.12,0.24 v 0.48 l 0.12,0.24 v 0.6 l 0.12,0.24 0.12,0.24 v 0.24 l 0.12,0.24 0.12,0.24 0.12,0.24 0.12,0.24 v 0.12 l 0.12,0.24 v 0.12 l 0.12,0.12 v 0.24 l 0.12,0.12 v 0.36 l 0.12,0.12 v 0.36 l 0.12,0.12 v 1.8 l -0.12,0.12 v 0.6 l -0.12,0.24 v 0.12 l -0.12,0.24 v 0.12 l -0.12,0.24 v 0.24 l -0.12,0.24 -0.12,0.24 -0.12,0.24 v 0.24 l -0.12,0.24 -0.12,0.24 v 0.24 l -0.12,0.24 v 0.24 l -0.12,0.24 v 0.72 l -0.12,0.24 v 2.04 l 0.12,0.24 v 0.36 l 0.12,0.24 v 0.36 l 0.12,0.24 0.12,0.12 v 0.24 l 0.12,0.12 v 0.12 l 0.12,0.12 v 0.36 l 0.12,0.12 v 0.24 l 0.12,0.12 v 0.24 l 0.12,0.12 v 0.48 l 0.12,0.24 v 0.48 l 0.12,0.24 v 1.8 h -0.12 v 0.36 h 0.12 v 0.12 l 0.12,-0.12 h 0.36 v -0.12 h 0.24 v -0.12 h 0.12 v 0 l 0.12,-0.12 h 0.12 v -0.12 h 0.12 v -0.12 h 0.12 v -0.12 l 0.12,-0.12 v -0.24 l 0.12,-0.12 v -0.84 l -0.12,-0.24 v -0.6 l -0.12,-0.24 v -0.36 l -0.12,-0.36 v -0.24 l -0.12,-0.12 v -0.24 l -0.12,-0.12 v -0.36 l -0.12,-0.12 v -0.12 l -0.12,-0.12 v -0.24 l -0.12,-0.12 v -0.12 l -0.12,-0.12 v -0.24 l -0.12,-0.12 v -0.24 l -0.12,-0.24 v -0.84 l -0.12,-0.12 v -0.6 l 0.12,-0.12 v -0.84 l 0.12,-0.24 v -0.36 l 0.12,-0.24 v -0.24 l 0.12,-0.12 v -0.24 l 0.12,-0.24 v -0.24 l 0.12,-0.24 0.12,-0.24 v -0.24 l 0.12,-0.24 0.12,-0.24 v -0.24 l 0.12,-0.24 v -0.12 l 0.12,-0.24 v -0.24 l 0.12,-0.24 v -0.72 l 0.12,-0.12 v -1.08 l -0.12,-0.24 v -0.6 l -0.12,-0.24 v -0.36 l -0.12,-0.24 v -0.24 l -0.12,-0.12 v -0.24 l -0.12,-0.12 -0.12,-0.24 v -0.24 l -0.12,-0.12 -0.12,-0.24 v -0.24 l -0.12,-0.12 -0.12,-0.24 v -0.24 l -0.12,-0.24 v -0.12 l -0.12,-0.24 v -0.48 l -0.12,-0.12 v -2.04 l 0.12,-0.24 v -0.36 l 0.12,-0.24 v -0.24 l 0.12,-0.24 v -0.12 l 0.12,-0.24 0.12,-0.24 v -0.12 l 0.12,-0.24 0.12,-0.12 v -0.24 l 0.12,-0.12 v -0.24 l 0.12,-0.12 v -0.24 l 0.12,-0.12 v -0.36 l 0.12,-0.24 v -0.72 l 0.12,-0.12 v -1.08 h -0.12 v -0.24 l -0.12,-0.12 v -0.12 l -0.12,-0.12 h -0.12 v -0.12 h -0.12 v -0.12 h -0.12 -0.12 v -0.12 h -0.24 -0.12 l -0.12,-0.12 h -0.12 -0.12 v 0.36"
         style="fill:#0e1313;fill-opacity:1;fill-rule:evenodd;stroke:none;stroke-width:0.12"
         id="path65864" /><path
         d="m 436.91932,650.13448 v 0.48 l 0.12,0.12 v 0.24 l 0.12,0.12 v 0.12 l 0.12,0.12 v 0.12 h 0.12 v 0.12 l 0.12,0.12 h 0.12 v 0.12 l 0.12,0.12 h 0.12 v 0.12 h 0.12 l 0.12,0.12 h 0.12 l 0.12,0.12 h 0.24 v 0.12 h 1.2 l 0.12,-0.12 h 0.24 l 0.12,-0.12 h 0.12 v -0.12 h 0.12 l 0.12,-0.12 h 0.12 v -0.12 l 0.12,-0.12 h 0.12 v -0.12 l 0.12,-0.12 h 0.12 v -0.12 l 0.12,-0.12 v -0.24 l 0.12,-0.12 v -0.24 l 0.12,-0.12 v -0.72 l -0.12,-0.12 v -0.36 l -0.12,-0.12 v -0.24 l -0.12,-0.12 v 0 l -0.12,-0.12 -0.12,-0.12 v -0.12 h -0.12 l -0.12,-0.12 v 0 l -0.12,-0.12 -0.12,-0.12 h -0.12 v -0.12 h -0.24 l -0.12,-0.12 h -0.24 l -0.12,-0.12 h -0.96 l -0.12,0.12 h -0.12 l -0.12,0.12 h -0.24 l -0.12,0.12 h -0.12 v 0.12 l -0.12,0.12 h -0.12 v 0.12 h -0.12 l -0.12,0.12 v 0.12 l -0.12,0.12 v 0 l -0.12,0.12 v 0.12 l -0.12,0.12 v 0.24 l -0.12,0.12 v 0.6"
         style="fill:#0e1313;fill-opacity:1;fill-rule:evenodd;stroke:none;stroke-width:0.12"
         id="path65866" /><path
         d="m 461.63932,626.61448 v 2.16 l -0.12,0.12 v 0.48 l -0.12,0.12 v 0.36 l -0.12,0.12 v 0.24 l -0.12,0.12 v 0.12 l -0.12,0.24 -0.12,0.24 -0.12,0.24 -0.12,0.24 v 0.24 l -0.12,0.24 v 0.24 l -0.12,0.24 v 0.24 l -0.12,0.24 v 0.48 l -0.12,0.24 v 1.44 l 0.12,0.24 v 0.48 l 0.12,0.24 v 0.36 l 0.12,0.24 v 0.24 l 0.12,0.24 v 0.24 l 0.12,0.24 0.12,0.24 0.12,0.24 0.12,0.24 v 0.12 l 0.12,0.24 v 0.12 l 0.12,0.12 v 0.24 l 0.12,0.12 v 0.36 l 0.12,0.12 v 0.36 l 0.12,0.12 v 1.92 l -0.12,0.24 v 0.36 l -0.12,0.24 v 0.12 l -0.12,0.24 v 0.12 l -0.12,0.24 v 0.24 h -0.12 v 0.12 l -2.4,-13.44 v -0.12 l -0.12,-0.24 v -0.24 l -0.12,-0.24 v -0.36 l -0.12,-0.12 v -0.12 l -0.12,-0.12 v -0.24 l -0.12,-0.12 v -0.12 l -0.12,-0.12 v -0.24 l -0.12,-0.12 v -0.12 l -0.12,-0.12 -0.12,-0.12 v -0.24 l -0.12,-0.12 -0.12,-0.12 -0.12,-0.12 v -0.12 l -0.12,-0.12 -0.12,-0.12 -0.12,-0.12 -0.12,-0.12 -0.12,-0.12 h -0.12 l -0.12,-0.12 -0.12,-0.12 v 0 l -0.12,-0.12 h -0.12 -0.12 -0.24 -0.12 -0.12 v 0.12 h -0.12 v 0.12 h -0.12 v 0.12 h -0.12 v 0.72 h 0.12 v 0.12 h 0.12 v 0.12 l 0.12,0.12 h 0.12 l 0.12,0.12 v 0 l 0.12,0.12 0.12,0.12 v 0.12 h 0.12 v 0.12 l 0.12,0.12 v 0.12 h 0.12 v 0.12 l 0.12,0.12 v 0.12 l 0.12,0.12 v 0.12 l 0.12,0.12 v 0.12 l 0.12,0.12 v 0.24 l 0.12,0.12 v 0.12 l 0.12,0.12 v 0.48 l 0.12,0.12 v 0.48 l 1.56,8.16 h -0.12 -0.12 v 0 l -7.2,1.92 h -0.12 v 0.12 h -0.12 -0.12 v 0.12 h -0.12 v 0 l -0.12,0.12 v 0 l -0.12,0.12 v 0.12 h -0.12 v 0.12 h -0.12 v 0.24 l -0.12,0.12 v 0.84 h 0.12 l 1.2,4.92 h -6.36 l 0.72,-9.36 h 0.48 0.12 0.12 v 0 l 0.12,-0.12 v 0 l 0.12,-0.12 v 0 l 0.12,-0.12 v -0.72 h -0.12 v -0.12 l -0.12,-0.12 h -0.12 v -0.12 h -0.12 -0.12 -0.12 -0.96 v -21.12 h -0.24 l -0.12,0.12 h -0.12 l -0.12,0.12 h -0.24 l -0.12,0.12 h -0.12 v 20.88 h -1.08 -0.12 v 0.12 h -0.12 -0.12 v 0.12 l -0.12,0.12 v 0.12 h -0.12 v 0.6 h 0.12 v 0.12 l 0.12,0.12 v 0 l 0.12,0.12 h 0.12 v 0 l 0.12,0.12 h 0.12 0.12 l -0.84,11.16 v 0.12 h -0.12 v 0.12 l 0.12,0.12 v 0.48 l 0.12,0.12 v 0.24 l 0.12,0.12 v 0.12 h 0.12 v 0.12 l 0.12,0.12 v 0 l 0.12,0.12 0.12,0.12 v 0 l 0.12,0.12 h 0.12 l 0.12,0.12 v 0 l 0.12,0.12 h 0.24 l 0.12,0.12 h 0.36 l 0.12,0.12 h 8.4 l 0.12,-0.12 h 0.36 l 0.12,-0.12 h 0.24 l 0.12,-0.12 h 0.12 v -0.12 h 0.12 l 0.12,-0.12 v 0 l 0.12,-0.12 0.12,-0.12 v 0 l 0.12,-0.12 0.12,-0.12 v 0 l 0.12,-0.12 v -0.24 l 0.12,-0.12 v -0.24 l 0.12,-0.12 v -0.72 l -0.12,-0.12 v -0.24 l -1.56,-5.88 5.76,-1.56 0.6,3.72 h 0.12 v 0.24 h 0.12 v 0.12 h 0.12 v 0.12 h 0.12 v 0 l 0.12,0.12 h 0.12 l -0.12,0.12 v 0.6 l -0.12,0.12 v 2.16 l 0.12,0.24 v 0.36 l 0.12,0.24 v 0.36 l 0.12,0.24 0.12,0.12 v 0.24 l 0.12,0.12 v 0.12 l 0.12,0.12 v 0.36 l 0.12,0.12 v 0.24 l 0.12,0.12 v 0.24 l 0.12,0.12 v 0.48 l 0.12,0.24 v 0.48 l 0.12,0.24 v 1.8 h -0.12 v 0.36 h 0.12 v 0.12 l 0.12,-0.12 h 0.36 v -0.12 h 0.24 v -0.12 h 0.24 v -0.12 h 0.12 v -0.12 h 0.12 v -0.12 h 0.12 v -0.12 l 0.12,-0.12 v -0.24 l 0.12,-0.12 v -0.84 l -0.12,-0.24 v -0.6 l -0.12,-0.24 v -0.36 l -0.12,-0.36 v -0.24 l -0.12,-0.12 v -0.24 l -0.12,-0.12 v -0.36 l -0.12,-0.12 v -0.12 l -0.12,-0.12 v -0.24 l -0.12,-0.12 v -0.12 l -0.12,-0.12 v -0.24 l -0.12,-0.12 v -0.24 l -0.12,-0.24 v -0.84 l -0.12,-0.12 v -0.36 l 0.12,-0.24 v -0.96 l 0.12,-0.24 v -0.36 l 0.12,-0.24 v -0.24 l 0.12,-0.12 v -0.24 l 0.12,-0.24 v -0.24 l 0.12,-0.24 0.12,-0.24 v -0.24 l 0.12,-0.24 0.12,-0.24 v -0.24 l 0.12,-0.24 v -0.12 l 0.12,-0.24 v -0.24 l 0.12,-0.24 v -0.72 l 0.12,-0.12 v -1.08 l -0.12,-0.24 v -0.6 l -0.12,-0.24 v -0.36 l -0.12,-0.24 v -0.24 l -0.12,-0.12 v -0.24 l -0.12,-0.12 v -0.24 l -0.12,-0.24 -0.12,-0.12 -0.12,-0.24 v -0.24 l -0.12,-0.12 -0.12,-0.24 v -0.24 l -0.12,-0.24 v -0.12 l -0.12,-0.24 v -0.48 l -0.12,-0.12 v -2.04 l 0.12,-0.24 v -0.36 l 0.12,-0.24 v -0.24 l 0.12,-0.24 v -0.12 l 0.12,-0.24 0.12,-0.24 v -0.12 l 0.12,-0.24 0.12,-0.12 v -0.24 l 0.12,-0.12 v -0.12 l 0.12,-0.12 v -0.36 l 0.12,-0.12 v -0.36 l 0.12,-0.24 v -0.72 l 0.12,-0.12 v -1.08 h -0.12 v -0.24 l -0.12,-0.12 v -0.12 l -0.12,-0.12 h -0.12 v -0.12 h -0.12 v -0.12 h -0.12 -0.12 v -0.12 h -0.24 -0.12 l -0.12,-0.12 h -0.12 -0.12 v 0.36"
         style="fill:#0e1313;fill-opacity:1;fill-rule:evenodd;stroke:none;stroke-width:0.12"
         id="path65868" /><path
         d="m 434.27932,623.49448 36,36 3.36,-3.36 -36,-36 -3.36,3.36"
         style="fill:#a1262d;fill-opacity:1;fill-rule:nonzero;stroke:none;stroke-width:0.12"
         id="path65870" /><path
         d="m 425.75932,639.81448 v 1.44 l 0.12,1.44 0.12,1.44 0.24,1.32 0.36,1.44 0.36,1.32 0.48,1.32 0.48,1.32 0.6,1.2 0.6,1.2 0.72,1.2 0.72,1.2 0.72,1.08 0.84,1.08 0.96,0.96 0.96,1.08 0.96,0.84 0.96,0.96 1.08,0.84 1.08,0.72 1.2,0.72 1.2,0.72 1.2,0.6 1.2,0.6 1.32,0.48 1.32,0.48 1.32,0.36 1.44,0.36 1.32,0.24 1.44,0.12 1.44,0.12 1.44,0.12 1.44,-0.12 1.44,-0.12 1.44,-0.12 1.32,-0.24 1.44,-0.36 1.32,-0.36 1.32,-0.48 1.32,-0.48 1.2,-0.6 1.2,-0.6 1.2,-0.72 1.2,-0.72 1.08,-0.72 1.08,-0.84 0.96,-0.96 1.08,-0.84 0.84,-1.08 0.96,-0.96 0.84,-1.08 0.72,-1.08 0.72,-1.2 0.72,-1.2 0.6,-1.2 0.6,-1.2 0.48,-1.32 0.48,-1.32 0.36,-1.32 0.36,-1.44 0.24,-1.32 0.12,-1.44 0.12,-1.44 0.12,-1.44 -0.12,-1.44 -0.12,-1.44 -0.12,-1.44 -0.24,-1.32 -0.36,-1.44 -0.36,-1.32 -0.48,-1.32 -0.48,-1.32 -0.6,-1.2 -0.6,-1.2 -0.72,-1.2 -0.72,-1.2 -0.72,-1.08 -0.84,-1.08 -0.96,-0.96 -0.84,-0.96 -1.08,-0.96 -0.96,-0.96 -1.08,-0.84 -1.08,-0.72 -1.2,-0.72 -1.2,-0.72 -1.2,-0.6 -1.2,-0.6 -1.32,-0.48 -1.32,-0.48 -1.32,-0.36 -1.44,-0.36 -1.32,-0.24 -1.44,-0.12 -1.44,-0.12 h -2.88 l -1.44,0.12 -1.44,0.12 -1.32,0.24 -1.44,0.36 -1.32,0.36 -1.32,0.48 -1.32,0.48 -1.2,0.6 -1.2,0.6 -1.2,0.72 -1.2,0.72 -1.08,0.72 -1.08,0.84 -0.96,0.96 -0.96,0.96 -0.96,0.96 -0.96,0.96 -0.84,1.08 -0.72,1.08 -0.72,1.2 -0.72,1.2 -0.6,1.2 -0.6,1.2 -0.48,1.32 -0.48,1.32 -0.36,1.32 -0.36,1.44 -0.24,1.32 -0.12,1.44 -0.12,1.44 z m 50.76,0 v -1.2 l -0.12,-1.08 -0.12,-1.2 -0.12,-1.08 -0.24,-1.08 -0.36,-1.08 -0.36,-1.08 -0.36,-0.96 -0.48,-1.08 -0.48,-0.96 -0.6,-0.96 -0.6,-0.84 -0.6,-0.96 -0.72,-0.84 -0.72,-0.84 -0.72,-0.72 -0.72,-0.72 -0.84,-0.72 -0.84,-0.72 -0.96,-0.6 -0.84,-0.6 -0.96,-0.6 -0.96,-0.48 -1.08,-0.48 -0.96,-0.36 -1.08,-0.36 -1.08,-0.24 -1.08,-0.36 -1.08,-0.12 -1.2,-0.12 -1.08,-0.12 h -2.4 l -1.08,0.12 -1.2,0.12 -1.08,0.12 -1.08,0.36 -1.08,0.24 -1.08,0.36 -0.96,0.36 -1.08,0.48 -0.96,0.48 -0.96,0.6 -0.84,0.6 -0.96,0.6 -0.84,0.72 -0.84,0.72 -0.72,0.72 -0.72,0.72 -0.72,0.84 -0.72,0.84 -0.6,0.96 -0.6,0.84 -0.6,0.96 -0.48,0.96 -0.48,1.08 -0.36,0.96 -0.36,1.08 -0.24,1.08 -0.36,1.08 -0.12,1.08 -0.12,1.2 -0.12,1.08 v 2.4 l 0.12,1.08 0.12,1.2 0.12,1.08 0.36,1.08 0.24,1.08 0.36,1.08 0.36,0.96 0.48,1.08 0.48,0.96 0.6,0.96 0.6,0.84 0.6,0.96 0.72,0.84 0.72,0.84 0.72,0.72 0.72,0.72 0.84,0.72 0.84,0.72 0.96,0.6 0.84,0.6 0.96,0.6 0.96,0.48 1.08,0.48 0.96,0.36 1.08,0.36 1.08,0.24 1.08,0.36 1.08,0.12 1.2,0.12 1.08,0.12 h 2.4 l 1.08,-0.12 1.2,-0.12 1.08,-0.12 1.08,-0.36 1.08,-0.24 1.08,-0.36 0.96,-0.36 1.08,-0.48 0.96,-0.48 0.96,-0.6 0.84,-0.6 0.96,-0.6 0.84,-0.72 0.84,-0.72 0.72,-0.72 0.72,-0.72 0.72,-0.84 0.72,-0.84 0.6,-0.96 0.6,-0.84 0.6,-0.96 0.48,-0.96 0.48,-1.08 0.36,-0.96 0.36,-1.08 0.36,-1.08 0.24,-1.08 0.12,-1.08 0.12,-1.2 0.12,-1.08 v -1.2"
         style="fill:#a1262d;fill-opacity:1;fill-rule:evenodd;stroke:none;stroke-width:0.12"
         id="path65872" /></g></g></svg>
