<?xml version="1.0" encoding="UTF-8" standalone="no"?>
<svg xmlns:svg="http://www.w3.org/2000/svg" xmlns="http://www.w3.org/2000/svg" height="400px" width="400px" viewBox="0 0 200 200" version="1.1">
	<g style="stroke:none; fill-rule:nonzero;"> 
		<rect style="fill:#ffffff;" y="0" x="0" height="200" width="200" />
		<path style="fill:#008855;" d="M 5,100 5,5.537 100,5.537 195,5.537 V 100 194.46 H 100 5 V 100 z M 74.774,191.62 C 74.774,191.24 71.996,188.35 68.602,185.2 L 62.429,179.47 71.378,179.45 80.327,179.44 87.034,185.88 93.742,192.32 H 130.42 C 150.59,192.32 167.09,191.93 167.09,191.47 167.09,191 164.92,188.48 162.26,185.88 L 157.43,181.14 V 168.48 155.82 H 167.56 C 173.14,155.82 177.92,155.46 178.19,155.01 179.19,153.39 172.71,141.19 169.33,138.35 167.42,136.74 163.96,135.12 161.64,134.75 L 157.43,134.08 V 76.247 18.418 H 100 42.571 V 53.842 89.266 H 52.172 61.773 L 70.539,78.8 C 75.36,73.044 80.58,67.492 82.138,66.462 84.601,64.835 87.85,64.59 106.98,64.59 133.56,64.59 132.64,64.199 141.54,79.292 148.5,91.115 149.18,94.728 144.96,97.496 142.47,99.129 141.85,99.162 139.43,97.79 137.94,96.939 134.32,92.017 131.39,86.851 L 126.06,77.458 H 118.66 C 114.6,77.458 111.27,77.703 111.27,78.003 111.27,78.303 114,84.22 117.33,91.153 L 123.39,103.76 124.58,120.4 125.76,137.03 144.55,137.58 C 164.99,138.17 166.9,138.67 170.36,144.35 174.88,151.76 175.76,151.53 143.4,151.53 117.94,151.53 114.12,151.31 112.58,149.77 110.93,148.12 109.45,134.95 109.2,119.59 109.16,117.08 108.75,115.03 108.29,115.03 107.84,115.03 101.5,126.98 94.204,141.6 86.909,156.21 79.959,169.24 78.759,170.56 77.558,171.88 74.853,173.29 72.747,173.68 68.18,174.54 61.017,174.63 60.226,173.83 59.916,173.52 66.927,158.76 75.805,141.01 84.684,123.27 91.948,108.52 91.948,108.24 91.948,107.58 82.242,86.741 81.657,86.142 81.421,85.899 80.226,86.866 79.003,88.289 77.78,89.712 74.576,93.412 71.883,96.512 L 66.987,102.15 H 54.778 42.569 V 141.56 180.98 L 48.168,186.65 53.767,192.32 H 64.27 C 70.046,192.32 74.773,192 74.773,191.62 z M 79.469,60.301 C 76.537,59.117 72.789,53.85 71.972,49.766 71.125,45.527 74.211,39.163 78.086,37.159 79.748,36.299 83.113,35.596 85.563,35.596 89.197,35.596 90.689,36.268 93.667,39.246 96.645,42.224 97.316,43.715 97.316,47.35 97.316,53.291 94.989,57.47 90.492,59.604 86.463,61.516 83.018,61.734 79.468,60.301 z" />
	</g>
</svg>
