<svg xmlns="http://www.w3.org/2000/svg" width="264.568" height="264.568" viewBox="0 0 198.426 198.426" version="1.2"><path style="fill:#23548c;fill-opacity:1;fill-rule:evenodd;stroke:none" d="M99.21 198.426c54.794 0 99.216-44.442 99.216-99.18C198.426 44.438 154.004 0 99.21 0 44.42 0 0 44.438 0 99.246c0 54.738 44.422 99.18 99.21 99.18"/><path style="fill:#fff;fill-opacity:1;fill-rule:evenodd;stroke:none" d="m142.129 109.195-.023-1.054-.067-1.055-.121-1.055-.176-1.039-.21-1.027-.27-1.031-.32-1.012-.36-.988-.398-.973-.446-.965-.492-.933-.535-.907-.586-.883-.617-.867-.652-.824-.696-.789-.719-.773-.777-.723-.789-.695-.824-.653-.856-.625-.894-.574-.91-.535-.934-.496-.95-.442-.987-.41-.989-.363-1.015-.305-1.016-.265-1.027-.215-1.055-.176-1.043-.117-1.055-.082-1.054-.012-1.055.012-1.055.082-1.054.117-1.043.176-1.028.215-1.027.265-1.004.305-1 .363-.977.41-.949.442-.933.496-.907.535-.898.574-.852.625-.828.653-.8.695-.762.723-.723.773-.695.789-.653.824-.628.867-.575.883-.535.907-.492.933-.441.965-.414.973-.348.988-.32 1.012-.266 1.03-.215 1.028-.176 1.04-.117 1.054-.07 1.055-.024 1.054.024 1.055.07 1.055.117 1.054.176 1.04.215 1.027.266 1.031.32 1 .348 1 .414.977.441.945.492.933.535.922.575.883.628.852.653.828.695.8.723.762.762.735.8.695.828.652.852.614.898.574.907.547.933.48.95.453.976.403 1 .36 1.004.32 1.027.269 1.028.21 1.043.177 1.054.117 1.055.066 1.055.028 1.054-.028 1.055-.066 1.043-.117 1.055-.176 1.027-.211 1.016-.27 1.015-.32.989-.36.988-.402.95-.453.933-.48.91-.547.894-.574.856-.614.824-.652.79-.695.776-.735.72-.761.695-.801.652-.828.617-.852.586-.883.535-.922.492-.933.446-.945.398-.977.36-1 .32-1 .27-1.031.21-1.028.176-1.039.121-1.054.067-1.055zm-2.828 0-.028-1.015-.082-1.012-.12-1.004-.184-1-.227-.988-.281-.973-.336-.96-.375-.95-.414-.922-.477-.906-.507-.867-.563-.856-.601-.812-.641-.79-.68-.745-.722-.723-.747-.68-.789-.64-.816-.602-.852-.559-.87-.507-.907-.48-.922-.415-.933-.387-.965-.32-.973-.281-.988-.227-1.004-.187-1-.121-1.016-.078-1.015-.028-1.016.028-1.012.078-1.004.12-1 .188-.988.227-.976.281-.961.32-.95.387-.921.414-.895.48-.867.508-.856.559-.816.602-.785.64-.75.68-.719.723-.684.746-.64.789-.602.812-.558.856-.524.867-.465.906-.414.922-.386.95-.32.96-.282.973-.226.988-.188 1-.121 1.004-.082 1.012-.023 1.015.023 1.016.082 1.012.121 1.004.188 1 .226.988.281.972.32.961.387.95.414.922.465.894.524.879.558.84.602.816.64.785.684.762.719.723.75.68.785.64.816.602.856.546.867.52.895.469.921.426.95.375.96.332.977.28.988.227 1 .172 1.004.137 1.012.078 1.016.027 1.015-.027 1.016-.078 1-.137 1.004-.172.988-.226.973-.281.965-.332.933-.375.922-.426.906-.469.871-.52.852-.546.816-.602.79-.64.746-.68.722-.723.68-.762.64-.785.602-.816.563-.84.507-.879.477-.894.414-.922.375-.95.336-.96.281-.973.227-.988.183-1 .121-1.004.082-1.012zm-4.262 0-.012-.879-.082-.894-.12-.871-.173-.867-.226-.852-.27-.855-.304-.829-.375-.8-.403-.786-.453-.761-.48-.735-.535-.707-.575-.683-.613-.637-.64-.617-.669-.559-.707-.535-.734-.492-.773-.453-.778-.403-.816-.359-.824-.32-.844-.27-.852-.226-.87-.172-.88-.121-.883-.078-.882-.016-.883.016-.879.078-.883.12-.867.173-.856.226-.84.27-.827.32-.817.36-.789.402-.762.453-.734.492-.707.535-.668.559-.652.617-.602.637-.574.683-.535.707-.493.735-.44.761-.415.786-.36.8-.308.829-.266.855-.23.852-.172.867-.121.87-.078.895-.027.88.027.882.078.879.121.883.172.867.23.852.266.843.309.825.359.816.414.789.441.758.493.734.535.707.574.684.602.64.652.598.668.574.707.536.734.492.762.457.79.398.816.36.828.32.84.27.855.21.867.176.883.133.879.066.883.028.882-.028.883-.066.88-.133.87-.176.852-.21.844-.27.824-.32.816-.36.778-.398.773-.457.734-.492.707-.536.668-.574.641-.598.613-.64.575-.684.535-.707.48-.734.453-.758.403-.789.375-.816.304-.825.27-.843.226-.852.172-.867.121-.883.082-.879zm1.992-27.535-7.75 5.418-1.133-.48-1.164-.426-1.172-.363-2.457-9.13h-8.175l-2.457 9.13-1.176.363-1.164.426-1.133.48-7.746-5.418-6.277 5.258 3.992 8.57-.668 1.028-.614 1.066-.562 1.11-9.414.828-1.43 8.062 8.563 3.988.16 1.23.21 1.216.282 1.199-6.676 6.687 4.086 7.086 9.133-2.441.898.84.946.8.988.75-.828 9.41 7.695 2.801 5.434-7.742 1.23.07h1.227l1.23-.07 5.434 7.742 7.684-2.8-.817-9.41.988-.75.95-.801.894-.84 9.133 2.441 4.09-7.086-6.68-6.687.281-1.2.215-1.214.145-1.23 8.574-3.989-1.43-8.062-9.414-.829-.562-1.109-.614-1.066-.667-1.028 3.98-8.57zm0 0"/><path style="fill:#fff;fill-opacity:1;fill-rule:evenodd;stroke:none" d="m86.43 81.371-.016-.898-.086-.883-.133-.899-.191-.87-.238-.872-.293-.84-.34-.84-.399-.812-.441-.781-.488-.75-.532-.723-.574-.691-.62-.649-.65-.62-.69-.575-.727-.531-.75-.485-.781-.445-.813-.398-.828-.336-.852-.297-.87-.235-.872-.191-.887-.133-.898-.09-.898-.03-.903.03-.883.09-.902.133-.871.191-.867.235-.844.297-.84.336-.797.398-.78.445-.767.485-.722.531-.68.574-.664.621-.605.649-.575.691-.547.723-.488.75-.441.781-.383.813-.34.84-.293.84-.254.87-.176.871-.148.899-.074.883-.027.898.027.902.074.899.148.883.176.886.254.856.293.855.34.825.383.808.441.785.488.75.547.723.575.691.605.664.664.606.68.574.722.531.766.5.781.43.797.398.84.336.844.297.867.25.871.176.902.149.883.074.903.027.898-.027.898-.074.887-.149.871-.176.871-.25.852-.297.828-.336.813-.398.78-.43.75-.5.727-.53.692-.575.648-.606.621-.664.574-.691.532-.723.488-.75.441-.785.399-.808.34-.825.293-.855.238-.856.191-.886.133-.883.086-.899zm-2.832 0-.028-.808-.074-.829-.148-.808-.192-.797-.25-.781-.297-.766-.355-.738-.41-.723-.446-.691-.5-.649-.53-.62-.59-.59-.622-.532-.648-.5-.692-.441-.707-.414-.753-.352-.77-.297-.781-.25-.797-.191-.809-.149-.812-.074-.824-.027-.813.027-.828.074-.809.149-.797.191-.78.25-.77.297-.739.352-.722.414-.676.441-.664.5-.621.531-.574.59-.547.621-.485.649-.46.691-.399.723-.352.738-.312.766-.25.78-.192.798-.132.808-.09.829-.027.808.027.828.09.809.132.812.192.809.25.781.312.77.352.734.398.711.461.691.485.664.547.618.574.574.62.547.665.488.676.457.722.399.739.351.77.309.78.238.797.207.809.133.828.086.813.03.824-.03.812-.086.809-.133.797-.207.781-.238.77-.309.753-.351.707-.399.692-.457.648-.488.621-.547.59-.574.531-.618.5-.664.446-.691.41-.71.355-.735.297-.77.25-.781.192-.809.148-.812.074-.809zM68.555 56.793l-1.735 7.008-1.043.32-1.015.375-1 .426-5.836-4.27-4.621 3.883 3.191 6.488-.601.907-.547.933-.48.973-7.212.496-1.058 5.926 6.613 2.922.133 1.082.187 1.07.254 1.066-5.223 5.004 3.02 5.22 6.945-2.017.785.75.829.692.882.656-.773 7.18 5.66 2.07 4.024-6.008 1.078.067h1.097l1.082-.067 4.032 6.008 5.664-2.07-.79-7.18.883-.656.829-.692.8-.75 6.93 2.016 3.02-5.219-5.207-5.004.238-1.066.203-1.07.117-1.082 6.613-2.922-1.043-5.926-7.21-.496-.497-.973-.546-.933-.586-.907 3.175-6.488-4.605-3.883-5.836 4.27-1.004-.426-1.027-.375-1.043-.32-1.723-7.008zm19.648 24.812-.015-.906-.079-.894-.12-.895-.173-.883-.214-.879-.27-.867-.305-.84-.363-.828-.398-.8-.442-.79-.48-.761-.535-.735-.559-.707-.602-.668-.64-.64-.668-.598-.711-.562-.719-.52-.762-.496-.789-.438-.812-.402-.828-.36-.844-.308-.852-.266-.882-.214-.883-.172-.895-.121-.894-.078-.906-.016-.899.016-.906.078-.883.12-.894.173-.868.214-.867.266-.844.309-.828.36-.812.401-.774.438-.761.496-.735.52-.71.562-.665.598-.644.64-.602.668-.558.707-.524.735-.492.761-.441.79-.399.8-.348.828-.32.84-.27.867-.21.88-.176.882-.121.895-.067.894-.027.906.027.895.067.895.12.894.177.895.21.867.27.867.32.84.348.828.399.816.44.774.493.762.524.734.558.707.602.668.644.64.664.598.711.563.735.535.761.48.774.438.812.402.828.36.844.308.867.266.868.215.894.171.883.122.906.078.899.015.906-.015.894-.078.895-.122.883-.171.882-.215.852-.266.844-.308.828-.36.812-.402.79-.438.761-.48.719-.535.71-.563.669-.597.64-.641.602-.668.559-.707.535-.734.48-.762.442-.774.398-.816.363-.828.305-.84.27-.867.214-.867.172-.895.121-.894.079-.895zm0 0"/><path style="fill:#fff;fill-opacity:1;fill-rule:evenodd;stroke:none" d="M81.937 81.941H97.79v15.856H81.937zM97.79 44.54H81.937V60.41H97.79zm21.531 18.7h15.868v15.859H119.32zm0 74.788h15.868v15.856H119.32zm-2.832-2.843h-15.855v-15.86h15.855zm21.532 2.843h15.863v15.856H138.02zM79.09 60.41H63.238V44.54H79.09zm21.543 77.617h15.855v15.856h-15.855zm-40.227-37.402H44.543v15.871h15.863zm-18.695 56.086h115.004v-115H41.71zm77.61-74.77h15.866v15.856H119.32zm34.562 0H138.02v15.856h15.863zm-15.863-2.843h15.863v-15.86H138.02zm-2.833 56.086H119.32v-15.86h15.867zm0-18.688H119.32v-15.871h15.868zm18.696 2.828H138.02v15.86h15.863zm-56.094 15.86H81.937v-15.86H97.79zM44.543 63.238h15.863v15.86H44.543zm0 34.559h15.863V81.94H44.543zm71.945 2.828h-15.855v15.871h15.855zm-34.55-37.387h15.851v15.86H81.937zm-37.395 74.79h15.863v15.855H44.543zm56.09-74.79h15.855v15.86h-15.855zm34.555-2.828H119.32V44.54h15.868zm18.695-15.87H138.02v15.87h15.863zM79.09 100.624H63.238v15.871H79.09zm37.398-40.215h-15.855V44.54h15.855zm-53.25 2.828H79.09v15.86H63.238zm90.645 53.258H138.02v-15.871h15.863zm-71.946 37.387H97.79v-15.856H81.937zm-2.847-15.856H63.238v15.856H79.09zm0-2.843H63.238v-15.86H79.09zm37.398-53.243h-15.855v15.856h15.855zm-71.945-21.53h15.863V44.538H44.543zm15.863 58.913H44.543v15.86h15.863zm2.832-37.383H79.09v15.856H63.238zm34.551 34.555H81.937v-15.871H97.79zm0 0"/></svg>