<?xml version="1.0" encoding="UTF-8" standalone="no"?>
<svg
   xmlns:dc="http://purl.org/dc/elements/1.1/"
   xmlns:cc="http://creativecommons.org/ns#"
   xmlns:rdf="http://www.w3.org/1999/02/22-rdf-syntax-ns#"
   xmlns:svg="http://www.w3.org/2000/svg"
   xmlns="http://www.w3.org/2000/svg"
   xmlns:sodipodi="http://sodipodi.sourceforge.net/DTD/sodipodi-0.dtd"
   xmlns:inkscape="http://www.inkscape.org/namespaces/inkscape"
   version="1.1"
   id="svg47911"
   xml:space="preserve"
   width="75.519997"
   height="75.360001"
   viewBox="0 0 75.519996 75.360003"
   sodipodi:docname="ISO 7010 WSP020.svg"
   inkscape:version="1.0.1 (3bc2e813f5, 2020-09-07)"><metadata
     id="metadata47917"><rdf:RDF><cc:Work
         rdf:about=""><dc:format>image/svg+xml</dc:format><dc:type
           rdf:resource="http://purl.org/dc/dcmitype/StillImage" /><dc:title></dc:title></cc:Work></rdf:RDF></metadata><defs
     id="defs47915" /><sodipodi:namedview
     pagecolor="#ffffff"
     bordercolor="#666666"
     borderopacity="1"
     objecttolerance="10"
     gridtolerance="10"
     guidetolerance="10"
     inkscape:pageopacity="0"
     inkscape:pageshadow="2"
     inkscape:window-width="1920"
     inkscape:window-height="1017"
     id="namedview47913"
     showgrid="false"
     fit-margin-top="0"
     fit-margin-left="0"
     fit-margin-right="0"
     fit-margin-bottom="0"
     inkscape:zoom="2.6204546"
     inkscape:cx="24.556491"
     inkscape:cy="-5.7447805"
     inkscape:window-x="-8"
     inkscape:window-y="-8"
     inkscape:window-maximized="1"
     inkscape:current-layer="g47919" /><g
     id="g47919"
     inkscape:groupmode="layer"
     inkscape:label="4457193"
     transform="matrix(0,1.3333333,1.3333333,0,-1374.8369,-547.2038)"><g
       id="g79988"
       transform="translate(-199.20208,-416.7216)"><path
         d="m 666.12494,1476.1693 -0.12,1.44 -0.12,1.44 -0.12,1.32 -0.24,1.44 -0.36,1.32 -0.36,1.44 -0.48,1.32 -0.48,1.2 -0.6,1.32 -0.6,1.2 -0.72,1.2 -0.72,1.08 -0.72,1.2 -0.84,1.08 -0.96,0.96 -0.96,0.96 -0.96,0.96 -0.96,0.96 -1.08,0.84 -1.08,0.72 -1.2,0.72 -1.2,0.72 -1.2,0.6 -1.2,0.6 -1.32,0.48 -1.32,0.48 -1.32,0.36 -1.44,0.36 -1.32,0.24 -1.44,0.12 -1.44,0.12 -1.44,0.12 -1.44,-0.12 -1.44,-0.12 -1.44,-0.12 -1.32,-0.24 -1.44,-0.36 -1.32,-0.36 -1.32,-0.48 -1.2,-0.48 -1.32,-0.6 -1.2,-0.6 -1.2,-0.72 -1.08,-0.72 -1.2,-0.72 -1.08,-0.84 -0.96,-0.96 -0.96,-0.96 -0.96,-0.96 -0.96,-0.96 -0.84,-1.08 -0.72,-1.2 -0.72,-1.08 -0.72,-1.2 -0.6,-1.2 -0.6,-1.32 -0.48,-1.2 -0.48,-1.32 -0.36,-1.44 -0.36,-1.32 -0.24,-1.44 -0.12,-1.32 -0.12,-1.44 v -3 l 0.12,-1.44 0.12,-1.32 0.24,-1.44 0.36,-1.32 0.36,-1.44 0.48,-1.2 0.48,-1.32 0.6,-1.32 0.6,-1.2 0.72,-1.2 0.72,-1.08 0.72,-1.2 0.84,-0.96 0.96,-1.08 0.96,-0.96 0.96,-0.96 0.96,-0.84 1.08,-0.84 1.2,-0.84 1.08,-0.72 1.2,-0.72 1.2,-0.6 1.32,-0.6 1.2,-0.48 1.32,-0.48 1.32,-0.36 1.44,-0.36 1.32,-0.24 1.44,-0.12 1.44,-0.12 h 2.88 l 1.44,0.12 1.44,0.12 1.32,0.24 1.44,0.36 1.32,0.36 1.32,0.48 1.32,0.48 1.2,0.6 1.2,0.6 1.2,0.72 1.2,0.72 1.08,0.84 1.08,0.84 0.96,0.84 0.96,0.96 0.96,0.96 0.96,1.08 0.84,0.96 0.72,1.2 0.72,1.08 0.72,1.2 0.6,1.2 0.6,1.32 0.48,1.32 0.48,1.2 0.36,1.44 0.36,1.32 0.24,1.44 0.12,1.32 0.12,1.44 0.12,1.56"
         style="fill:#a1262d;fill-opacity:1;fill-rule:evenodd;stroke:none;stroke-width:0.12"
         id="path79129" /><path
         d="m 660.36494,1476.1693 v 1.08 l -0.12,1.2 -0.12,1.08 -0.12,1.08 -0.36,1.2 -0.24,1.08 -0.36,0.96 -0.36,1.08 -0.48,0.96 -0.48,0.96 -0.6,0.96 -0.6,0.96 -0.6,0.84 -0.72,0.96 -0.72,0.72 -0.72,0.84 -0.72,0.72 -0.84,0.72 -0.84,0.72 -0.96,0.6 -0.84,0.6 -0.96,0.48 -0.96,0.6 -1.08,0.36 -0.96,0.48 -1.08,0.36 -1.08,0.24 -1.08,0.24 -1.08,0.24 -1.2,0.12 -1.08,0.12 h -2.4 l -1.08,-0.12 -1.2,-0.12 -1.08,-0.24 -1.08,-0.24 -1.08,-0.24 -1.08,-0.36 -0.96,-0.48 -1.08,-0.36 -0.96,-0.6 -0.96,-0.48 -0.84,-0.6 -0.96,-0.6 -0.84,-0.72 -0.84,-0.72 -0.72,-0.72 -0.72,-0.84 -0.72,-0.72 -0.72,-0.96 -0.6,-0.84 -0.6,-0.96 -0.6,-0.96 -0.48,-0.96 -0.48,-0.96 -0.36,-1.08 -0.36,-0.96 -0.24,-1.08 -0.36,-1.2 -0.12,-1.08 -0.12,-1.08 -0.12,-1.2 v -2.28 l 0.12,-1.2 0.12,-1.08 0.12,-1.08 0.36,-1.2 0.24,-1.08 0.36,-0.96 0.36,-1.08 0.48,-0.96 0.48,-0.96 0.6,-0.96 0.6,-0.96 0.6,-0.84 0.72,-0.84 0.72,-0.84 0.72,-0.84 0.72,-0.72 0.84,-0.72 0.84,-0.72 0.96,-0.6 0.84,-0.6 0.96,-0.48 0.96,-0.6 1.08,-0.36 0.96,-0.48 1.08,-0.36 1.08,-0.24 1.08,-0.24 1.08,-0.24 1.2,-0.12 1.08,-0.12 h 2.4 l 1.08,0.12 1.2,0.12 1.08,0.24 1.08,0.24 1.08,0.24 1.08,0.36 0.96,0.48 1.08,0.36 0.96,0.6 0.96,0.48 0.84,0.6 0.96,0.6 0.84,0.72 0.84,0.72 0.72,0.72 0.72,0.84 0.72,0.84 0.72,0.84 0.6,0.84 0.6,0.96 0.6,0.96 0.48,0.96 0.48,0.96 0.36,1.08 0.36,0.96 0.24,1.08 0.36,1.2 0.12,1.08 0.12,1.08 0.12,1.2 v 1.2"
         style="fill:#ffffff;fill-opacity:1;fill-rule:evenodd;stroke:none;stroke-width:0.12"
         id="path79131" /><path
         d="m 619.20494,1482.4093 h 27.96 v 1.56 h 2.04 v -15.72 h -2.04 v 12.24 h -3.96 v -18.84 l -1.08,0.48 -1.08,0.48 -0.96,0.48 -0.96,0.48 -0.96,0.48 -0.96,0.6 -0.84,0.48 -0.96,0.6 -0.84,0.6 -0.84,0.6 -0.84,0.6 -0.84,0.6 -0.72,0.6 -0.84,0.6 -0.72,0.72 -0.72,0.6 -0.72,0.72 -0.72,0.72 -0.6,0.6 -0.72,0.72 -0.6,0.72 -0.72,0.72 -0.6,0.72 -0.6,0.72 -0.6,0.72 -0.6,0.84 -0.6,0.72 -0.6,0.72 -0.48,0.84 -0.6,0.72 -0.48,0.84 -0.6,0.72"
         style="fill:#0e1313;fill-opacity:1;fill-rule:evenodd;stroke:none;stroke-width:0.12"
         id="path79133" /><path
         d="m 644.28494,1463.4493 v 0.24 l 0.12,0.24 v 0.48 l 0.12,0.24 v 0.12 l 0.12,0.24 0.12,0.12 v 0.12 l 0.12,0.24 0.12,0.12 0.12,0.12 0.12,0.12 0.12,0.12 0.12,0.24 0.12,0.12 0.12,0.12 0.12,0.12 h 0.12 l 0.24,0.12 0.12,0.12 0.12,0.12 h 0.24 l 0.12,0.12 h 0.12 l 0.24,0.12 h 0.36 l 0.24,0.12 h 0.72 l 0.24,-0.12 h 0.36 l 0.12,-0.12 h 0.24 l 0.12,-0.12 h 0.12 l 0.24,-0.12 0.12,-0.12 0.12,-0.12 h 0.12 l 0.24,-0.12 0.12,-0.12 0.12,-0.12 0.12,-0.24 0.12,-0.12 0.12,-0.12 0.12,-0.12 0.12,-0.12 v -0.24 l 0.12,-0.12 0.12,-0.12 v -0.24 l 0.12,-0.12 v -0.36 l 0.12,-0.24 v -1.08 l -0.12,-0.24 v -0.36 l -0.12,-0.12 v -0.24 l -0.12,-0.12 -0.12,-0.24 v -0.12 l -0.12,-0.12 -0.12,-0.12 -0.12,-0.24 -0.12,-0.12 -0.12,-0.12 -0.12,-0.12 -0.12,-0.12 -0.24,-0.12 -0.12,-0.12 h -0.12 l -0.12,-0.12 -0.24,-0.12 -0.12,-0.12 h -0.12 l -0.24,-0.12 h -0.36 l -0.12,-0.12 h -1.2 l -0.24,0.12 h -0.36 l -0.12,0.12 h -0.12 l -0.24,0.12 -0.12,0.12 -0.12,0.12 h -0.24 l -0.12,0.12 -0.12,0.12 -0.12,0.12 -0.12,0.12 -0.12,0.12 -0.12,0.12 -0.12,0.24 -0.12,0.12 -0.12,0.12 -0.12,0.12 v 0.24 l -0.12,0.12 -0.12,0.24 v 0.12 l -0.12,0.24 v 0.48 l -0.12,0.24 v 0.12"
         style="fill:#0e1313;fill-opacity:1;fill-rule:evenodd;stroke:none;stroke-width:0.12"
         id="path79135" /><path
         d="m 644.28494,1488.8893 v 0.12 l 0.12,0.24 v 0.48 l 0.12,0.24 v 0.12 l 0.12,0.24 0.12,0.12 v 0.12 l 0.12,0.24 0.12,0.12 0.12,0.12 0.12,0.12 0.12,0.24 0.12,0.12 0.12,0.12 0.12,0.12 0.12,0.12 0.12,0.12 h 0.24 l 0.12,0.12 0.12,0.12 h 0.24 l 0.12,0.12 h 0.12 l 0.24,0.12 h 0.12 l 0.24,0.12 h 1.2 l 0.12,-0.12 h 0.24 l 0.12,-0.12 h 0.24 l 0.12,-0.12 h 0.12 l 0.24,-0.12 0.12,-0.12 h 0.12 l 0.12,-0.12 0.24,-0.12 0.12,-0.12 0.12,-0.12 0.12,-0.12 0.12,-0.24 0.12,-0.12 0.12,-0.12 0.12,-0.12 v -0.24 l 0.12,-0.12 0.12,-0.12 v -0.24 l 0.12,-0.12 v -0.36 l 0.12,-0.24 v -1.08 l -0.12,-0.24 v -0.36 l -0.12,-0.12 v -0.24 l -0.12,-0.12 -0.12,-0.12 v -0.24 l -0.12,-0.12 -0.12,-0.12 -0.12,-0.12 -0.12,-0.24 -0.12,-0.12 -0.12,-0.12 -0.12,-0.12 -0.24,-0.12 h -0.12 l -0.12,-0.12 -0.12,-0.12 -0.24,-0.12 h -0.12 l -0.12,-0.12 h -0.24 l -0.12,-0.12 h -0.24 l -0.12,-0.12 h -1.2 l -0.24,0.12 h -0.12 l -0.24,0.12 h -0.12 l -0.12,0.12 h -0.24 l -0.12,0.12 -0.12,0.12 -0.24,0.12 h -0.12 l -0.12,0.12 -0.12,0.12 -0.12,0.12 -0.12,0.12 -0.12,0.24 -0.12,0.12 -0.12,0.12 -0.12,0.12 -0.12,0.24 v 0.12 l -0.12,0.12 -0.12,0.24 v 0.12 l -0.12,0.24 v 0.48 l -0.12,0.24 v 0.24"
         style="fill:#0e1313;fill-opacity:1;fill-rule:evenodd;stroke:none;stroke-width:0.12"
         id="path79137" /><path
         d="m 646.20494,1463.4493 v 0.12 l 0.12,0.12 v 0.48 h 0.12 v 0.24 h 0.12 v 0.24 h 0.12 v 0.12 h 0.12 v 0.12 h 0.12 l 0.12,0.12 h 0.12 v 0.12 h 0.12 l 0.12,0.12 h 0.36 v 0.12 h 0.48 0.12 l 0.12,-0.12 h 0.12 0.24 v -0.12 h 0.12 l 0.12,-0.12 h 0.12 v -0.12 h 0.12 l 0.12,-0.12 v 0 l 0.12,-0.12 v -0.12 l 0.12,-0.12 v 0 l 0.12,-0.12 v -0.24 l 0.12,-0.12 v -0.84 l -0.12,-0.12 v -0.24 l -0.12,-0.12 v -0.12 h -0.12 v -0.12 l -0.12,-0.12 v 0 l -0.12,-0.12 h -0.12 v -0.12 h -0.12 v -0.12 h -0.24 v -0.12 h -0.24 v 0 l -0.12,-0.12 h -0.24 -0.48 v 0 l -0.12,0.12 h -0.24 v 0 l -0.12,0.12 h -0.12 v 0 l -0.12,0.12 v 0 l -0.12,0.12 h -0.12 v 0.12 h -0.12 v 0.12 h -0.12 v 0.12 l -0.12,0.12 v 0.12 l -0.12,0.12 v 0.48 l -0.12,0.12 v 0"
         style="fill:#ffffff;fill-opacity:1;fill-rule:evenodd;stroke:none;stroke-width:0.12"
         id="path79139" /><path
         d="m 646.20494,1488.8893 v 0 l 0.12,0.12 v 0.48 l 0.12,0.12 v 0.12 h 0.12 v 0.24 h 0.12 v 0.12 h 0.12 v 0.12 h 0.12 l 0.12,0.12 v 0 l 0.12,0.12 h 0.12 l 0.12,0.12 h 0.24 l 0.12,0.12 h 0.48 0.24 l 0.12,-0.12 h 0.24 v -0.12 h 0.24 v -0.12 h 0.12 v -0.12 h 0.12 l 0.12,-0.12 v 0 l 0.12,-0.12 v -0.12 l 0.12,-0.12 v 0 l 0.12,-0.12 v -0.24 l 0.12,-0.12 v -0.84 l -0.12,-0.12 v -0.24 l -0.12,-0.12 v 0 l -0.12,-0.12 v -0.12 l -0.12,-0.12 v 0 l -0.12,-0.12 h -0.12 v -0.12 h -0.12 v -0.12 h -0.24 v -0.12 h -0.24 -0.12 l -0.12,-0.12 h -0.12 -0.48 v 0.12 h -0.36 v 0 l -0.12,0.12 h -0.12 v 0 l -0.12,0.12 v 0 l -0.12,0.12 h -0.12 v 0.12 h -0.12 v 0.12 h -0.12 v 0.24 h -0.12 v 0.24 h -0.12 v 0.48 l -0.12,0.12 v 0.12"
         style="fill:#ffffff;fill-opacity:1;fill-rule:evenodd;stroke:none;stroke-width:0.12"
         id="path79141" /><path
         d="m 618.12494,1459.8493 36,36 3.36,-3.36 -36,-36.12 -3.36,3.48"
         style="fill:#a1262d;fill-opacity:1;fill-rule:nonzero;stroke:none;stroke-width:0.12"
         id="path79143" /></g></g></svg>
