<?xml version="1.0" encoding="UTF-8" standalone="no"?>
<svg
   xmlns:dc="http://purl.org/dc/elements/1.1/"
   xmlns:cc="http://creativecommons.org/ns#"
   xmlns:rdf="http://www.w3.org/1999/02/22-rdf-syntax-ns#"
   xmlns:svg="http://www.w3.org/2000/svg"
   xmlns="http://www.w3.org/2000/svg"
   xmlns:sodipodi="http://sodipodi.sourceforge.net/DTD/sodipodi-0.dtd"
   xmlns:inkscape="http://www.inkscape.org/namespaces/inkscape"
   version="1.1"
   id="svg47911"
   xml:space="preserve"
   width="75.519997"
   height="75.360001"
   viewBox="0 0 75.519996 75.360003"
   sodipodi:docname="ISO 7010 WSP003.svg"
   inkscape:version="1.0.1 (3bc2e813f5, 2020-09-07)"><metadata
     id="metadata47917"><rdf:RDF><cc:Work
         rdf:about=""><dc:format>image/svg+xml</dc:format><dc:type
           rdf:resource="http://purl.org/dc/dcmitype/StillImage" /><dc:title></dc:title></cc:Work></rdf:RDF></metadata><defs
     id="defs47915" /><sodipodi:namedview
     pagecolor="#ffffff"
     bordercolor="#666666"
     borderopacity="1"
     objecttolerance="10"
     gridtolerance="10"
     guidetolerance="10"
     inkscape:pageopacity="0"
     inkscape:pageshadow="2"
     inkscape:window-width="1920"
     inkscape:window-height="1017"
     id="namedview47913"
     showgrid="false"
     fit-margin-top="0"
     fit-margin-left="0"
     fit-margin-right="0"
     fit-margin-bottom="0"
     inkscape:zoom="1.8529412"
     inkscape:cx="186.35966"
     inkscape:cy="11.340161"
     inkscape:window-x="-8"
     inkscape:window-y="-8"
     inkscape:window-maximized="1"
     inkscape:current-layer="g47919" /><g
     id="g47919"
     inkscape:groupmode="layer"
     inkscape:label="4457193"
     transform="matrix(0,1.3333333,1.3333333,0,-1489.3532,-517.67404)"><g
       id="g86616"
       transform="translate(173.2381,-101.19048)"><path
         d="m 271.53744,1246.5254 -0.12,1.44 -0.12,1.44 -0.12,1.32 -0.24,1.44 -0.36,1.32 -0.36,1.44 -0.48,1.32 -0.48,1.2 -0.6,1.32 -0.6,1.2 -0.72,1.2 -0.72,1.08 -0.72,1.2 -0.84,1.08 -0.96,0.96 -0.96,0.96 -0.96,0.96 -0.96,0.96 -1.08,0.84 -1.08,0.72 -1.2,0.72 -1.2,0.72 -1.2,0.6 -1.2,0.6 -1.32,0.48 -1.32,0.48 -1.32,0.36 -1.44,0.36 -1.32,0.24 -1.44,0.12 -1.44,0.12 -1.44,0.12 -1.44,-0.12 -1.44,-0.12 -1.44,-0.12 -1.32,-0.24 -1.44,-0.36 -1.32,-0.36 -1.32,-0.48 -1.2,-0.48 -1.32,-0.6 -1.2,-0.6 -1.2,-0.72 -1.08,-0.72 -1.2,-0.72 -1.08,-0.84 -0.96,-0.96 -0.96,-0.96 -0.96,-0.96 -0.96,-0.96 -0.84,-1.08 -0.72,-1.2 -0.72,-1.08 -0.72,-1.2 -0.6,-1.2 -0.6,-1.32 -0.48,-1.2 -0.48,-1.32 -0.36,-1.44 -0.36,-1.32 -0.24,-1.44 -0.12,-1.32 -0.12,-1.44 v -3 l 0.12,-1.44 0.12,-1.32 0.24,-1.44 0.36,-1.32 0.36,-1.44 0.48,-1.2 0.48,-1.32 0.6,-1.32 0.6,-1.2 0.72,-1.2 0.72,-1.08 0.72,-1.2 0.84,-0.96 0.96,-1.08 0.96,-0.96 0.96,-0.96 0.96,-0.84 1.08,-0.84 1.2,-0.84 1.08,-0.72 1.2,-0.72 1.2,-0.6 1.32,-0.6 1.2,-0.48 1.32,-0.48 1.32,-0.36 1.44,-0.36 1.32,-0.24 1.44,-0.12 1.44,-0.12 h 2.88 l 1.44,0.12 1.44,0.12 1.32,0.24 1.44,0.36 1.32,0.36 1.32,0.48 1.32,0.48 1.2,0.6 1.2,0.6 1.2,0.72 1.2,0.72 1.08,0.84 1.08,0.84 0.96,0.84 0.96,0.96 0.96,0.96 0.96,1.08 0.84,0.96 0.72,1.2 0.72,1.08 0.72,1.2 0.6,1.2 0.6,1.32 0.48,1.32 0.48,1.2 0.36,1.44 0.36,1.32 0.24,1.44 0.12,1.32 0.12,1.44 0.12,1.56"
         style="fill:#a1262d;fill-opacity:1;fill-rule:evenodd;stroke:none;stroke-width:0.12"
         id="path83452" /><path
         d="m 265.77744,1246.5254 v 1.08 l -0.12,1.2 -0.12,1.08 -0.12,1.08 -0.36,1.2 -0.24,1.08 -0.36,0.96 -0.36,1.08 -0.48,0.96 -0.48,0.96 -0.6,0.96 -0.6,0.96 -0.6,0.84 -0.72,0.96 -0.72,0.72 -0.72,0.84 -0.72,0.72 -0.84,0.72 -0.84,0.72 -0.96,0.6 -0.84,0.6 -0.96,0.48 -0.96,0.6 -1.08,0.36 -0.96,0.48 -1.08,0.36 -1.08,0.24 -1.08,0.24 -1.08,0.24 -1.2,0.12 -1.08,0.12 h -2.4 l -1.08,-0.12 -1.2,-0.12 -1.08,-0.24 -1.08,-0.24 -1.08,-0.24 -1.08,-0.36 -0.96,-0.48 -1.08,-0.36 -0.96,-0.6 -0.96,-0.48 -0.84,-0.6 -0.96,-0.6 -0.84,-0.72 -0.84,-0.72 -0.72,-0.72 -0.72,-0.84 -0.72,-0.72 -0.72,-0.96 -0.6,-0.84 -0.6,-0.96 -0.6,-0.96 -0.48,-0.96 -0.48,-0.96 -0.36,-1.08 -0.36,-0.96 -0.24,-1.08 -0.36,-1.2 -0.12,-1.08 -0.12,-1.08 -0.12,-1.2 v -2.28 l 0.12,-1.2 0.12,-1.08 0.12,-1.08 0.36,-1.2 0.24,-1.08 0.36,-0.96 0.36,-1.08 0.48,-0.96 0.48,-0.96 0.6,-0.96 0.6,-0.96 0.6,-0.84 0.72,-0.84 0.72,-0.84 0.72,-0.84 0.72,-0.72 0.84,-0.72 0.84,-0.72 0.96,-0.6 0.84,-0.6 0.96,-0.48 0.96,-0.6 1.08,-0.36 0.96,-0.48 1.08,-0.36 1.08,-0.24 1.08,-0.24 1.08,-0.24 1.2,-0.12 1.08,-0.12 h 2.4 l 1.08,0.12 1.2,0.12 1.08,0.24 1.08,0.24 1.08,0.24 1.08,0.36 0.96,0.48 1.08,0.36 0.96,0.6 0.96,0.48 0.84,0.6 0.96,0.6 0.84,0.72 0.84,0.72 0.72,0.72 0.72,0.84 0.72,0.84 0.72,0.84 0.6,0.84 0.6,0.96 0.6,0.96 0.48,0.96 0.48,0.96 0.36,1.08 0.36,0.96 0.24,1.08 0.36,1.2 0.12,1.08 0.12,1.08 0.12,1.2 v 1.2"
         style="fill:#ffffff;fill-opacity:1;fill-rule:evenodd;stroke:none;stroke-width:0.12"
         id="path83454" /><path
         d="m 233.61744,1255.0454 v 1.2 l 0.12,0.24 v 0.36 l 0.12,0.24 v 0.48 l 0.12,0.24 0.12,0.24 v 0.24 l 0.12,0.24 0.12,0.24 v 0.24 l 0.12,0.12 0.12,0.24 v 0.24 l 0.12,0.24 v 0.12 l 0.12,0.24 v 0.12 l 0.12,0.24 v 0.24 l 0.12,0.12 v 0.72 l 0.12,0.12 v 1.56 l -0.12,0.12 v 0.48 h -0.12 v 0.12 l 0.12,0.12 h 0.12 0.12 0.24 l 0.12,-0.12 h 0.24 v -0.12 h 0.24 v -0.12 h 0.12 v 0 l 0.12,-0.12 v 0 l 0.12,-0.12 v 0 l 0.12,-0.12 v -0.12 h 0.12 v -0.24 h 0.12 v -1.56 l -0.12,-0.12 v -0.6 l -0.12,-0.24 v -0.36 l -0.12,-0.24 v -0.24 l -0.12,-0.24 -0.12,-0.24 v -0.12 l -0.12,-0.24 -0.12,-0.24 v -0.36 l -0.12,-0.24 -0.12,-0.12 -0.12,-0.24 v -0.12 l -0.12,-0.24 v -0.36 l -0.12,-0.24 v -0.36 l -0.12,-0.12 v -1.2 h -1.68"
         style="fill:#0e1313;fill-opacity:1;fill-rule:nonzero;stroke:none;stroke-width:0.12"
         id="path83456" /><path
         d="m 248.73744,1241.2454 v -1.08 l -0.12,-0.12 v -0.24 h -0.12 v -0.12 l 4.44,-4.2 h 0.12 v -0.12 h 0.12 v -0.12 l 0.12,-0.12 v -0.12 h 0.12 v -0.24 l 0.12,-0.12 v -0.6 l -0.6,-5.04 -3.72,-1.68 0.84,6.24 -5.76,5.4 h -0.12 v 0.12 l -0.12,0.12 v 0 l -0.12,0.12 v 0.12 l -0.12,0.12 v 0.12 h -0.12 v 0.24 l -0.12,0.12 v 0.36 l -0.12,0.12 -1.2,9.12 v 0.12 l -0.12,0.12 v 0.36 h 0.12 v 0.6 h 0.12 v 0.36 l 0.12,0.12 3.72,12.84 v 0.24 h 0.12 v 0.24 h 0.12 v 0 l 0.12,0.12 v 0.12 h 0.12 v 0 l 0.12,0.12 h 0.12 v 0 l 0.12,0.12 h 0.12 0.24 0.12 0.12 0.24 0.12 v -0.12 h 0.12 0.12 v -0.12 h 0.12 v 0 l 0.12,-0.12 h 0.12 v -0.12 l 0.12,-0.12 v -0.12 l 0.12,-0.12 v -0.24 l 0.12,-0.12 v -0.36 l -0.12,-0.12 v -0.12 l -3.12,-10.8 h 0.12 v 0 l 0.12,-0.12 h 0.12 v 0 l 0.12,-0.12 h 0.12 v -0.12 h 0.12 v -0.12 h 0.12 l 0.12,-0.12 v 0 l 0.12,-0.12 v 0 l 0.12,-0.12 v -0.12 h 0.12 v -0.12 l 0.12,-0.12 v -0.12 l 0.12,-0.12 v -0.12 l 0.12,-0.12 v -0.48 l 1.32,-9.12"
         style="fill:#0e1313;fill-opacity:1;fill-rule:nonzero;stroke:none;stroke-width:0.12"
         id="path83458" /><path
         d="m 230.97744,1253.2454 v 1.2 h 6.12 v 0.12 l 0.12,0.12 v 0.24 l 0.12,0.12 v 0.12 h 0.12 v 0.12 l 0.12,0.12 v 0 l 0.12,0.12 v 0.12 h 0.12 v 0.12 h 0.12 l 0.12,0.12 v 0 l 0.12,0.12 h 0.12 l 0.12,0.12 h 0.12 v 0.12 h 0.24 v 0.12 h 0.24 l 0.24,0.84 3.96,-1.08 -1.08,-3.12 v -0.24 l -0.12,-0.12 v -0.12 l -0.12,-0.12 v 0 l -0.12,-0.12 v -0.12 h -0.12 v -0.12 l -0.12,-0.12 v 0 l -0.12,-0.12 h -0.12 v -0.12 l -0.12,-0.12 h -0.24 v -0.12 h -0.12 l -0.12,-0.12 h -0.12 -0.12 l -0.12,-0.12 h -0.72 -0.6 l -0.12,0.12 h -0.24 l -0.12,0.12 h -0.12 l -0.12,0.12 h -0.12 l -0.12,0.12 v 0 l -0.12,0.12 -0.12,0.12 v 0 l -0.12,0.12 v 0.12 h -0.12 l -0.12,0.12 v 0.12 l -0.12,0.12 v 0.12 l -0.12,0.12 v 0.24 l -0.12,0.12 v 0.12 h -6.12"
         style="fill:#0e1313;fill-opacity:1;fill-rule:nonzero;stroke:none;stroke-width:0.12"
         id="path83460" /><path
         d="m 235.53744,1229.9654 0.12,0.12 v 1.8 l -0.12,0.12 v 0.6 l -0.12,0.12 v 0.36 l -0.12,0.12 v 0.36 l -0.12,0.12 v 0.12 l -0.12,0.12 v 0.24 l -0.12,0.12 v 0.12 l -0.12,0.36 -0.12,0.24 -0.12,0.36 -0.12,0.24 -0.12,0.36 -0.12,0.24 v 0.36 l -0.12,0.24 -0.12,0.36 v 0.24 l -0.12,0.36 v 0.24 l -0.12,0.24 v 0.96 l -0.12,0.12 v 1.44 l 0.12,0.24 v 0.72 l 0.12,0.12 v 0.48 l 0.12,0.12 v 0.24 l 0.12,0.24 v 0.24 l 0.12,0.12 v 0.24 l 0.12,0.12 v 0.12 l 0.12,0.12 v 0.24 l 0.12,0.24 0.12,0.12 v 0.24 l 0.12,0.24 v 0.12 l 0.12,0.24 v 0.24 l 0.12,0.24 v 0.6 l 0.12,0.24 v 1.92 l -0.12,0.12 v 0.48 l -0.12,0.24 v 0.24 l -0.12,0.12 v 0.24 l -0.12,0.24 v 0.24 l -0.12,0.24 -0.12,0.24 -0.12,0.24 v 0.24 l -0.12,0.24 -0.12,0.24 v 0.24 l -0.12,0.24 v 0.24 h 1.68 l 0.12,-0.24 v -0.12 l 0.12,-0.12 v -0.36 l 0.12,-0.12 v -0.24 l 0.12,-0.12 v -0.12 l 0.12,-0.12 v -0.12 l 0.12,-0.12 v -0.36 l 0.12,-0.12 v -0.24 l 0.12,-0.12 v -0.36 l 0.12,-0.12 v -0.6 l 0.12,-0.12 v -2.4 l -0.12,-0.24 v -0.48 l -0.12,-0.24 v -0.24 l -0.12,-0.24 v -0.24 l -0.12,-0.24 v -0.24 l -0.12,-0.24 -0.12,-0.24 v -0.24 l -0.12,-0.24 -0.12,-0.12 v -0.24 l -0.12,-0.12 v -0.12 l -0.12,-0.12 v -0.36 l -0.12,-0.12 v -0.36 l -0.12,-0.24 v -0.96 l -0.12,-0.12 v -0.84 l 0.12,-0.24 v -0.84 l 0.12,-0.24 v -0.24 l 0.12,-0.24 v -0.24 l 0.12,-0.24 v -0.36 l 0.12,-0.24 0.12,-0.24 v -0.24 l 0.12,-0.24 0.12,-0.36 0.12,-0.24 0.12,-0.24 v -0.24 l 0.12,-0.12 v -0.24 l 0.12,-0.12 0.12,-0.24 v -0.36 l 0.12,-0.12 v -0.24 l 0.12,-0.12 v -0.36 l 0.12,-0.24 v -0.48 l 0.12,-0.24 v -1.44 h -0.12 v -0.24 l -0.12,-0.12 v -0.12 h -0.12 v -0.12 h -0.12 v -0.12 h -0.12 v -0.12 h -0.24 v -0.12 h -0.12 -0.12 l -0.12,-0.12 h -0.12 -0.24 -0.12 v 0.12 h -0.12 v 0.36"
         style="fill:#0e1313;fill-opacity:1;fill-rule:nonzero;stroke:none;stroke-width:0.12"
         id="path83462" /><path
         d="m 223.53744,1230.2054 36,36 3.36,-3.36 -36,-36.12 -3.36,3.48"
         style="fill:#a1262d;fill-opacity:1;fill-rule:nonzero;stroke:none;stroke-width:0.12"
         id="path83464" /></g></g></svg>
