<?xml version="1.0" encoding="UTF-8" standalone="no"?>
<svg
   xmlns:dc="http://purl.org/dc/elements/1.1/"
   xmlns:cc="http://creativecommons.org/ns#"
   xmlns:rdf="http://www.w3.org/1999/02/22-rdf-syntax-ns#"
   xmlns:svg="http://www.w3.org/2000/svg"
   xmlns="http://www.w3.org/2000/svg"
   xmlns:sodipodi="http://sodipodi.sourceforge.net/DTD/sodipodi-0.dtd"
   xmlns:inkscape="http://www.inkscape.org/namespaces/inkscape"
   version="1.1"
   id="svg47911"
   xml:space="preserve"
   width="75.35968"
   height="75.519997"
   viewBox="0 0 75.359677 75.519996"
   sodipodi:docname="ISO 7010 WSP010.svg"
   inkscape:version="1.0.1 (3bc2e813f5, 2020-09-07)"><metadata
     id="metadata47917"><rdf:RDF><cc:Work
         rdf:about=""><dc:format>image/svg+xml</dc:format><dc:type
           rdf:resource="http://purl.org/dc/dcmitype/StillImage" /><dc:title></dc:title></cc:Work></rdf:RDF></metadata><defs
     id="defs47915" /><sodipodi:namedview
     pagecolor="#ffffff"
     bordercolor="#666666"
     borderopacity="1"
     objecttolerance="10"
     gridtolerance="10"
     guidetolerance="10"
     inkscape:pageopacity="0"
     inkscape:pageshadow="2"
     inkscape:window-width="1920"
     inkscape:window-height="1017"
     id="namedview47913"
     showgrid="false"
     fit-margin-top="0"
     fit-margin-left="0"
     fit-margin-right="0"
     fit-margin-bottom="0"
     inkscape:zoom="2.6204546"
     inkscape:cx="150.85905"
     inkscape:cy="81.519266"
     inkscape:window-x="-8"
     inkscape:window-y="-8"
     inkscape:window-maximized="1"
     inkscape:current-layer="g47919" /><g
     id="g47919"
     inkscape:groupmode="layer"
     inkscape:label="4457193"
     transform="matrix(0,1.3333333,1.3333333,0,-411.52252,-430.62406)"><g
       id="g63114"><path
         d="m 379.60805,336.8419 -0.12,1.44 -0.12,1.44 -0.12,1.44 -0.24,1.32 -0.36,1.44 -0.36,1.32 -0.48,1.32 -0.48,1.32 -0.6,1.2 -0.6,1.2 -0.72,1.2 -0.72,1.2 -0.72,1.08 -0.84,1.08 -0.96,0.96 -0.96,0.96 -0.96,0.96 -0.96,0.95976 -1.08,0.84 -1.2,0.72 -1.08,0.72 -1.2,0.72 -1.2,0.6 -1.32,0.6 -1.2,0.48 -1.32,0.48 -1.44,0.36 -1.32,0.36 -1.44,0.24 -1.32,0.12 -1.44,0.12 -1.44,0.12 -1.56,-0.12 -1.44,-0.12 -1.32,-0.12 -1.44,-0.24 -1.32,-0.36 -1.44,-0.36 -1.2,-0.48 -1.32,-0.48 -1.32,-0.6 -1.2,-0.6 -1.2,-0.72 -1.08,-0.72 -1.2,-0.72 -0.96,-0.84 -1.08,-0.95976 -0.96,-0.96 -0.96,-0.96 -0.84,-0.96 -0.84,-1.08 -0.84,-1.08 -0.72,-1.2 -0.72,-1.2 -0.6,-1.2 -0.6,-1.2 -0.48,-1.32 -0.48,-1.32 -0.36,-1.32 -0.36,-1.44 -0.24,-1.32 -0.12,-1.44 -0.12,-1.44 v -2.88 l 0.12,-1.44 0.12,-1.44 0.24,-1.32 0.36,-1.44 0.36,-1.32 0.48,-1.32 0.48,-1.2 0.6,-1.32 0.6,-1.2 0.72,-1.2 0.72,-1.08 0.84,-1.2 0.84,-1.08 0.84,-0.96 0.96,-0.96 0.96,-0.96 1.08,-0.96 0.96,-0.84 1.2,-0.72 1.08,-0.72 1.2,-0.72 1.2,-0.6 1.32,-0.6 1.32,-0.48 1.2,-0.48 1.44,-0.36 1.32,-0.36 1.44,-0.24 1.32,-0.12 1.44,-0.12 h 3 l 1.44,0.12 1.32,0.12 1.44,0.24 1.32,0.36 1.44,0.36 1.32,0.48 1.2,0.48 1.32,0.6 1.2,0.6 1.2,0.72 1.08,0.72 1.2,0.72 1.08,0.84 0.96,0.96 0.96,0.96 0.96,0.96 0.96,0.96 0.84,1.08 0.72,1.2 0.72,1.08 0.72,1.2 0.6,1.2 0.6,1.32 0.48,1.2 0.48,1.32 0.36,1.32 0.36,1.44 0.24,1.32 0.12,1.44 0.12,1.44 0.12,1.44"
         style="fill:#a1262d;fill-opacity:1;fill-rule:evenodd;stroke:none;stroke-width:0.12"
         id="path60282" /><path
         d="m 373.84805,336.8419 v 1.2 l -0.12,1.08 -0.12,1.2 -0.24,1.08 -0.24,1.08 -0.24,1.08 -0.36,1.08 -0.48,0.96 -0.36,1.08 -0.6,0.96 -0.48,0.96 -0.6,0.84 -0.6,0.96 -0.72,0.84 -0.72,0.84 -0.72,0.72 -0.84,0.72 -0.72,0.72 -0.96,0.72 -0.84,0.6 -0.96,0.6 -0.96,0.6 -0.96,0.48 -0.96,0.48 -1.08,0.35976 -0.96,0.36 -1.08,0.24 -1.2,0.36 -1.08,0.12 -1.08,0.12 -1.2,0.12 h -2.28 l -1.2,-0.12 -1.08,-0.12 -1.08,-0.12 -1.2,-0.36 -1.08,-0.24 -0.96,-0.36 -1.08,-0.35976 -0.96,-0.48 -0.96,-0.48 -0.96,-0.6 -0.96,-0.6 -0.84,-0.6 -0.84,-0.72 -0.84,-0.72 -0.84,-0.72 -0.72,-0.72 -0.72,-0.84 -0.72,-0.84 -0.6,-0.96 -0.6,-0.84 -0.48,-0.96 -0.6,-0.96 -0.36,-1.08 -0.48,-0.96 -0.36,-1.08 -0.24,-1.08 -0.24,-1.08 -0.24,-1.08 -0.12,-1.2 -0.12,-1.08 v -2.4 l 0.12,-1.08 0.12,-1.2 0.24,-1.08 0.24,-1.08 0.24,-1.08 0.36,-1.08 0.48,-0.96 0.36,-1.08 0.6,-0.96 0.48,-0.96 0.6,-0.84 0.6,-0.96 0.72,-0.84 0.72,-0.84 0.72,-0.72 0.84,-0.72 0.84,-0.72 0.84,-0.72 0.84,-0.6 0.96,-0.6 0.96,-0.6 0.96,-0.48 0.96,-0.48 1.08,-0.36 0.96,-0.36 1.08,-0.24 1.2,-0.36 1.08,-0.12 1.08,-0.12 1.2,-0.12 h 2.28 l 1.2,0.12 1.08,0.12 1.08,0.12 1.2,0.36 1.08,0.24 0.96,0.36 1.08,0.36 0.96,0.48 0.96,0.48 0.96,0.6 0.96,0.6 0.84,0.6 0.96,0.72 0.72,0.72 0.84,0.72 0.72,0.72 0.72,0.84 0.72,0.84 0.6,0.96 0.6,0.84 0.48,0.96 0.6,0.96 0.36,1.08 0.48,0.96 0.36,1.08 0.24,1.08 0.24,1.08 0.24,1.08 0.12,1.2 0.12,1.08 v 1.2"
         style="fill:#ffffff;fill-opacity:1;fill-rule:evenodd;stroke:none;stroke-width:0.12"
         id="path60284" /><path
         d="m 362.80805,321.8419 0.12,0.12 v 1.8 l -0.12,0.12 v 0.6 l -0.12,0.12 v 0.24 l -0.12,0.12 v 0.24 l -0.12,0.12 v 0.12 l -0.12,0.24 -0.12,0.24 -0.12,0.24 -0.12,0.24 v 0.24 l -0.12,0.24 -0.12,0.24 v 0.24 l -0.12,0.24 v 0.48 l -0.12,0.24 v 1.92 l 0.12,0.24 v 0.48 l 0.12,0.24 v 0.24 l 0.12,0.24 0.12,0.24 v 0.24 l 0.12,0.24 0.12,0.24 0.12,0.24 0.12,0.24 v 0.24 l 0.12,0.12 v 0.12 l 0.12,0.12 v 0.24 l 0.12,0.12 v 0.36 l 0.12,0.12 v 0.48 l 0.12,0.12 v 1.56 l -0.12,0.24 v 0.36 l -0.12,0.12 v 0.36 l -0.12,0.24 v 0.24 l -0.12,0.12 -0.12,0.24 v 0.24 l -0.12,0.24 -0.12,0.24 -0.12,0.24 v 0.24 l -0.12,0.24 v 0.24 l -0.12,0.24 v 0.24 l -0.12,0.24 v 0.48 l -0.12,0.24 v 2.4 l 0.12,0.12 v 0.48 l 0.12,0.12 v 0.24 l 0.12,0.12 v 0.24 l 0.12,0.12 v 0.12 l 0.12,0.24 v 0.12 l 0.12,0.12 v 0.12 l 0.12,0.12 v 0.24 l 0.12,0.12 v 0.36 l 0.12,0.24 v 0.24 l 0.12,0.24 v 0.72 l 0.12,0.24 v 1.32 l -0.12,0.12 v 0.48 h 0.12 0.12 l 0.12,-0.12 h 0.24 0.12 l 0.12,-0.12 h 0.12 v -0.12 h 0.12 v 0 l 0.12,-0.12 v 0 l 0.12,-0.12 v 0 l 0.12,-0.12 v -0.12 l 0.12,-0.12 v -0.36 h 0.12 v -0.6 l -0.12,-0.24 v -0.48 l -0.12,-0.24 v -0.48 l -0.12,-0.12 v -0.24 l -0.12,-0.24 v -0.48 l -0.12,-0.12 v -0.12 l -0.12,-0.12 v -0.36 l -0.12,-0.12 v -0.12 l -0.12,-0.12 v -0.12 l -0.12,-0.24 v -0.12 l -0.12,-0.12 v -0.36 l -0.12,-0.12 v -0.48 l -0.12,-0.12 v -1.08 l 0.12,-0.24 v -0.72 l 0.12,-0.24 v -0.36 l 0.12,-0.24 v -0.24 l 0.12,-0.24 v -0.12 l 0.12,-0.24 0.12,-0.24 v -0.24 l 0.12,-0.24 0.12,-0.24 0.12,-0.24 v -0.24 l 0.12,-0.12 v -0.24 l 0.12,-0.24 v -0.24 l 0.12,-0.24 v -0.84 l 0.12,-0.24 v -0.6 l -0.12,-0.24 v -0.72 l -0.12,-0.24 v -0.36 l -0.12,-0.24 v -0.12 l -0.12,-0.24 v -0.24 l -0.12,-0.12 -0.12,-0.24 v -0.12 l -0.12,-0.24 -0.12,-0.12 -0.12,-0.24 v -0.24 l -0.12,-0.24 v -0.12 l -0.12,-0.24 v -0.24 l -0.12,-0.12 v -0.24 l -0.12,-0.24 v -2.16 l 0.12,-0.24 v -0.36 l 0.12,-0.24 v -0.12 l 0.12,-0.24 v -0.24 l 0.12,-0.12 0.12,-0.24 v -0.24 l 0.12,-0.12 0.12,-0.24 v -0.12 l 0.12,-0.12 v -0.24 l 0.12,-0.12 v -0.36 l 0.12,-0.12 v -0.24 l 0.12,-0.24 v -0.72 l 0.12,-0.12 v -0.84 l -0.12,-0.12 v -0.36 h -0.12 v -0.12 h -0.12 v -0.12 l -0.12,-0.12 h -0.12 v -0.12 h -0.12 v 0 l -0.12,-0.12 h -0.12 -0.12 v 0 l -0.12,-0.12 h -0.12 -0.12 -0.12 v 0.12 h -0.12 v 0.24"
         style="fill:#0e1313;fill-opacity:1;fill-rule:evenodd;stroke:none;stroke-width:0.12"
         id="path60286" /><path
         d="m 336.76805,349.5619 v 0.48 h 0.12 v 0.36 l 0.12,0.12 v 0 l 0.12,0.12 v 0.12 h 0.12 v 0.12 l 0.12,0.12 v 0 l 0.12,0.12 v 0 l 0.12,0.12 h 0.12 l 0.12,0.12 v 0 l 0.12,0.12 h 0.24 v 0.12 h 0.72 0.6 l 0.12,-0.12 h 0.12 l 0.12,-0.12 h 0.12 v -0.12 h 0.12 l 0.12,-0.12 v 0 l 0.12,-0.12 v 0 l 0.12,-0.12 0.12,-0.12 v 0 l 0.12,-0.12 v -0.12 l 0.12,-0.12 v -0.24 l 0.12,-0.12 v -0.96 l -0.12,-0.12 v -0.24 l -0.12,-0.12 v -0.12 l -0.12,-0.12 v 0 l -0.12,-0.12 -0.12,-0.12 v 0 l -0.12,-0.12 v 0 l -0.12,-0.12 h -0.12 v -0.12 h -0.12 l -0.12,-0.12 h -0.12 v 0 l -0.12,-0.12 h -0.6 -0.72 v 0.12 h -0.24 l -0.12,0.12 v 0 l -0.12,0.12 h -0.12 l -0.12,0.12 v 0 l -0.12,0.12 v 0 l -0.12,0.12 v 0.12 h -0.12 v 0.12 l -0.12,0.12 v 0 l -0.12,0.12 v 0.36 l -0.12,0.12 v 0.36"
         style="fill:#0e1313;fill-opacity:1;fill-rule:evenodd;stroke:none;stroke-width:0.12"
         id="path60288" /><path
         d="m 359.92805,321.8419 v 0.12 l 0.12,0.24 v 1.44 l -0.12,0.12 v 0.6 l -0.12,0.12 v 0.36 l -0.12,0.12 v 0.24 l -0.12,0.12 v 0.12 h -0.12 v 0.24 l -0.12,0.24 -0.12,0.24 -0.12,0.24 -0.12,0.24 v 0.24 l -0.12,0.24 v 0.24 l -0.12,0.24 v 0.48 l -0.12,0.24 v 1.92 l 0.12,0.24 v 0.48 l 0.12,0.24 v 0.24 l 0.12,0.24 v 0.24 l 0.12,0.24 0.12,0.24 0.12,0.24 v 0.24 l 0.12,0.24 0.12,0.24 0.12,0.12 v 0.12 l 0.12,0.12 v 0.36 l 0.12,0.12 v 0.24 l 0.12,0.12 v 0.6 l 0.12,0.24 v 1.2 l -0.12,0.12 v 0.6 l -0.12,0.12 v 0.24 l -0.12,0.12 v 0.24 l -0.12,0.24 v 0.12 l -0.12,0.24 -0.12,0.24 v 0.24 l -0.12,0.24 -0.12,0.24 v 0.12 l -0.12,0.24 v 0.24 l -0.12,0.24 v 0 l -3.48,-12.72 -0.12,-0.48 -0.12,-0.36 -0.24,-0.36 -0.12,-0.36 -0.24,-0.36 -0.24,-0.36 -0.24,-0.24 -0.36,-0.36 -0.24,-0.24 -0.36,-0.36 -0.24,-0.24 -0.36,-0.24 -0.36,-0.24 -0.36,-0.24 -0.36,-0.24 -0.36,-0.12 -0.48,-0.24 -0.36,-0.24 -0.36,-0.12 -0.48,-0.12 -0.36,-0.24 -0.36,-0.12 -0.48,-0.12 -0.36,-0.12 -0.48,-0.12 -0.36,-0.12 h -0.36 l -0.36,-0.12 -0.48,-0.12 h -0.72 l -0.36,-0.12 v 0.12 l -0.12,0.12 v 0.12 l -0.12,0.24 -0.12,0.12 v 0.12 l -0.12,0.24 v 0.12 l -0.12,0.24 v 0.12 l -0.12,0.24 -0.12,0.24 v 0.12 l -0.12,0.24 v 0.24 l -0.12,0.24 v 0.12 l -0.12,0.24 v 0.48 l -0.12,0.24 v 0.24 l -0.12,0.12 v 0.24 l -0.12,0.24 v 0.36 l -0.12,0.24 v 0.36 l -0.12,0.24 v 0.36 l -0.12,0.24 v 0.36 l -0.12,0.12 v 0.6 l -0.12,0.24 v 0.6 l -0.12,0.24 v 0.96 l -0.12,0.24 v 0.96 l -0.12,0.12 v 1.44 l -0.24,2.64 v 0.36 h 0.12 v 0.24 h 0.12 v 0.12 h 0.12 v 0.12 h 0.12 0.12 v 0.12 h 0.12 0.12 0.12 0.12 0.12 v -0.12 h 0.12 0.12 v -0.12 h 0.12 v -0.12 h 0.12 v -0.24 h 0.12 v -0.24 l 0.12,-2.4 v -0.12 l 0.12,-0.12 v -1.32 l 0.12,-0.24 v -0.96 l 0.12,-0.24 v -0.84 l 0.12,-0.24 v -0.72 l 0.12,-0.24 v -0.48 l 0.12,-0.24 v -0.36 l 0.12,-0.24 v -0.36 l 0.12,-0.12 v -0.48 l 0.12,-0.12 v -0.24 l 0.12,-0.24 v -0.36 l 0.12,-0.24 v -0.24 l 0.12,-0.12 v -0.24 l 0.12,-0.24 v -0.36 l 0.12,-0.12 v -0.12 l 3.48,12.36 4.08,3.6 -3.72,1.68 v 0 l -0.12,0.12 h -0.12 v 0.12 h -0.12 v 0.12 h -0.12 v 0.12 h -0.12 v 0.36 h -0.12 v 0.72 h 0.12 l 1.08,4.44 h -5.88 v -9.12 l -0.12,-0.12 v -0.12 l -0.12,-0.12 v 0 l -0.12,-0.12 v 0 l -0.12,-0.12 v 0 l -0.12,-0.12 h -0.12 -0.12 v -0.12 h -0.12 -0.12 -0.12 -0.12 -0.12 v 0.12 h -0.12 -0.12 v 0 l -0.12,0.12 h -0.12 v 0.12 l -0.12,0.12 v 0 l -0.12,0.12 v 0.12 l -0.12,0.12 v 11.64 h 0.12 v 0.36 l 0.12,0.12 v 0 l 0.12,0.12 v 0.12 l 0.12,0.12 v 0.12 h 0.12 l 0.12,0.12 v 0 l 0.12,0.12 h 0.12 v 0.12 h 0.12 l 0.12,0.12 h 0.12 l 0.12,0.12 h 0.36 7.8 0.24 l 0.12,-0.12 h 0.24 v -0.12 h 0.12 l 0.12,-0.12 v 0 l 0.12,-0.12 h 0.12 v -0.12 h 0.12 v -0.12 l 0.12,-0.12 v 0 l 0.12,-0.12 v -0.12 h 0.12 v -0.24 l 0.12,-0.12 v -1.2 h -0.12 l -1.32,-5.52 3.6,-1.8 2.4,2.16 2.4,5.88 v 0.24 l -0.12,0.24 v 0.6 h 0.12 0.12 l 0.12,-0.12 h 0.12 0.24 v -0.12 h 0.24 v -0.12 h 0.12 v 0 l 0.12,-0.12 v 0 l 0.12,-0.12 v -0.12 h 0.12 v -0.12 l 0.12,-0.12 v -0.36 l 0.12,-0.12 v -0.36 l -0.12,-0.12 v -0.72 l -0.12,-0.24 v -0.48 l -0.12,-0.12 v -0.24 l -0.12,-0.24 v -0.36 l -0.12,-0.12 v -0.24 l -0.12,-0.12 v -0.12 l -0.12,-0.24 v -0.12 l -0.12,-0.12 v -0.12 l -0.12,-0.12 v -0.36 l -0.12,-0.12 v -0.12 l -0.12,-0.24 v -0.36 l -0.12,-0.24 v -1.44 l 0.12,-0.12 v -0.6 l 0.12,-0.24 v -0.36 l 0.12,-0.24 v -0.24 l 0.12,-0.24 v -0.12 l 0.12,-0.24 0.12,-0.24 v -0.24 l 0.12,-0.24 0.12,-0.24 v -0.24 l 0.12,-0.24 0.12,-0.12 v -0.24 l 0.12,-0.24 v -0.48 l 0.12,-0.24 v -2.28 l -0.12,-0.12 v -0.48 l -0.12,-0.12 v -0.36 l -0.12,-0.24 -0.12,-0.24 v -0.12 l -0.12,-0.24 v -0.12 l -0.12,-0.24 -0.12,-0.12 -0.12,-0.24 v -0.24 l -0.12,-0.24 -0.12,-0.12 v -0.24 l -0.12,-0.24 v -0.36 l -0.12,-0.24 v -0.84 l -0.12,-0.12 v -0.36 l 0.12,-0.24 v -0.84 l 0.12,-0.12 v -0.48 l 0.12,-0.12 v -0.24 l 0.12,-0.24 0.12,-0.12 v -0.24 l 0.12,-0.24 0.12,-0.12 v -0.24 l 0.12,-0.12 v -0.12 l 0.12,-0.12 v -0.12 l 0.12,-0.12 v -0.36 l 0.12,-0.12 v -0.48 l 0.12,-0.12 v -1.2 l 0.12,-0.12 v -0.12 l -0.12,-0.12 v -0.36 l -0.12,-0.12 v -0.12 h -0.12 v -0.12 l -0.12,-0.12 h -0.12 v -0.12 h -0.12 -0.12 v -0.12 h -0.12 -0.24 v -0.12 h -0.24 -0.12 v 0 l -0.12,0.12 v 0.24"
         style="fill:#0e1313;fill-opacity:1;fill-rule:evenodd;stroke:none;stroke-width:0.12"
         id="path60290" /><path
         d="m 331.48805,320.5219 36.12,36 3.36,-3.36 -36,-36 -3.48,3.36"
         style="fill:#a1262d;fill-opacity:1;fill-rule:nonzero;stroke:none;stroke-width:0.12"
         id="path60292" /></g></g></svg>
