<?xml version="1.0" encoding="UTF-8" standalone="no"?>
<svg
   xmlns:dc="http://purl.org/dc/elements/1.1/"
   xmlns:cc="http://creativecommons.org/ns#"
   xmlns:rdf="http://www.w3.org/1999/02/22-rdf-syntax-ns#"
   xmlns:svg="http://www.w3.org/2000/svg"
   xmlns="http://www.w3.org/2000/svg"
   xmlns:sodipodi="http://sodipodi.sourceforge.net/DTD/sodipodi-0.dtd"
   xmlns:inkscape="http://www.inkscape.org/namespaces/inkscape"
   version="1.1"
   id="svg47911"
   xml:space="preserve"
   width="75.35968"
   height="75.360001"
   viewBox="0 0 75.359677 75.36"
   sodipodi:docname="ISO 7010 WSP018.svg"
   inkscape:version="1.0.1 (3bc2e813f5, 2020-09-07)"><metadata
     id="metadata47917"><rdf:RDF><cc:Work
         rdf:about=""><dc:format>image/svg+xml</dc:format><dc:type
           rdf:resource="http://purl.org/dc/dcmitype/StillImage" /><dc:title></dc:title></cc:Work></rdf:RDF></metadata><defs
     id="defs47915" /><sodipodi:namedview
     pagecolor="#ffffff"
     bordercolor="#666666"
     borderopacity="1"
     objecttolerance="10"
     gridtolerance="10"
     guidetolerance="10"
     inkscape:pageopacity="0"
     inkscape:pageshadow="2"
     inkscape:window-width="1920"
     inkscape:window-height="1017"
     id="namedview47913"
     showgrid="false"
     fit-margin-top="0"
     fit-margin-left="0"
     fit-margin-right="0"
     fit-margin-bottom="0"
     inkscape:zoom="2.6204546"
     inkscape:cx="-39.833645"
     inkscape:cy="73.448303"
     inkscape:window-x="-8"
     inkscape:window-y="-8"
     inkscape:window-maximized="1"
     inkscape:current-layer="g47919" /><g
     id="g47919"
     inkscape:groupmode="layer"
     inkscape:label="4457193"
     transform="matrix(0,1.3333333,1.3333333,0,-840.25431,-284.72894)"><g
       id="g59912"><path
         d="m 270.06671,658.39075 -0.12,1.44 -0.12,1.44 -0.12,1.44 -0.24,1.32 -0.36,1.44 -0.36,1.32 -0.48,1.32 -0.48,1.32 -0.6,1.2 -0.6,1.2 -0.72,1.2 -0.72,1.2 -0.72,1.08 -0.84,1.08 -0.96,0.96 -0.96,0.96 -0.96,0.96 -0.96,0.95976 -1.08,0.84 -1.08,0.72 -1.2,0.72 -1.2,0.72 -1.2,0.6 -1.2,0.6 -1.32,0.48 -1.32,0.48 -1.32,0.36 -1.44,0.36 -1.32,0.24 -1.44,0.12 -1.44,0.12 -1.44,0.12 -1.44,-0.12 -1.44,-0.12 -1.44,-0.12 -1.32,-0.24 -1.44,-0.36 -1.32,-0.36 -1.32,-0.48 -1.2,-0.48 -1.32,-0.6 -1.2,-0.6 -1.2,-0.72 -1.08,-0.72 -1.2,-0.72 -1.08,-0.84 -0.96,-0.95976 -0.96,-0.96 -0.96,-0.96 -0.96,-0.96 -0.84,-1.08 -0.72,-1.08 -0.72,-1.2 -0.72,-1.2 -0.6,-1.2 -0.6,-1.2 -0.48,-1.32 -0.48,-1.32 -0.36,-1.32 -0.36,-1.44 -0.24,-1.32 -0.12,-1.44 -0.12,-1.44 v -2.88 l 0.12,-1.44 0.12,-1.44 0.24,-1.32 0.36,-1.44 0.36,-1.32 0.48,-1.32 0.48,-1.2 0.6,-1.32 0.6,-1.2 0.72,-1.2 0.72,-1.08 0.72,-1.2 0.84,-1.08 0.96,-0.96 0.96,-0.96 0.96,-0.96 0.96,-0.96 1.08,-0.84 1.2,-0.72 1.08,-0.72 1.2,-0.72 1.2,-0.6 1.32,-0.6 1.2,-0.48 1.32,-0.48 1.32,-0.36 1.44,-0.36 1.32,-0.24 1.44,-0.12 1.44,-0.12 h 2.88 l 1.44,0.12 1.44,0.12 1.32,0.24 1.44,0.36 1.32,0.36 1.32,0.48 1.32,0.48 1.2,0.6 1.2,0.6 1.2,0.72 1.2,0.72 1.08,0.72 1.08,0.84 0.96,0.96 0.96,0.96 0.96,0.96 0.96,0.96 0.84,1.08 0.72,1.2 0.72,1.08 0.72,1.2 0.6,1.2 0.6,1.32 0.48,1.2 0.48,1.32 0.36,1.32 0.36,1.44 0.24,1.32 0.12,1.44 0.12,1.44 0.12,1.44"
         style="fill:#a1262d;fill-opacity:1;fill-rule:evenodd;stroke:none;stroke-width:0.12"
         id="path58268" /><path
         d="m 264.30671,658.39075 v 1.2 l -0.12,1.08 -0.12,1.2 -0.12,1.08 -0.36,1.08 -0.24,1.08 -0.36,1.08 -0.36,0.96 -0.48,1.08 -0.48,0.96 -0.6,0.96 -0.6,0.84 -0.6,0.96 -0.72,0.84 -0.72,0.84 -0.72,0.72 -0.72,0.72 -0.84,0.72 -0.84,0.72 -0.96,0.6 -0.84,0.6 -0.96,0.6 -0.96,0.48 -1.08,0.48 -0.96,0.35976 -1.08,0.36 -1.08,0.24 -1.08,0.36 -1.08,0.12 -1.2,0.12 -1.08,0.12 h -2.4 l -1.08,-0.12 -1.2,-0.12 -1.08,-0.12 -1.08,-0.36 -1.08,-0.24 -1.08,-0.36 -0.96,-0.35976 -1.08,-0.48 -0.96,-0.48 -0.96,-0.6 -0.84,-0.6 -0.96,-0.6 -0.84,-0.72 -0.84,-0.72 -0.72,-0.72 -0.72,-0.72 -0.72,-0.84 -0.72,-0.84 -0.6,-0.96 -0.6,-0.84 -0.6,-0.96 -0.48,-0.96 -0.48,-1.08 -0.36,-0.96 -0.36,-1.08 -0.24,-1.08 -0.36,-1.08 -0.12,-1.08 -0.12,-1.2 -0.12,-1.08 v -2.4 l 0.12,-1.08 0.12,-1.2 0.12,-1.08 0.36,-1.08 0.24,-1.08 0.36,-1.08 0.36,-0.96 0.48,-1.08 0.48,-0.96 0.6,-0.96 0.6,-0.84 0.6,-0.96 0.72,-0.84 0.72,-0.84 0.72,-0.72 0.72,-0.72 0.84,-0.72 0.84,-0.72 0.96,-0.6 0.84,-0.6 0.96,-0.6 0.96,-0.48 1.08,-0.48 0.96,-0.36 1.08,-0.36 1.08,-0.24 1.08,-0.36 1.08,-0.12 1.2,-0.12 1.08,-0.12 h 2.4 l 1.08,0.12 1.2,0.12 1.08,0.12 1.08,0.36 1.08,0.24 1.08,0.36 0.96,0.36 1.08,0.48 0.96,0.48 0.96,0.6 0.84,0.6 0.96,0.6 0.84,0.72 0.84,0.72 0.72,0.72 0.72,0.72 0.72,0.84 0.72,0.84 0.6,0.96 0.6,0.84 0.6,0.96 0.48,0.96 0.48,1.08 0.36,0.96 0.36,1.08 0.24,1.08 0.36,1.08 0.12,1.08 0.12,1.2 0.12,1.08 v 1.2"
         style="fill:#ffffff;fill-opacity:1;fill-rule:evenodd;stroke:none;stroke-width:0.12"
         id="path58270" /><path
         d="m 253.26671,673.99075 -0.12,-0.12 v -0.36 l -0.12,-0.12 v -0.84 l 0.12,-0.12 v -0.24 l 0.12,-0.24 v -0.12 l 0.12,-0.24 v -0.24 l 0.12,-0.24 0.12,-0.12 v -0.36 l 0.12,-0.12 v -0.48 l 0.12,-0.12 v -0.72 l -0.12,-0.12 v -0.48 l -0.12,-0.12 v -0.36 l -0.12,-0.24 -0.12,-0.24 v -0.12 l -0.12,-0.24 v -0.24 l -0.12,-0.12 v -0.36 l -0.12,-0.12 v -0.72 l 0.12,-0.12 v -0.24 l 0.12,-0.24 v -0.24 l 0.12,-0.12 v -0.24 l 0.12,-0.24 0.12,-0.24 v -0.36 l 0.12,-0.12 v -0.48 h 0.12 v -0.84 l -0.12,-0.12 v -0.36 l -0.12,-0.12 v -0.36 l -0.12,-0.24 -0.12,-0.24 v -0.24 l -0.12,-0.12 v -0.24 l -0.12,-0.24 v -0.24 l -0.12,-0.12 v -0.72 l 0.12,-0.12 v -0.36 l 0.12,-0.12 v -0.24 l 0.12,-0.24 v -0.12 l 0.12,-0.24 0.12,-0.24 v -0.36 l 0.12,-0.12 v -0.48 l 0.12,-0.12 v -0.72 l -0.12,-0.12 v -0.48 l -0.12,-0.12 v -0.36 l -0.12,-0.12 -0.12,-0.24 v -0.24 l -0.12,-0.24 v -0.12 l -0.12,-0.24 v -0.24 l -0.12,-0.12 v -0.84 l 0.12,-0.12 v -0.24 l 0.12,-0.24 v -0.12 l 0.12,-0.24 v -0.24 l 0.12,-0.24 0.12,-0.24 v -0.24 l 0.12,-0.12 v -0.48 l 0.12,-0.12 v -0.72 l -0.12,-0.12 v -0.48 l -0.12,-0.12 v -0.36 l -0.12,-0.24 -0.12,-0.24 v -0.12 l -0.12,-0.24 v -0.24 l -0.12,-0.12 v -0.24 l -0.12,-0.12 v -0.84 l 0.12,-0.12 v -0.36 l 0.12,-0.24 v -0.24 l 0.12,-0.12 0.12,-0.24 v -0.24 h 0.12 v -0.36 l 0.12,-0.12 v -0.84 h -0.12 v -0.12 l -0.12,-0.12 h -0.12 v -0.12 h -0.12 -0.12 -0.12 -0.12 v 0.36 l 0.12,0.12 v 0.24 l -0.12,0.12 v 0.36 l -0.12,0.12 v 0.36 l -0.12,0.12 -0.12,0.24 v 0.24 l -0.12,0.24 v 0.24 l -0.12,0.12 v 1.56 l 0.12,0.12 v 0.36 l 0.12,0.12 v 0.24 l 0.12,0.12 0.12,0.24 v 0.24 l 0.12,0.12 v 0.36 l 0.12,0.12 v 1.2 l -0.12,0.12 v 0.24 l -0.12,0.24 v 0.12 l -0.12,0.24 -0.12,0.24 v 0.24 l -0.12,0.12 v 0.36 l -0.12,0.12 v 1.56 l 0.12,0.12 v 0.36 l 0.12,0.12 v 0.24 l 0.12,0.24 0.12,0.24 v 0.12 l 0.12,0.24 v 0.24 l 0.12,0.12 v 1.2 l -0.12,0.12 v 0.24 l -0.12,0.24 v 0.24 l -0.12,0.12 -0.12,0.24 v 0.24 l -0.12,0.12 v 0.36 l -0.12,0.12 v 1.68 l 0.12,0.12 v 0.36 h 0.12 v 0.24 l 0.12,0.24 0.12,0.24 v 0.24 l 0.12,0.12 v 0.36 l 0.12,0.12 v 1.08 l -0.12,0.12 v 0.36 l -0.12,0.12 v 0.24 l -0.12,0.24 -0.12,0.24 v 0.12 l -0.12,0.12 v 0.36 l -0.12,0.12 v 1.68 l 0.12,0.12 v 0.36 l 0.12,0.12 v 0.24 l 0.12,0.24 0.12,0.12 v 0.24 l 0.12,0.24 v 0.24 l 0.12,0.12 v 1.2 l -0.12,0.12 v 0.24 l -0.12,0.24 v 0.12 l -0.12,0.24 -0.12,0.24 v 0.24 l -0.12,0.12 v 0.36 l -0.12,0.12 v 1.68 l 0.12,0.12 v 0.36 l 0.12,0.12 v 0.12 l 0.12,0.12 v 0 l 0.12,0.12 h 0.12 v 0.12 h 0.12 0.12 v -0.12 h 0.12 v -0.84"
         style="fill:#0e1313;fill-opacity:1;fill-rule:nonzero;stroke:none;stroke-width:0.12"
         id="path58272" /><path
         d="m 237.54671,648.55075 v 0.36 h 0.12 v 0.24 h 0.12 v 0.12 h 0.12 v 0.12 h 0.12 0.12 v 0.12 h 0.12 0.12 0.12 0.12 0.12 0.12 0.12 v -0.12 h 0.12 v 0 l 0.12,-0.12 v 0 l 0.12,-0.12 v 0 l 0.12,-0.12 v -0.24 h 0.12 v -0.48 l -0.12,-0.12 v -0.24 h -0.12 v -0.12 h -0.12 v -0.12 h -0.12 v 0 l -0.12,-0.12 h -0.12 -0.12 v -0.12 h -0.12 -0.12 -0.12 v 0 l -0.12,0.12 h -0.12 -0.12 v 0.12 h -0.12 v 0.12 h -0.12 v 0.12 h -0.12 v 0.12 l -0.12,0.12 v 0.36"
         style="fill:#0e1313;fill-opacity:1;fill-rule:nonzero;stroke:none;stroke-width:0.12"
         id="path58274" /><path
         d="m 250.38671,646.39075 h 0.12 v -0.6 l 0.12,-0.12 -0.12,-0.12 v -0.6 l -0.12,-0.24 v -0.12 l -0.12,-0.12 v -0.24 l -0.12,-0.12 v -0.24 l -0.12,-0.12 v -0.12 l -0.12,-0.12 -0.12,-0.24 -0.12,-0.24 -0.12,-0.24 -0.12,-0.24 -0.12,-0.24 -0.24,-0.24 -0.12,-0.24 -0.12,-0.24 -0.12,-0.24 -0.12,-0.12 -0.12,-0.12 v -0.12 l -0.12,-0.12 -0.12,-0.12 -0.12,-0.12 -0.12,-0.12 -0.12,-0.12 -0.12,-0.12 -0.12,-0.24 -0.12,-0.12 -0.12,-0.12 -0.12,-0.12 -0.12,-0.12 -0.12,-0.12 -0.12,-0.12 -0.12,-0.12 h -0.12 l -0.12,-0.12 -0.12,-0.12 -0.12,-0.12 v -0.12 l -0.12,-0.12 h -0.36 l -0.12,-0.12 h -0.6 l -0.12,-0.12 v 0.12 h -0.12 v 0.12 h 0.12 v 0.12 l 0.24,0.12 0.12,0.24 0.24,0.12 0.12,0.12 0.24,0.24 0.12,0.12 0.24,0.24 0.12,0.12 0.24,0.24 0.24,0.24 0.24,0.24 0.24,0.24 0.12,0.12 0.12,0.12 v 0.12 l 0.12,0.12 0.12,0.12 0.12,0.12 0.12,0.12 v 0.12 l 0.24,0.24 0.12,0.24 0.12,0.24 0.12,0.24 0.12,0.24 0.12,0.24 0.12,0.24 0.12,0.24 0.12,0.24 0.12,0.24 0.12,0.24 v 0.24 l 0.12,0.24 0.12,0.24 0.12,0.24 v 0.24 l 0.12,0.12 v 0.24 l 0.12,0.36 0.12,0.12 h 0.12 v -0.24"
         style="fill:#0e1313;fill-opacity:1;fill-rule:nonzero;stroke:none;stroke-width:0.12"
         id="path58276" /><path
         d="m 250.74671,642.91075 v -0.96 l -0.12,-0.12 v -0.24 l -0.12,-0.12 v -0.12 l -0.12,-0.12 -0.12,-0.12 -0.12,-0.12 v -0.12 l -0.12,-0.12 v 0 l -0.12,-0.12 v -0.12 l -0.12,-0.12 -0.12,-0.12 v 0 l -0.12,-0.12 -0.12,-0.12 v -0.12 l -0.12,-0.12 v -0.12 h -0.12 v 0 l -0.12,-0.12 v 0 l -0.12,-0.12 h -0.24 l -0.12,-0.12 h -0.12 l -0.12,-0.12 h -0.24 l -0.12,-0.12 h -0.24 -0.12 v 0.12 h 0.12 v 0.12 h 0.12 v 0.12 l 0.24,0.12 0.12,0.12 0.12,0.24 0.12,0.12 0.12,0.12 0.24,0.24 0.12,0.12 v 0.12 l 0.24,0.24 0.12,0.24 0.12,0.12 0.12,0.24 0.12,0.24 0.12,0.24 0.12,0.24 0.24,0.24 v 0.12 l 0.12,0.12 v 0.12 h 0.12 v 0.24 h 0.12 0.12 0.12 v -0.12"
         style="fill:#0e1313;fill-opacity:1;fill-rule:nonzero;stroke:none;stroke-width:0.12"
         id="path58278" /><path
         d="m 245.70671,640.15075 -0.12,-0.12 -0.24,-0.12 -0.12,-0.24 -0.24,-0.12 -0.12,-0.24 -0.24,-0.12 -0.12,-0.12 -0.24,-0.12 -0.12,-0.12 -0.12,-0.12 -0.12,-0.12 h -0.12 l -0.12,-0.12 -0.12,-0.12 -0.12,-0.12 h -0.36 l -0.12,-0.12 h -0.72 v 0.12 h -0.12 v 0.12 h 0.12 v 0.12 h 0.12 v 0 l 0.12,0.12 h 0.12 l 0.12,0.12 0.12,0.12 0.24,0.12 0.12,0.12 0.12,0.12 0.24,0.24 0.24,0.12 h 0.12 v 0.12 l 0.12,0.12 0.12,0.12 0.12,0.12 h 0.12 l 0.12,0.12 0.12,0.12 h 0.12 v 0.12 h 0.12 l 0.12,0.12 v 0 l 0.12,0.12 h 0.12 v 0.12 l 0.12,0.12 h 0.12 v 0.12 h 0.12 v 0.12 h 0.12 l 0.12,0.12 v 0 l 0.12,0.12 0.12,0.12 0.12,0.12 0.12,0.12 0.12,0.12 0.12,0.12 0.12,0.12 0.12,-0.12 v -0.6 h 0.12 v -0.12 l -0.12,-0.12 -0.12,-0.12 -0.12,-0.12 -0.24,-0.12 -0.12,-0.12 -0.12,-0.12 -0.12,-0.12 -0.24,-0.24"
         style="fill:#0e1313;fill-opacity:1;fill-rule:nonzero;stroke:none;stroke-width:0.12"
         id="path58280" /><path
         d="m 229.86671,658.03075 -0.24,0.48 -0.12,0.48 -0.12,0.6 -0.12,0.48 v 1.56 l 0.12,0.48 0.12,0.48 0.24,0.48 0.12,0.6 0.24,0.48 0.36,0.36 0.24,0.48 0.36,0.48 0.36,0.36 0.36,0.48 0.36,0.36 0.48,0.36 0.48,0.24 0.48,0.36 0.48,0.24 0.48,0.24 0.48,0.12 0.6,0.24 0.6,0.12 h 0.48 l 0.6,0.12 h 0.6 l 0.6,-0.12 0.6,-0.12 0.6,-0.12 v 0 l 0.12,-0.12 h 0.12 v 0 l 0.12,-0.12 v -0.12 h 0.12 v -0.12 l 2.04,-12.96 h 0.12 0.12 v -0.48 l -0.96,-1.32 v -0.24 l -0.12,-1.08 2.28,-3.84 0.6,-0.12 0.96,2.4 v 0.12 h 0.12 v 0.12 h 0.12 v 0 l 0.12,0.12 h 0.12 0.12 0.12 0.12 v -0.12 l 1.92,-0.84 0.12,0.36 0.12,0.36 v 0.36 l 0.12,0.36 0.12,0.24 0.12,0.36 v 0.36 l 0.12,0.12 v 0.12 l 0.12,0.12 v 0.24 l 0.12,0.12 v 0.12 l 0.12,0.12 v 0.12 l 0.12,0.24 v 0.12 l 0.12,0.12 0.12,0.12 v 0.12 l 0.12,0.24 0.12,0.12 0.12,0.12 v 0.12 l 0.12,0.24 v -0.12 h 0.12 v -0.12 l 0.12,-0.12 v -0.24 h 0.12 v -0.48 l 0.12,-0.24 v -2.76 l -0.12,-0.36 v -0.72 l -0.12,-0.36 v -0.6 l -0.12,-0.36 -0.12,-0.36 v -0.24 l -0.12,-0.36 v -0.36 l -0.12,-0.36 -0.12,-0.24 -0.12,-0.36 -0.12,-0.36 -0.12,-0.36 -0.12,-0.36 -0.12,-0.24 -0.12,-0.36 -0.12,-0.36 -0.24,-0.24 -0.12,-0.36 -0.24,-0.36 -0.12,-0.36 -0.24,-0.24 -0.12,-0.36 -0.24,-0.36 v 0.12 l -0.12,0.12 v 0.36 l -0.12,0.12 v 0.6 l -0.12,0.12 v 0.84 l 0.12,0.12 v 0.72 l 0.12,0.36 v 0.48 l 0.12,0.36 -2.04,0.96 -0.48,-1.2 -0.12,-0.12 v -0.12 h -0.12 v -0.12 h -0.12 -0.12 v -0.12 h -0.12 -0.12 v 0 l -0.12,0.12 h -0.12 v 0 l -3.96,1.44 h -0.12 v 0.12 h -0.12 v 0.24 h -0.12 v 0.12 l 0.6,4.08 -0.6,-0.72 v -0.12 h -0.12 -0.12 -0.12 v 0 l -0.12,0.12 v 0.12 h -0.12 v 0 l -8.64,6.84 h -0.12 -0.12 v 0.12 h -0.12 v 0.12 l -0.12,0.12 v 0.12"
         style="fill:#0e1313;fill-opacity:1;fill-rule:nonzero;stroke:none;stroke-width:0.12"
         id="path58282" /><path
         d="m 252.18671,675.07075 -0.12,-0.24 v -0.24 l -0.12,-0.12 v -0.12 l -0.12,-0.24 v -0.24 l -0.12,-0.12 v -0.48 l -0.12,-0.12 v -0.24 l 0.12,-0.12 v -0.6 l 0.12,-0.24 v -0.12 l 0.12,-0.24 0.12,-0.24 v -0.24 l 0.12,-0.12 v -0.24 l 0.12,-0.12 v -0.36 l 0.12,-0.12 v -1.2 l -0.12,-0.12 v -0.36 l -0.12,-0.12 v -0.24 l -0.12,-0.24 v -0.24 l -0.12,-0.12 -0.12,-0.24 v -0.24 l -0.12,-0.12 v -0.6 l -0.12,-0.12 v -0.24 l 0.12,-0.12 v -0.48 l 0.12,-0.24 v -0.24 l 0.12,-0.12 0.12,-0.24 v -0.24 l 0.12,-0.24 v -0.24 l 0.12,-0.12 v -0.36 l 0.12,-0.12 v -1.2 l -0.12,-0.12 v -0.24 l -0.12,-0.12 v -0.24 l -0.12,-0.24 v -0.24 l -0.12,-0.24 -0.12,-0.12 v -0.24 l -0.12,-0.24 v -0.6 h -0.12 v -0.24 l 0.12,-0.12 v -0.6 l 0.12,-0.12 v -0.24 l 0.12,-0.24 0.12,-0.12 v -0.24 l 0.12,-0.24 v -0.24 l 0.12,-0.12 v -0.36 l 0.12,-0.12 v -1.2 l -0.12,-0.12 v -0.36 l -0.12,-0.12 v -0.24 l -0.12,-0.12 v -0.24 l -0.12,-0.24 -0.12,-0.24 v -0.12 l -0.12,-0.24 v -0.6 l -0.12,-0.12 v -0.12 l 0.12,-0.12 v -0.6 l 0.12,-0.24 v -0.12 l 0.12,-0.24 0.12,-0.24 v -0.24 l 0.12,-0.24 v -0.12 l 0.12,-0.12 v -0.36 l 0.12,-0.12 v -1.2 l -0.12,-0.12 v -0.36 l -0.12,-0.12 v -0.24 l -0.12,-0.24 v -0.24 l -0.12,-0.12 -0.12,-0.24 v -0.24 l -0.12,-0.12 v -0.6 h -0.12 v -0.36 l 0.12,-0.12 v -0.48 l 0.12,-0.12 v -0.24 l 0.12,-0.24 v -0.12 l 0.12,-0.24 0.12,-0.24 v -0.12 l 0.12,-0.24 v -0.48 l 0.12,-0.12 v -0.48 h -0.12 v -0.36 h -0.12 v -0.12 h -0.12 v -0.12 h -0.12 -0.12 -0.12 -0.12 v 0.12 l -0.12,0.12 v 0.12 l 0.12,0.12 v 0.72 l -0.12,0.12 v 0.36 l -0.12,0.12 v 0.24 l -0.12,0.12 v 0.24 l -0.12,0.12 v 0.36 l -0.12,0.12 v 0.24 l -0.12,0.12 v 1.32 l 0.12,0.12 v 0.36 l 0.12,0.12 v 0.12 l 0.12,0.24 v 0.12 l 0.12,0.24 v 0.24 l 0.12,0.12 0.12,0.24 v 0.72 l 0.12,0.12 -0.12,0.12 v 0.6 l -0.12,0.24 v 0.24 l -0.12,0.12 -0.12,0.24 v 0.24 l -0.12,0.24 v 0.12 l -0.12,0.12 v 0.36 l -0.12,0.12 v 1.2 l 0.12,0.12 v 0.48 l 0.12,0.12 v 0.12 l 0.12,0.24 v 0.24 l 0.12,0.24 0.12,0.12 v 0.24 l 0.12,0.24 v 0.6 l 0.12,0.12 -0.12,0.12 v 0.72 l -0.12,0.12 v 0.24 l -0.12,0.24 -0.12,0.12 v 0.24 l -0.12,0.24 v 0.12 l -0.12,0.12 v 0.48 l -0.12,0.12 v 1.2 l 0.12,0.12 v 0.48 l 0.12,0.12 v 0 l 0.12,0.24 v 0.24 l 0.12,0.24 0.12,0.24 v 0.12 l 0.12,0.24 v 0.72 h 0.12 l -0.12,0.12 v 0.72 l -0.12,0.24 v 0.12 l -0.12,0.24 -0.12,0.24 v 0.24 l -0.12,0.12 v 0.12 l -0.12,0.12 v 0.48 l -0.12,0.12 v 1.2 l 0.12,0.12 v 0.48 l 0.12,0.12 v 0.12 l 0.12,0.24 v 0.24 l 0.12,0.12 0.12,0.24 v 0.24 l 0.12,0.12 v 0.72 l 0.12,0.12 -0.12,0.12 v 0.6 l -0.12,0.24 v 0.24 l -0.12,0.12 -0.12,0.24 v 0.24 l -0.12,0.24 v 0.12 l -0.12,0.12 v 0.48 l -0.12,0.12 v 1.32 l 0.12,0.12 v 0.36 l 0.12,0.12 v 0.36 l 0.12,0.12 0.12,0.24 0.12,0.36 v 0.12 h 0.12 v 0.12 h 0.12 v 0.12 h 0.12 0.12 0.12 0.12 0.12 v -0.48 l -0.12,-0.12 v -0.12"
         style="fill:#0e1313;fill-opacity:1;fill-rule:nonzero;stroke:none;stroke-width:0.12"
         id="path58284" /><path
         d="m 230.70671,659.71075 v -0.24 l -0.12,-0.12 v -1.32 l 7.44,-5.88 -7.32,7.56"
         style="fill:#ffffff;fill-opacity:1;fill-rule:nonzero;stroke:none;stroke-width:0.12"
         id="path58286" /><path
         d="m 233.10671,663.67075 h -0.24 l -0.12,-0.12 -0.12,-0.12 h -0.12 l -0.12,-0.12 v 0 l -0.12,-0.12 -0.12,-0.12 -0.12,-0.12 h -0.12 l -0.12,-0.12 v -0.12 l -0.12,-0.12 -0.12,-0.12 v -0.12 l -0.12,-0.12 -0.12,-0.12 v -0.12 l -0.12,-0.12 v -0.12 l -0.12,-0.12 v -0.24 l -0.12,-0.12 v -0.48 l -0.12,-0.12 v -0.36 l 8.64,-8.88 0.72,1.08 -7.08,11.16"
         style="fill:#ffffff;fill-opacity:1;fill-rule:nonzero;stroke:none;stroke-width:0.12"
         id="path58288" /><path
         d="m 237.42671,667.15075 h -0.6 l -0.12,-0.12 h -0.24 l -0.12,-0.12 h -0.12 l -0.12,-0.12 h -0.24 l -0.12,-0.12 -0.12,-0.12 -0.12,-0.12 -0.24,-0.12 -0.12,-0.12 h -0.12 l -0.12,-0.12 -0.12,-0.12 -0.12,-0.12 -0.12,-0.12 -0.12,-0.24 -0.12,-0.12 -0.12,-0.12 -0.12,-0.12 -0.12,-0.12 -0.12,-0.12 v -0.12 l -0.12,-0.12 v -0.12 l -0.12,-0.12 v -0.12 l -0.12,-0.12 6.96,-10.92 v 0.12 h 0.12 v 0.12 h 0.12 0.12 0.12 v 0 l 0.84,1.08 -4.32,12.6"
         style="fill:#ffffff;fill-opacity:1;fill-rule:nonzero;stroke:none;stroke-width:0.12"
         id="path58290" /><path
         d="m 239.70671,667.63075 h -0.12 v 0.12 h -0.48 -0.48 l -0.12,-0.12 h -0.24 v 0 l -0.12,-0.12 h -0.12 v -0.12 h -0.12 l 3.48,-10.2 -1.68,10.44"
         style="fill:#ffffff;fill-opacity:1;fill-rule:nonzero;stroke:none;stroke-width:0.12"
         id="path58292" /><path
         d="m 245.82671,648.07075 1.68,-0.84 0.12,0.12 v 0.48 l 0.12,0.24 v 0.24 l -1.56,0.72 -0.36,-0.96"
         style="fill:#ffffff;fill-opacity:1;fill-rule:nonzero;stroke:none;stroke-width:0.12"
         id="path58294" /><path
         d="m 242.94671,648.31075 -1.68,2.64 -0.24,-2.04 1.92,-0.6"
         style="fill:#ffffff;fill-opacity:1;fill-rule:nonzero;stroke:none;stroke-width:0.12"
         id="path58296" /><path
         d="m 222.06671,642.07075 36,36 3.36,-3.36 -36,-36 -3.36,3.36"
         style="fill:#a1262d;fill-opacity:1;fill-rule:nonzero;stroke:none;stroke-width:0.12"
         id="path58298" /></g></g></svg>
