<?xml version="1.0" encoding="UTF-8" standalone="no"?>
<!-- Creator: srpskicrv@mail.ru -->

<svg
   xmlns:dc="http://purl.org/dc/elements/1.1/"
   xmlns:cc="http://creativecommons.org/ns#"
   xmlns:rdf="http://www.w3.org/1999/02/22-rdf-syntax-ns#"
   xmlns:svg="http://www.w3.org/2000/svg"
   xmlns="http://www.w3.org/2000/svg"
   xmlns:sodipodi="http://sodipodi.sourceforge.net/DTD/sodipodi-0.dtd"
   xmlns:inkscape="http://www.inkscape.org/namespaces/inkscape"
   xml:space="preserve"
   width="160mm"
   height="160mm"
   version="1.1"
   style="shape-rendering:geometricPrecision; text-rendering:geometricPrecision; image-rendering:optimizeQuality; fill-rule:evenodd; clip-rule:evenodd"
   viewBox="0 0 16000 16000"
   id="svg4604"
   sodipodi:docname="P035.svg"
   inkscape:version="0.92.4 (5da689c313, 2019-01-14)"><metadata
   id="metadata4608"><rdf:RDF><cc:Work
       rdf:about=""><dc:format>image/svg+xml</dc:format><dc:type
         rdf:resource="http://purl.org/dc/dcmitype/StillImage" /><dc:title></dc:title></cc:Work></rdf:RDF></metadata><sodipodi:namedview
   pagecolor="#ffffff"
   bordercolor="#666666"
   borderopacity="1"
   objecttolerance="10"
   gridtolerance="10"
   guidetolerance="10"
   inkscape:pageopacity="0"
   inkscape:pageshadow="2"
   inkscape:window-width="1920"
   inkscape:window-height="1017"
   id="namedview4606"
   showgrid="false"
   inkscape:zoom="1.4142136"
   inkscape:cx="169.98661"
   inkscape:cy="397.06583"
   inkscape:window-x="1272"
   inkscape:window-y="-8"
   inkscape:window-maximized="1"
   inkscape:current-layer="svg4604" />
 <defs
   id="defs4590">
  <style
   type="text/css"
   id="style4588">
   <![CDATA[
    .str1 {stroke:#CC0000;stroke-width:52.92;stroke-miterlimit:22.9256}
    .str0 {stroke:black;stroke-width:26.46;stroke-linecap:square;stroke-miterlimit:22.9256}
    .fil1 {fill:black}
    .fil2 {fill:#CC0000;fill-rule:nonzero}
    .fil0 {fill:white;fill-rule:nonzero}
   ]]>
  </style>
 </defs>
 <g
   id="Ebene_x0020_1">
  <metadata
   id="crv_dataLayer0" />
  <path
   id="path6"
   class="fil0 str0"
   d="m 15581.16,8001 c 0,4187.56 -3394.6,7582.16 -7582.16,7582.16 -4187.56,0 -7582.16,-3394.6 -7582.16,-7582.16 0,-4187.56 3394.6,-7582.16 7582.16,-7582.16 4187.56,0 7582.16,3394.6 7582.16,7582.16 z"
   inkscape:connector-curvature="0"
   style="fill:#ffffff;fill-rule:nonzero;stroke:#000000;stroke-width:26.45999908;stroke-linecap:square;stroke-miterlimit:22.92560005" />
  <polygon
   class="fil1"
   points="10052.29,3313.99 10026.5,3460.41 10005.24,3607.98 9987.39,3756.72 9973.95,3905.4 9963.92,4054.14 9958.34,4203.92 9956.04,4352.66 9958.34,4434.3 9964.95,4514.79 9977.3,4594.19 9992.92,4673.58 9918.05,4660.12 9842,4651.2 9765.96,4645.62 9688.73,4644.5 9612.6,4647.77 9536.55,4654.56 9460.53,4665.7 9385.51,4681.38 9311.62,4701.52 9239.01,4725.02 9167.43,4751.78 9076.74,4792.07 8987.31,4836.82 8898.92,4885.94 8813.96,4937.4 8731.15,4994.48 8650.57,5053.73 8573.41,5117.43 8498.41,5183.45 8426.81,5253.83 8358.65,5326.55 8168.44,5541.22 7982.67,5759.25 7799.29,5979.51 7619.09,6201.98 7442.32,6427.83 7268.99,6654.83 7097.87,6886.24 7112.37,6673.79 7130.28,6461.41 7152.57,6250.09 7179.48,6038.74 7210.85,5828.53 7245.5,5618.39 7283.55,5409.27 7296.93,5330.99 7307.05,5250.5 7312.61,5171.1 7314.93,5090.59 7312.61,5011.21 7305.84,4930.7 7296.93,4851.32 7282.37,4771.92 7265.56,4693.73 7244.38,4616.56 7181.71,4400.69 7123.51,4183.78 7068.79,3965.83 7019.51,3746.69 6973.66,3526.35 6932.25,3304.99 6896.49,3083.61 6864,2861.06 6683.88,2903.58 6717.43,3127.17 6754.37,3350.84 6795.77,3573.34 6841.62,3794.71 6891.96,4014.97 6946.81,4234.18 7004.95,4452.21 7068.79,4669.03 7088.87,4746.2 7105.67,4823.36 7117.93,4901.64 7126.93,4979.92 7130.28,5059.3 7130.28,5138.69 7125.9,5218.09 7116.81,5296.35 7103.43,5374.63 7065.38,5583.66 7029.56,5793.89 6999.36,6005.22 6972.54,6216.56 6950.16,6427.83 6931.13,6640.27 6916.55,6852.71 6905.41,7065.17 6899.84,7277.62 6897.53,7491.2 7060.85,7254.06 7228.77,7019.3 7398.71,6786.71 7573.24,6557.54 7751.12,6330.58 7932.42,6105.79 8116.92,5884.43 8303.8,5665.29 8495.06,5449.5 8557.73,5382.45 8623.73,5317.55 8691.98,5256.06 8763.64,5197.95 8837.45,5143.16 8913.5,5091.7 8991.76,5043.62 9072.35,5000.06 9154.05,4958.66 9237.81,4921.78 9303.91,4896.06 9370.95,4874.79 9439.18,4858.08 9508.61,4844.62 9577.9,4834.51 9647.33,4829.01 9717.79,4827.83 9788.27,4830.06 9857.68,4836.82 9928.16,4847.97 9996.39,4862.53 10063.44,4881.49 10130.57,4903.87 10195.47,4930.7 10259.17,4960.87 10320.72,4994.48 10283.78,4929.58 10250.32,4862.53 10221.26,4793.18 10196.59,4721.6 10176.51,4650.09 10159.78,4576.27 10148.42,4502.46 10141.72,4427.59 10139.49,4352.66 10141.72,4193.89 10148.42,4034 10160.75,3875.21 10176.51,3716.43 10197.77,3558.84 10222.23,3401.1 10252.56,3244.62 10081.37,3167.46 "
   id="polygon4594"
   style="fill:#000000" />
  <path
   class="fil1"
   d="m 9768.13,12167.04 -2.17,-21.26 -6.77,-18.96 -10.11,-20.15 -13.38,-17.91 -17.91,-17.91 -21.26,-15.61 -24.59,-14.56 -26.76,-12.29 -29.23,-11.21 -31.29,-7.82 -33.61,-6.68 -33.44,-3.35 -34.79,-1.11 -33.46,1.11 -33.59,3.35 -33.52,6.68 -31.38,7.82 -29.05,11.21 -26.91,12.29 -24.61,14.56 -21.12,15.61 -18.05,17.91 -13.38,17.91 -10.12,20.15 -6.62,18.96 -2.29,21.26 2.29,20.15 6.62,20.06 10.12,19.02 13.38,19.05 18.05,16.71 21.12,16.82 24.61,13.44 26.91,13.38 29.05,10.03 31.38,9 33.52,5.58 33.59,3.35 33.46,1.1 34.79,-1.1 33.44,-3.35 33.61,-5.58 31.29,-9 29.23,-10.03 26.76,-13.38 24.59,-13.44 21.26,-16.82 17.91,-16.71 13.38,-19.05 10.11,-19.02 6.77,-20.06 z m -1027.99,168.89 -2.29,-21.35 -5.67,-18.94 -9.95,-20.14 -14.64,-17.91 -17.91,-17.85 -21.2,-15.68 -23.49,-14.58 -27.94,-12.26 -29.15,-11.15 -31.22,-7.88 -32.47,-6.62 -33.61,-3.41 -34.64,-1.12 -34.71,1.12 -33.52,3.41 -32.56,6.62 -31.31,7.88 -30.17,11.15 -26.76,12.26 -23.65,14.58 -21.11,15.68 -17.91,17.85 -14.56,17.91 -10.11,20.14 -5.59,18.94 -2.3,21.35 2.3,20.06 5.59,20.14 10.11,18.97 14.56,19.03 17.91,16.79 21.11,16.73 23.65,13.47 26.76,13.38 30.17,10.09 31.31,8.93 32.56,5.65 33.52,3.35 34.71,1.03 34.64,-1.03 33.61,-3.35 32.47,-5.65 31.22,-8.93 29.15,-10.09 27.94,-13.38 23.49,-13.47 21.2,-16.73 17.91,-16.79 14.64,-19.03 9.95,-18.97 5.67,-20.14 z m 1090.72,-773.83 -2.38,-21.2 -5.59,-19.02 -10.09,-20.06 -14.5,-17.94 -17.85,-17.91 -21.26,-15.67 -23.49,-14.5 -28.03,-12.26 -29.05,-11.24 -31.29,-7.79 -32.41,-6.77 -33.61,-3.26 -34.64,-1.12 -34.64,1.12 -33.59,3.26 -32.49,6.77 -31.38,7.79 -29.06,11.24 -28.02,12.26 -23.35,14.5 -21.32,15.67 -17.91,17.91 -14.5,17.94 -10.11,20.06 -5.59,19.02 -2.21,21.2 2.21,20.15 5.59,20.14 10.11,19.03 14.5,19.02 17.91,16.8 21.32,16.73 23.35,13.46 28.02,13.38 29.06,10.03 31.38,8.92 32.49,5.65 33.59,3.35 34.64,1.11 34.64,-1.11 33.61,-3.35 32.41,-5.65 31.29,-8.92 29.05,-10.03 28.03,-13.38 23.49,-13.46 21.26,-16.73 17.85,-16.8 14.5,-19.02 10.09,-19.03 5.59,-20.14 z m -915.21,105.11 -0.97,-20.09 -6.77,-20.14 -10.11,-20.14 -14.56,-17.83 -17.91,-17.91 -20.15,-15.62 -24.61,-14.58 -26.69,-12.32 -30.24,-11.15 -31.46,-7.82 -32.41,-5.65 -33.44,-4.38 -34.79,-1.2 -33.52,1.2 -34.73,4.38 -32.47,5.65 -31.31,7.82 -28.97,11.15 -26.91,12.32 -24.61,14.58 -21.35,15.62 -17.91,17.91 -14.49,17.83 -10.1,20.14 -5.58,20.14 -2.09,20.09 2.09,20.22 5.58,20 10.1,19.09 14.49,18.97 17.91,17.91 21.35,15.67 24.61,14.59 26.91,12.26 28.97,10.03 31.31,9 32.47,5.58 34.73,4.45 33.52,1.11 34.79,-1.11 33.44,-4.45 32.41,-5.58 31.46,-9 30.24,-10.03 26.69,-12.26 24.61,-14.59 20.15,-15.67 17.91,-17.91 14.56,-18.97 10.11,-19.09 6.77,-20 z m 993.4,-703.29 -2.23,-20.08 -6.77,-20.14 -9.94,-20.15 -14.5,-17.84 -16.88,-17.83 -21.26,-15.7 -24.67,-14.56 -26.85,-12.35 -30.17,-11.14 -31.23,-7.88 -32.55,-6.62 -33.53,-3.33 -34.64,-1.2 -33.59,1.2 -34.64,3.33 -32.43,6.62 -31.43,7.88 -29,11.14 -26.91,12.35 -24.59,14.56 -21.19,15.7 -17.92,17.83 -13.44,17.84 -11.17,20.15 -5.64,20.14 -2.15,20.08 2.15,20.15 5.64,20.14 11.17,18.95 13.44,19.02 17.92,17.94 21.19,15.67 24.59,14.5 26.91,12.35 29,10.03 31.43,9 32.43,5.56 34.64,4.38 33.59,1.2 34.64,-1.2 33.53,-4.38 32.55,-5.56 31.23,-9 30.17,-10.03 26.85,-12.35 24.67,-14.5 21.26,-15.67 16.88,-17.94 14.5,-19.02 9.94,-18.95 6.77,-20.14 z m -831.13,55.91 -2.3,-20.08 -5.58,-20.15 -10.03,-18.96 -14.59,-19.03 -17.91,-16.79 -21.26,-16.74 -23.47,-14.56 -27.96,-12.34 -29,-10.03 -31.43,-9 -32.5,-5.56 -33.52,-3.35 -34.49,-2.15 -34.79,2.15 -33.53,3.35 -32.4,5.56 -31.44,9 -30.18,10.03 -26.84,12.34 -23.5,14.56 -21.17,16.74 -18,16.79 -14.56,19.03 -10.03,18.96 -6.7,20.15 -1.18,20.08 1.18,20.14 6.7,20.15 10.03,20.14 14.56,17.91 18,17.85 21.17,15.59 23.5,14.65 26.84,12.26 30.18,11.17 31.44,7.88 32.4,6.68 33.53,3.35 34.79,1.11 34.49,-1.11 33.52,-3.35 32.5,-6.68 31.43,-7.88 29,-11.17 27.96,-12.26 23.47,-14.65 21.26,-15.59 17.91,-17.85 14.59,-17.91 10.03,-20.14 5.58,-20.15 z m -816.73,63.76 -1.03,-20.15 -6.76,-20.06 -10.12,-20.22 -14.49,-17.83 -17.77,-17.93 -21.32,-15.6 -23.58,-14.49 -26.76,-12.35 -30.24,-11.23 -31.37,-7.8 -32.41,-6.7 -33.52,-3.33 -34.73,-1.2 -34.7,1.2 -33.47,3.33 -32.4,6.7 -31.44,7.8 -29.06,11.23 -26.84,12.35 -24.53,14.49 -21.26,15.6 -17.91,17.93 -14.65,17.83 -10.05,20.22 -5.56,20.06 -2.3,20.15 2.3,20.08 5.56,20.21 10.05,18.96 14.65,19.03 17.91,16.73 21.26,16.79 24.53,14.59 26.84,12.26 29.06,10.09 31.44,8.94 32.4,5.56 33.47,3.35 34.7,2.23 34.73,-2.23 33.52,-3.35 32.41,-5.56 31.37,-8.94 30.24,-10.09 26.76,-12.26 23.58,-14.59 21.32,-16.79 17.77,-16.73 14.49,-19.03 10.12,-18.96 6.76,-20.21 z m -288.55,682.1 -1.11,-20.2 -6.7,-20.08 -10.12,-19.03 -14.49,-18.95 -17.91,-17.93 -20.15,-15.59 -24.59,-14.65 -26.93,-12.28 -30.17,-10.03 -31.29,-8.91 -32.49,-5.65 -33.53,-4.47 -34.7,-1.11 -33.46,1.11 -34.79,4.47 -32.41,5.65 -31.29,8.91 -29.14,10.03 -26.76,12.28 -24.68,14.65 -21.26,15.59 -17.91,17.93 -14.5,18.95 -10.11,19.03 -5.56,20.08 -2.24,20.2 2.24,20.08 5.56,20.15 10.11,19.03 14.5,18.96 17.91,17.91 21.26,15.68 24.68,14.5 26.76,12.34 29.14,11.07 31.29,7.88 32.41,5.58 34.79,4.53 33.46,1.03 34.7,-1.03 33.53,-4.53 32.49,-5.58 31.29,-7.88 30.17,-11.07 26.93,-12.34 24.59,-14.5 20.15,-15.68 17.91,-17.91 14.49,-18.96 10.12,-19.03 6.7,-20.15 z m -250.6,712.22 -2.15,-20.23 -5.56,-20.06 -10.2,-19.03 -14.49,-18.96 -17.91,-16.79 -21.27,-16.8 -24.61,-14.5 -26.9,-12.34 -29.06,-10.03 -31.38,-8.92 -32.32,-5.67 -34.64,-3.32 -33.61,-2.24 -34.64,2.24 -33.67,3.32 -32.41,5.67 -31.38,8.92 -30.09,10.03 -26.9,12.34 -24.61,14.5 -20.15,16.8 -17.91,16.79 -14.5,18.96 -10.11,19.03 -6.62,20.06 -1.18,20.23 1.18,20.06 6.62,20.14 10.11,20.15 14.5,17.85 17.91,17.91 20.15,15.69 24.61,14.5 26.9,12.33 30.09,11.15 31.38,7.81 32.41,6.77 33.67,3.35 34.64,1.11 33.61,-1.11 34.64,-3.35 32.32,-6.77 31.38,-7.81 29.06,-11.15 26.9,-12.33 24.61,-14.5 21.27,-15.69 17.91,-17.91 14.49,-17.85 10.2,-20.15 5.56,-20.14 z m 577.23,-3366.59 -104.01,270.52 -107.4,269.46 -110.77,268.34 -115.22,267.25 -118.48,265 -121.98,262.72 -126.37,261.73 -128.76,259.34 -133.13,258.25 -137.51,256.09 -139.89,254.9 -144.3,251.55 -54.85,90.61 -59.34,88.31 -63.69,86.16 -67.05,82.66 -70.55,79.38 -74.93,77.16 -77.23,72.7 -28.99,23.43 -31.44,21.24 -33.46,16.82 -34.79,13.44 -35.67,11.15 -37.02,6.7 86.16,20.14 86.22,16.79 88.31,11.09 87.28,5.73 89.42,1.03 87.26,-3.35 201.38,-15.68 11.29,19.03 15.53,17.85 19.05,15.68 22.36,15.67 24.61,13.38 28.11,11.24 28.97,10.03 31.31,6.76 32.47,5.5 33.61,3.43 h 33.44 l 33.61,-1.11 32.41,-4.47 31.44,-6.76 30.11,-8.92 29.05,-10.11 25.82,-12.27 23.47,-14.49 20.08,-15.68 17.91,-17.85 13.47,-17.91 10.09,-19.03 5.58,-20.14 2.3,-19.05 259.51,-27.94 260.7,-28.99 11.14,19.02 15.62,17.85 19.03,16.73 22.44,14.56 24.52,13.38 28.03,12.35 29.08,8.91 31.29,7.89 33.52,5.58 33.53,2.15 33.58,1.18 33.61,-2.21 33.53,-4.56 31.37,-6.68 31.29,-7.81 27.94,-11.15 25.73,-13.44 23.5,-14.5 20.14,-15.7 17.91,-17.91 12.35,-17.83 10.03,-19.04 5.56,-20.06 1.12,-20.23 -2.22,-20.06 314.37,-45.79 314.42,-49.29 17.77,17.91 21.26,15.68 24.61,13.38 26.91,12.29 29.05,11.21 30.26,7.81 32.41,5.57 33.52,4.53 33.53,1.11 34.72,-1.11 33.53,-3.42 32.47,-6.68 30.26,-7.81 30.11,-10.03 26.97,-12.35 23.49,-14.5 21.26,-15.68 17.77,-16.79 14.64,-17.85 11.15,-19.03 6.7,-20.06 2.3,-20.22 -1.12,-20.09 -5.65,-20.14 -9,-19.03 87.28,-34.64 86.16,-37.97 85.11,-41.41 35.67,-20.14 33.61,-22.31 31.29,-26.91 29.14,-29 25.73,-31.35 23.47,-33.53 21.27,-34.64 16.81,-38.05 13.3,-37.99 10.11,-39.11 6.76,-41.41 3.36,-40.29 v -41.32 l -14.5,-278.39 -7.88,-279.58 -3.27,-279.49 2.15,-102.9 6.68,-101.75 10.05,-102.89 14.56,-101.69 17.91,-100.58 22.46,-99.52 26.76,-99.54 30.18,-97.31 34.79,-97.22 37.99,-95.01 42.58,-93.96 45.79,-91.72 49.22,-89.43 -100.59,-52.55 -101.99,-48.03 -102.72,-44.81 -106.3,-41.26 -106.37,-36.96 -108.54,-32.41 -109.57,-29.14 -109.72,-24.59 -111.78,-20.08 -111.89,-16.8 -111.87,-11.14 -112.98,-7.88 -112.98,-3.35 -113.01,1.11 -112.9,4.53 -111.89,8.92 -106.2385,-25.2099 z"
   id="path4596"
   inkscape:connector-curvature="0"
   style="fill:#000000"
   sodipodi:nodetypes="cccccccccccccccccccccccccccccccccccccccccccccccccccccccccccccccccccccccccccccccccccccccccccccccccccccccccccccccccccccccccccccccccccccccccccccccccccccccccccccccccccccccccccccccccccccccccccccccccccccccccccccccccccccccccccccccccccccccccccccccccccccccccccccccccccccccccccccccccccccccccccccccccccccccccccccccccccccccccccccccccccccccccccccccccccccccccccccccccccccccccccccccccccccccccccccccccccccccccccccccccccccccccccccccccccccccccccccccccccccccccccccccccccccccccccccccccccccccccccccccccccccccccccccccccccccccccccccccccccccccccccccccccccccccccccccccccccccccccccccccccccccccccccccccccccccccccccccccccccccccccccccccccccccccccccccccccccccccccccccc" />
  <polygon
   class="fil1"
   points="11410.4,6008.48 11335.39,5988.34 11259.28,5971.63 11182.18,5959.28 11104.87,5951.48 11026.67,5947.02 10948.41,5947.02 10871.17,5952.6 10792.82,5961.51 10715.6,5973.86 10639.61,5991.77 10564.62,6012.95 10490.87,6038.68 10419.21,6067.73 10317.37,6114.72 10217.85,6165.04 10120.46,6218.8 10025.47,6276.85 9931.51,6338.4 9840.82,6402.1 9752.43,6470.35 9666.35,6541.84 9583.54,6615.59 9503.03,6692.82 9424.69,6773.33 9350.87,6856 9279.29,6942.14 9211.04,7029.27 9146.17,7120.99 9084.62,7213.83 9026.48,7308.84 8891.04,7543.67 8759.09,7781.84 8631.54,8022.24 8508.51,8263.76 8388.76,8507.43 8273.54,8753.48 8161.74,9000.57 8054.25,9251 7951.38,9501.52 7838.32,9776.57 7722.04,10048.26 7602.38,10319.81 7478.17,10589.27 7349.57,10856.59 7217.47,11121.58 7082.17,11385.48 6943.4,11647.15 6800.22,11906.41 6652.68,12164.81 6602.34,12248.65 6547.41,12330.28 6488.09,12409.74 6426.62,12485.64 6361.73,12559.46 6292.38,12630 6220.86,12696.97 6199.52,12713.85 6176.11,12727.16 6151.43,12737.26 6125.64,12742.84 6098.88,12744.99 6070.86,12743.87 6045.13,12738.37 6019.49,12729.38 5995.99,12717.11 5973.55,12701.52 5954.59,12683.59 5937.73,12662.26 5907.53,12613.04 5881.83,12562.81 5860.57,12509.2 5843.75,12455.53 5831.42,12399.63 5823.69,12342.55 5820.28,12285.61 5822.51,12228.51 5825.84,12202.8 5833.81,12178.19 5843.75,12154.78 5882.94,12087.64 5925.47,12022.83 5971.32,11960.16 6021.63,11900.99 6074.21,11843.91 6130.17,11790.22 6188.31,11739.9 6250.97,11692.93 6314.74,11650.47 6381.87,11610.19 6410.93,11591.24 6436.65,11568.78 6460.15,11544.19 6480.36,11516.31 6497.09,11484.94 6509.43,11452.68 6567.55,11262.53 6621.24,11070.06 6671.56,10876.79 6717.41,10683.29 6758.9,10488.76 6795.77,10291.93 6829.3,10096.35 6858.35,9898.47 6883.11,9700.52 6904.29,9502.64 6919.99,9303.55 6932.25,9104.49 6940.13,8905.49 6943.4,8706.49 6943.4,8506.32 6937.81,8307.32 6928.9,8108.32 7079.94,7876.85 7234.35,7647.59 7392,7420.71 7553.16,7197.12 7717.51,6974.63 7884.25,6754.31 8055.37,6537.4 8228.79,6322.7 8405.64,6110.26 8585.67,5901.14 8768.02,5694.35 8826.14,5632.8 8886.59,5574.66 8949.23,5519.88 9015.33,5467.32 9084.62,5419.24 9155.08,5373.45 9227.78,5332.05 9302.7,5294.05 9379.93,5260.53 9431.45,5240.38 9485.06,5223.59 9539.9,5211.33 9594.69,5202.33 9650.74,5196.83 9706.64,5194.51 9802.83,5196.83 9900.05,5202.33 9996.39,5212.42 10091.47,5226.92 10186.62,5244.85 10280.5,5267.29 10373.36,5292.94 10466.2,5323.11 10556.74,5356.64 10645.2,5394.71 10733.51,5436.03 10818.53,5480.7 10902.46,5528.81 10984.09,5581.36 11063.63,5636.21 11140.77,5695.47 11214.59,5756.93 11286.25,5821.77 11355.53,5890 11421.55,5960.48 11485.33,6033.09 "
   id="polygon4598"
   style="fill:#000000" />
  <path
   class="fil1"
   d="m 12031.16,7523.52 -23.35,119.69 -28,118.48 -32.58,117.37 -36.85,116.34 -41.26,114.03 -44.9,112.99 -50.32,111.8 -54.78,108.46 -58.14,107.34 -101.84,172.09 -195.79,-84.9 115.36,-192.3 53.52,-99.54 51.52,-101.75 45.85,-104.01 43.71,-105.11 37.99,-107.33 34.64,-108.46 30.26,-109.57 25.64,-109.49 22.38,-111.89 4.53,-39.08 v -38.08 l -4.53,-37.97 -7.73,-37.99 -12.35,-36.94 -16.8,-34.64 -20.14,-32.41 -23.41,-31.38 -26.91,-26.76 -30.26,-24.61 -32.4,-21.26 -34.73,-16.79 -35.74,-13.38 -37.99,-8.92 -70.54,-11.23 -70.4,-8.91 -71.58,-4.55 -71.67,-2.15 -58.13,2.15 -59.23,5.66 -58.29,10.03 -56.93,14.56 -57.17,17.85 -54.78,21.26 -53.76,24.62 -51.43,29.05 -49.14,31.29 -80.57,59.32 -78.43,62.6 -75.96,64.82 -71.67,69.35 -69.28,71.51 -67.2,74.93 -62.66,77.17 -59.17,80.49 -56.05,82.75 -52.55,84.96 -64.9,110.69 -194.59,-84.96 78.25,-131.95 57.02,-92.78 60.52,-90.55 64.82,-87.25 69.43,-84.96 71.51,-81.63 76.19,-78.28 79.38,-74.85 81.63,-71.58 86.14,-68.25 87.21,-63.7 55.97,-35.76 57.02,-33.61 59.31,-29.05 60.44,-24.62 62.58,-22.29 63.78,-17.91 63.78,-13.47 66.02,-10.03 64.88,-5.58 66.01,-2.21 81.63,2.21 80.58,5.58 80.49,9 80.58,13.38 47.07,10.03 45.79,15.62 44.73,17.99 42.61,23.41 40.2,25.73 38,30.17 35.82,32.48 32.41,35.75 29.14,38 25.81,41.4 22.29,42.44 17.91,44.75 14.5,45.88 10.03,46.9 6.76,48.09 2.24,48.1 -2.24,48.09 z m -769.59,-904.51 -72.78,1.11 -71.58,6.7 -72.69,10.1 -71.58,13.46 -70.48,17.83 -69.35,22.38 -68.23,25.72 -66.01,29.06 -64.9,32.41 -63.79,36.96 -60.34,40.2 -87.2,62.61 -85.13,67.11 -82.81,70.48 -79.37,73.73 -76.05,76.05 -73.81,79.4 -70.48,82.72 -67.2,84.96 -63.7,87.2 -60.51,89.43 -55.91,92.86 -956.38,1630.17 116.42,-10.05 116.17,-6.76 116.41,-2.22 116.25,2.22 116.42,6.76 116.4,11.17 116.27,14.56 114.19,19.03 115.21,23.41 112.9,27.96 111.96,31.29 110.68,36.94 109.64,39.19 108.45,43.56 106.31,48.08 105.18,51.37 101.78,55.91 100.78,59.25 98.34,62.64 96.28,67.05 112.98,-131.86 109.57,-134.16 107.42,-136.48 102.87,-138.65 100.72,-141.98 98.43,-143.1 94.04,-145.39 90.54,-147.48 88.46,-148.75 55.9,-104.01 53.58,-105.1 49.29,-106.22 46.02,-108.46 41.26,-109.57 38.11,-111.8 34.65,-111.81 30.11,-114.02 25.79,-115.21 22.38,-115.16 7.88,-55.9 4.38,-54.79 -1.12,-55.9 -3.26,-55.88 -9,-55.91 -11.23,-54.78 -16.8,-53.67 -19.02,-52.57 -23.35,-50.32 -26.97,-49.2 -30.2,-46.99 -33.58,-44.68 -36.79,-42.52 -39.26,-39.09 -42.52,-36.87 -44.61,-33.61 -47.12,-30.17 -48.1,-26.85 -51.44,-23.47 -52.55,-20.15 -52.63,-15.61 -54.79,-12.35 -90.61,-14.5 -91.72,-11.21 -91.74,-6.7 z"
   id="path4600"
   inkscape:connector-curvature="0"
   style="fill:#000000" />
  <path
   id="path12"
   class="fil2 str1"
   d="m 7998.47,636.31 c -1813.19,0 -3473.45,660.08 -4755.09,1752.86 -33.6,28.65 -66.94,57.55 -100.01,86.81 -13.23,11.75 -26.46,23.68 -39.69,35.56 -28.31,25.4 -56.36,51.04 -84.38,76.89 -7.43,6.88 -14.9,13.73 -22.3,20.66 -33.07,30.82 -65.93,61.99 -98.4,93.42 -37.25,36.04 -74.32,72.34 -110.81,109.14 -35.8,36.12 -71.6,72.28 -106.65,109.14 -36.35,38.26 -71.94,77.55 -107.47,116.58 -4.07,4.52 -8.36,8.76 -12.41,13.26 -30.74,33.87 -60.85,68 -90.96,102.39 -32.86,37.84 -64.61,75.94 -96.73,114.3 -1.24,1.32 -2.88,2.65 -4.13,3.97 -1071.46,1280.05 -1717.3,2929.73 -1717.3,4730.22 0,4065.59 3290.89,7364.41 7346.42,7364.41 1817.16,0 3480.33,-663.31 4763.29,-1760.27 l 0.79,0.79 c 10.32,-8.73 20.64,-17.46 30.69,-26.46 4.23,-3.44 8.2,-7.14 12.44,-10.58 24.87,-21.7 49.74,-43.39 74.35,-65.35 19.58,-17.46 38.63,-34.66 57.94,-52.12 5.56,-5.03 11.11,-9.79 16.4,-14.82 25.66,-23.55 50.8,-47.36 76.2,-71.17 22.75,-21.43 45.24,-42.86 67.73,-64.56 3.18,-2.91 6.09,-6.09 9.26,-9 28.58,-28.05 56.62,-56.09 84.93,-84.4 8.47,-8.2 16.67,-16.4 24.87,-24.87 33.07,-33.34 65.88,-67.47 98.43,-101.6 3.18,-3.44 6.61,-6.61 10.05,-10.05 37.04,-39.16 74.35,-78.85 110.6,-119.06 33.34,-36.78 65.88,-74.08 98.43,-111.39 6.09,-7.14 12.17,-13.76 18.26,-20.9 27.78,-32.01 55.3,-64.82 82.55,-97.37 1067.06,-1278.73 1710,-2924.97 1710,-4721.23 0.26,-4065.59 -3291.42,-7365.47 -7346.95,-7365.47 z m 0,1642.06 c 3151.45,0 5709.18,2564.02 5709.18,5723.2 0,1345.41 -463.29,2582.86 -1239.31,3560.23 L 4411.78,3550.75 C 5392.33,2755.47 6639.84,2278.37 7998.47,2278.37 Z m -4461.4,2153.92 8058.15,8012.64 c -982.13,800.1 -2233.61,1279.79 -3596.75,1279.79 -3151.45,0 -5708.39,-2564.08 -5708.39,-5723.2 0,-1349.38 466.62,-2590.54 1246.98,-3569.49 z"
   inkscape:connector-curvature="0"
   style="fill:#cc0000;fill-rule:nonzero;stroke:#cc0000;stroke-width:52.91999817;stroke-miterlimit:22.92560005" />
 </g>
</svg>