<?xml version="1.0" encoding="UTF-8" standalone="no"?>
<svg
   xmlns:dc="http://purl.org/dc/elements/1.1/"
   xmlns:cc="http://creativecommons.org/ns#"
   xmlns:rdf="http://www.w3.org/1999/02/22-rdf-syntax-ns#"
   xmlns:svg="http://www.w3.org/2000/svg"
   xmlns="http://www.w3.org/2000/svg"
   xmlns:sodipodi="http://sodipodi.sourceforge.net/DTD/sodipodi-0.dtd"
   xmlns:inkscape="http://www.inkscape.org/namespaces/inkscape"
   inkscape:version="1.0 (4035a4fb49, 2020-05-01)"
   sodipodi:docname="WSW001 Warnung vor dünnem Eis.svg"
   id="svg8"
   version="1.1"
   viewBox="0 0 256.3208 222.86041"
   height="222.86041mm"
   width="256.3208mm">
  <defs
     id="defs2" />
  <sodipodi:namedview
     inkscape:window-maximized="0"
     inkscape:window-y="0"
     inkscape:window-x="182"
     inkscape:window-height="860"
     inkscape:window-width="1296"
     showgrid="false"
     inkscape:document-rotation="0"
     inkscape:current-layer="layer1"
     inkscape:document-units="mm"
     inkscape:cy="449.06474"
     inkscape:cx="459.48113"
     inkscape:zoom="0.59687149"
     inkscape:pageshadow="2"
     inkscape:pageopacity="0.0"
     borderopacity="1.0"
     bordercolor="#666666"
     pagecolor="#ffffff"
     id="base" />
  <metadata
     id="metadata5">
    <rdf:RDF>
      <cc:Work
         rdf:about="">
        <dc:format>image/svg+xml</dc:format>
        <dc:type
           rdf:resource="http://purl.org/dc/dcmitype/StillImage" />
        <dc:title></dc:title>
      </cc:Work>
    </rdf:RDF>
  </metadata>
  <g
     transform="translate(24.385694,-29.684955)"
     id="layer1"
     inkscape:groupmode="layer"
     inkscape:label="Ebene 1">
    <path
       id="path24"
       d="m -15.366514,251.78337 c -3.13765,-0.73839 -6.12882,-3.17814 -7.62719,-6.22111 -0.85651,-1.73945 -0.89199,-1.93275 -0.89199,-4.86016 0,-3.59973 -0.0214,-3.54192 3.66726,-9.89587 3.36216,-5.79151 8.43759,-14.5767 13.9284074,-24.10904 2.514687,-4.36563 5.84767702,-10.14016 7.406647,-12.83229 1.55897,-2.69214 5.130816,-8.88339 7.937435,-13.75834 2.8066176,-4.87495 6.6180756,-11.48291 8.4699096,-14.68437 4.7927,-8.28565 14.656684,-25.38262 19.920776,-34.52813 2.470944,-4.29286 6.243558,-10.8413 8.383593,-14.55209 2.140032,-3.71078 5.50454,-9.54484 7.476681,-12.96458 1.972141,-3.419738 5.100389,-8.837082 6.951663,-12.038541 1.851273,-3.201458 5.596771,-9.690364 8.323326,-14.419792 25.30379,-43.891441 23.509545,-40.864767 25.266402,-42.621338 1.941179,-1.940864 4.476801,-3.259737 7.415814,-3.857252 5.03018,-1.022655 10.53442,1.095701 13.80331,5.312325 0.4613,0.595038 2.61628,4.177514 4.78885,7.961056 2.17257,3.783542 4.843,8.42698 5.9343,10.31875 1.09129,1.891771 5.17792,8.97599 9.08139,15.742709 3.90348,6.766719 8.81452,15.279688 10.91342,18.917709 2.09891,3.638021 5.67086,9.829271 7.93767,13.758334 2.26681,3.92906 5.87063,10.17984 8.00849,13.89062 8.00176,13.88901 18.1215,31.43048 24.34595,42.20105 1.93426,3.34698 5.26465,9.12151 7.40086,12.83229 2.13621,3.71078 5.66622,9.8425 7.84445,13.62604 2.17824,3.78355 5.78661,10.03433 8.01859,13.89063 2.23198,3.8563 5.84264,10.10708 8.02367,13.89062 2.18104,3.78355 5.75792,9.9748 7.94864,13.75834 2.19071,3.78354 4.46513,7.82205 5.05427,8.97447 1.07015,2.09335 1.07115,2.09817 1.06898,5.15938 -0.002,2.93329 -0.0399,3.14136 -0.88537,4.87505 -1.51199,3.10035 -4.47494,5.48984 -7.74099,6.24279 -1.48782,0.343 -236.717234,0.33386 -238.175214,-0.009 z M 215.16536,237.66156 c 0,-0.0683 -0.57987,-1.1101 -1.2886,-2.31511 -1.29969,-2.20977 -3.68422,-6.33798 -9.8239,-17.0076 -1.84224,-3.20145 -4.50088,-7.81513 -5.9081,-10.2526 -1.40721,-2.43747 -3.6728,-6.36654 -5.03463,-8.73125 -1.36184,-2.36471 -4.29801,-7.45464 -6.52484,-11.31094 -2.22683,-3.8563 -5.83383,-10.10708 -8.01557,-13.89062 -2.18174,-3.78354 -5.27447,-9.14136 -6.87275,-11.90625 -1.59828,-2.7649 -4.27664,-7.40834 -5.9519,-10.31875 -1.67526,-2.91042 -3.32587,-5.73579 -3.66803,-6.2786 -0.34216,-0.54281 -0.62211,-1.04517 -0.62211,-1.11636 0,-0.0712 -0.58162,-1.11535 -1.29249,-2.32036 -0.71087,-1.20501 -2.8354,-4.86984 -4.72118,-8.14406 -1.88578,-3.27422 -4.08489,-7.08422 -4.88692,-8.46667 -1.67773,-2.8919 -5.37495,-9.29456 -9.54899,-16.53646 -1.59361,-2.76489 -3.10622,-5.38427 -3.36135,-5.82083 -0.62756,-1.07385 -4.24927,-7.383307 -5.08779,-8.863542 -0.37095,-0.654844 -2.01782,-3.512344 -3.6597,-6.35 -1.64189,-2.837657 -4.01631,-6.945313 -5.2765,-9.128126 -1.26019,-2.182812 -3.4259,-5.933281 -4.81269,-8.334375 -1.38679,-2.401094 -3.44856,-5.972969 -4.5817,-7.9375 -1.13315,-1.964531 -3.61006,-6.250781 -5.50426,-9.525 -1.89419,-3.274219 -3.76902,-6.534055 -4.16629,-7.24408 l -0.72231,-1.290955 -0.39106,0.629496 c -0.21509,0.346223 -1.52435,2.594028 -2.90947,4.995122 -1.38513,2.401094 -4.718615,8.175625 -7.40775,12.832292 -9.290201,16.087471 -23.82836,41.293308 -26.858602,46.566668 -1.672418,2.91042 -4.557363,7.91104 -6.410986,11.1125 -3.692242,6.377 -14.559849,25.20605 -19.852323,34.39584 -4.238818,7.36022 -8.070948,14.00401 -18.771196,32.54375 -9.840407,17.04993 -15.2234446,26.38096 -15.8742746,27.51666 -2.199101,3.83748 -7.114469,12.34591 -8.865375,15.34584 -1.189063,2.03729 -2.609493,4.50784 -3.15651,5.4901 l -0.994576,1.78594 H 103.75299 c 61.2768,0 111.41237,-0.0559 111.41237,-0.12417 z m -59.72025,-20.77688 c -1.34088,-0.55743 -3.06728,-1.25056 -3.83646,-1.54027 -0.76918,-0.28971 -1.99382,-0.76019 -2.72142,-1.04549 -0.72761,-0.28531 -3.66453,-1.42208 -6.52649,-2.52617 -2.86196,-1.10409 -6.85055,-2.65545 -8.86354,-3.44748 -2.01299,-0.79202 -5.20779,-2.04184 -7.09956,-2.77736 -1.89177,-0.73552 -5.93989,-2.31412 -8.99583,-3.508 -3.05594,-1.19389 -6.31145,-2.44778 -7.23447,-2.78643 l -1.67823,-0.61574 -3.34886,2.19295 c -1.84187,1.20612 -4.09318,2.6623 -5.00291,3.23597 -0.909722,0.57366 -3.120376,1.99553 -4.912563,3.15969 -1.79219,1.16417 -3.905367,2.52828 -4.695955,3.03135 -3.217878,2.04764 -7.566694,4.86157 -8.239739,5.33157 -1.317974,0.92038 -1.107152,0.51615 0.739339,-1.4176 1.007419,-1.05503 4.152929,-4.343 6.990027,-7.30661 2.837098,-2.9636 5.505328,-5.76157 5.929405,-6.21771 0.424074,-0.45613 1.823059,-1.92336 3.108854,-3.26051 1.285792,-1.33716 2.337812,-2.54403 2.337812,-2.68194 0,-0.13791 -0.5545,-0.33391 -1.23222,-0.43554 -0.677713,-0.10162 -5.886697,-1.07168 -11.575517,-2.15568 -13.426412,-2.55839 -18.117718,-3.44268 -21.915425,-4.13096 -1.707997,-0.30956 -3.057618,-0.61066 -2.999158,-0.66912 0.05846,-0.0585 6.158881,-1.2135 13.556491,-2.56675 10.633284,-1.94516 13.31167,-2.51357 12.788742,-2.71403 -0.363802,-0.13947 -5.92132,-2.02765 -12.350042,-4.19595 -6.428719,-2.16831 -11.655658,-3.9753 -11.615423,-4.01554 0.04024,-0.0402 1.966349,0.39821 4.28025,0.97432 2.3139,0.57611 6.707401,1.65008 9.76334,2.38659 3.055937,0.73651 8.272031,2.00618 11.591316,2.82148 3.319288,0.8153 6.087222,1.43021 6.150968,1.36646 0.06375,-0.0637 -0.111194,-1.17781 -0.388755,-2.4757 -0.277561,-1.29789 -1.718779,-8.07479 -3.202705,-15.05979 -1.483926,-6.985 -2.81215,-13.15832 -2.95161,-13.71849 l -0.253563,-1.01848 -2.835363,4.32578 c -1.559451,2.37917 -3.471891,5.30773 -4.249867,6.5079 -1.69831,2.61996 -2.57738,3.24183 -4.582612,3.24183 -1.606731,0 -1.315104,0.16812 -8.490499,-4.89479 -1.85615,-1.30969 -4.483684,-3.15516 -5.838968,-4.10105 -7.429995,-5.18557 -7.546073,-5.29451 -7.771371,-7.29333 -0.174818,-1.55099 0.338059,-2.88165 1.470449,-3.81506 1.896269,-1.56307 3.618391,-1.40106 6.595504,0.62046 1.947503,1.32239 10.480628,7.32063 12.046914,8.46821 0.447013,0.32752 0.818054,0.43781 0.958349,0.28489 0.125913,-0.13725 2.400158,-3.58329 5.053876,-7.65787 2.653721,-4.07459 5.020432,-7.60732 5.259359,-7.85052 0.238926,-0.24319 3.172849,-1.9567 6.519828,-3.80779 11.334892,-6.26891 12.563242,-6.99482 11.836292,-6.99482 -0.16945,0 -1.65178,-0.66669 -3.29406,-1.48154 l -2.98598,-1.48153 -2.381252,0.1606 c -1.309688,0.0883 -5.259168,0.39081 -8.776624,0.67219 -7.173846,0.57387 -7.796588,0.51201 -9.034113,-0.89746 -1.524244,-1.73601 -1.297742,-4.14165 0.518599,-5.50797 1.029867,-0.77471 1.736013,-0.90832 6.576513,-1.24435 1.964531,-0.13638 5.960705,-0.43954 8.880385,-0.6737 l 5.308512,-0.42573 1.96753,0.90838 c 3.2626,1.50631 5.80211,2.70035 9.63069,4.52819 2.00309,0.95631 3.71982,1.73875 3.81497,1.73875 0.0952,0 0.6043,0.29309 1.13146,0.6513 0.95421,0.6484 1.35037,1.2478 5.51516,8.34454 1.0675,1.81901 3.21497,5.45041 4.77214,8.06979 3.50168,5.89029 8.3859,14.18533 11.13896,18.91771 1.71986,2.95635 2.0781,3.76865 2.07886,4.71375 0.001,1.28406 -0.31653,2.02368 -1.24119,2.8908 -0.79938,0.74964 -1.64836,0.96301 -3.15574,0.7931 -1.59113,-0.17934 -2.12197,-0.73068 -4.37677,-4.54581 -1.03706,-1.75471 -2.59611,-4.38101 -3.46454,-5.83622 -0.86844,-1.45521 -1.80478,-3.03842 -2.08076,-3.51825 -1.33829,-2.32682 -7.03434,-11.95936 -7.64608,-12.93023 l -0.69478,-1.10265 -9.49341,5.41204 c -5.22138,2.97662 -9.51199,5.43735 -9.53469,5.46828 -0.0227,0.0309 0.52964,2.6756 1.22743,5.87706 1.77326,8.13572 4.27333,19.76479 5.45308,25.36495 0.5478,2.60037 1.13966,4.78262 1.31542,4.85006 0.17574,0.0674 4.10784,-0.73768 8.73801,-1.78916 4.63016,-1.05148 9.37098,-2.11832 10.53515,-2.37077 8.01203,-1.73737 8.89647,-1.97006 8.15339,-2.1451 -0.40979,-0.0965 -4.85272,-0.43378 -9.87319,-0.74943 -14.06072,-0.88405 -13.94557,-0.99668 1.05834,-1.03509 7.49432,-0.0192 15.17385,-0.10917 17.06562,-0.19996 2.22344,-0.1067 3.34604,-0.0743 3.175,0.0915 -0.14552,0.14111 -1.99099,0.98484 -4.10104,1.87496 -5.78825,2.44175 -14.9016,6.39958 -15.02891,6.52688 -0.0619,0.0618 0.40709,0.0694 1.04209,0.0167 0.63499,-0.0527 4.07156,-0.17214 7.63682,-0.2655 3.56526,-0.0934 7.13714,-0.21502 7.9375,-0.27036 0.80037,-0.0554 3.89599,-0.1698 6.87917,-0.25434 2.98317,-0.0845 6.61458,-0.23205 8.06979,-0.32779 2.37756,-0.15642 2.52511,-0.19462 1.45521,-0.37666 -0.65485,-0.11142 -4.6756,-0.76279 -8.93501,-1.44749 -4.25941,-0.6847 -7.70803,-1.28126 -7.6636,-1.32569 0.0444,-0.0444 5.31535,-0.62385 11.71314,-1.2876 6.39779,-0.66374 11.92976,-1.27445 12.29326,-1.35715 0.3635,-0.0827 0.57465,-0.0641 0.46922,0.0413 -0.10543,0.10543 -2.65161,0.68347 -5.65818,1.28454 l -5.46649,1.09285 7.37852,2.05028 c 4.05818,1.12766 7.52734,2.04758 7.70924,2.04426 0.1819,-0.003 0.33073,0.0899 0.33073,0.20703 0,0.21893 -2.12926,0.45524 -30.42708,3.37689 -9.09505,0.93904 -16.68717,1.73584 -16.87138,1.77067 -0.1842,0.0348 2.25658,0.76285 5.42396,1.6178 3.16738,0.85495 7.84247,2.12108 10.38908,2.81362 8.60324,2.33963 16.52849,4.48821 17.99167,4.87766 1.86024,0.49513 4.73119,1.26531 12.30313,3.30051 3.34698,0.89961 6.54392,1.75653 7.10431,1.90428 1.7066,0.44994 0.90793,0.52846 -1.17594,0.11562 -1.07779,-0.21353 -4.87665,-0.87834 -8.44192,-1.47736 -3.56526,-0.59901 -8.44682,-1.42963 -10.84791,-1.84581 -11.50137,-1.99351 -37.31403,-6.348 -37.62132,-6.34656 -0.19051,8e-4 -0.0487,0.16029 0.31507,0.35419 0.65353,0.34834 4.28776,2.43817 10.98021,6.31407 1.89177,1.09561 5.7613,3.33662 8.59895,4.98003 2.83766,1.6434 8.01466,4.63557 11.50444,6.64925 3.48979,2.01369 6.1687,3.6514 5.95313,3.63936 -0.21557,-0.012 -1.48902,-0.47797 -2.82989,-1.03541 z m -27.84267,-87.24151 c -1.67367,-0.5909 -3.48909,-2.50169 -4.05651,-4.2696 -0.59245,-1.84587 -0.57472,-2.87248 0.0798,-4.62186 1.04511,-2.79331 3.39628,-4.41892 6.42483,-4.44216 2.10495,-0.0162 3.72077,0.69574 5.18524,2.2845 2.03761,2.21054 2.34833,5.30352 0.80438,8.00687 -1.70204,2.98016 -5.12155,4.21308 -8.43775,3.04225 z"
       style="fill:#000000;fill-opacity:1;stroke:#000000;stroke-opacity:1" />
    <path
       transform="scale(0.26458333)"
       id="path853"
       d="m -26.260152,896.93687 c 0,-2.73444 418.148932,-725.64367 419.158622,-724.65479 0.92566,0.9066 98.03272,168.8567 213.2786,368.87293 10.35325,17.96869 59.70421,103.50878 109.6688,190.08911 49.96459,86.58031 91.93296,159.52315 93.26301,162.09519 l 2.41827,4.67644 H 392.6335 c -230.3915,0 -418.893652,-0.4855 -418.893652,-1.07888 z M 598.66499,823.48135 c 0,-0.44918 -2.8602,-2.62224 -6.35601,-4.82905 -5.17921,-3.26948 -116.76783,-67.94178 -128.5139,-74.48151 -1.84294,-1.02607 -2.96728,-1.88851 -2.49854,-1.91653 0.46874,-0.028 49.43726,8.25463 108.81893,18.40589 95.75452,16.36917 117.96257,19.65685 108.96884,16.13172 -1.38221,-0.54176 -36.06304,-10.01467 -77.06852,-21.0509 -113.80041,-30.62827 -120.64098,-32.51355 -120.06452,-33.09002 0.29519,-0.29517 36.6661,-4.29774 80.82428,-8.8946 88.55528,-9.21858 93.80983,-9.88643 91.75724,-11.66221 -0.77948,-0.67436 -7.82564,-2.90916 -15.65814,-4.96624 -7.83251,-2.05709 -19.51844,-5.30634 -25.96874,-7.22057 l -11.72782,-3.48041 18.31349,-3.96812 c 18.08651,-3.91896 22.99098,-5.56812 16.73035,-5.62574 -7.70896,-0.0709 -88.78839,9.01454 -90.00609,10.08577 -0.74215,0.65289 11.86038,3.3324 28.00561,5.95447 16.14523,2.62205 29.19231,4.92012 28.99351,5.10679 -0.71285,0.66933 -111.92774,4.42003 -112.55197,3.79579 -0.35098,-0.35096 14.02343,-6.9561 31.94311,-14.67808 17.91967,-7.72196 32.98405,-14.69174 33.4764,-15.48838 1.07285,-1.7359 -27.87023,-1.84667 -81.3973,-0.31152 -22.32819,0.64037 -37.19616,1.65481 -34.34575,2.34342 2.76441,0.66783 19.3509,2.11637 36.85885,3.21897 17.50796,1.10261 32.00222,2.16356 32.20948,2.35769 0.38273,0.35845 -39.86973,9.47526 -78.68635,17.82171 l -21.34583,4.58983 -1.87474,-6.93839 c -2.01814,-7.46905 -25.9547,-118.37398 -26.90362,-124.65209 -0.50476,-3.33957 3.56682,-6.14642 34.50684,-23.78826 l 35.07911,-20.00192 11.18196,18.76204 c 6.15008,10.31912 18.98492,31.95584 28.52187,48.08159 9.53696,16.12575 19.38417,31.39285 21.88271,33.9269 6.11636,6.20331 14.96192,6.3261 20.99655,0.29147 8.17239,-8.17239 6.53176,-12.05821 -34.66096,-82.0934 -39.14846,-66.55955 -45.86204,-77.35087 -50.13701,-80.58971 -1.43146,-1.0845 -16.05558,-8.20818 -32.49807,-15.83037 l -29.89541,-13.85853 -36.56063,2.72997 c -45.35878,3.38692 -48.57086,4.64947 -48.57086,19.09154 0,3.92738 1.3292,7.13224 4.11236,9.91539 4.86548,4.8655 8.2211,4.98829 48.66282,1.7808 l 26.80644,-2.12605 10.48824,5.10986 c 5.76851,2.81044 10.27075,5.76229 10.00493,6.55972 -0.2658,0.79741 -15.3082,9.78127 -33.42758,19.96414 l -32.94431,18.51431 -18.9457,29.05195 c -10.42014,15.97858 -19.54409,29.07011 -20.27544,29.09227 -0.73136,0.0221 -12.59179,-7.8893 -26.35653,-17.58107 -25.66897,-18.07355 -30.77863,-20.91288 -37.63495,-20.91288 -5.37731,0 -13.77999,7.40185 -15.06993,13.27496 -2.32988,10.60787 1.43957,14.56987 38.72355,40.70134 19.27453,13.50907 37.23119,25.3933 39.90371,26.40938 6.52275,2.47995 12.95837,0.82666 18.12059,-4.65512 2.34417,-2.48926 10.26678,-13.83291 17.6058,-25.20807 11.41346,-17.69039 13.48494,-20.11393 14.32023,-16.75403 0.5371,2.16045 5.95547,27.29997 12.04078,55.86558 6.08533,28.56561 11.45079,53.25686 11.92326,54.86943 0.58282,1.98917 -0.0679,2.93196 -2.02374,2.93196 -1.58552,0 -27.73476,-6.06982 -58.10944,-13.48849 -30.37468,-7.41866 -56.45825,-13.24764 -57.96348,-12.95329 -1.50524,0.29437 17.37565,7.299 41.95752,15.56583 24.58187,8.26686 44.44463,15.28031 44.13945,15.58549 -0.30516,0.30515 -21.8417,4.62695 -47.85899,9.60397 -26.01728,4.97702 -47.63321,9.37817 -48.03537,9.78035 -1.28572,1.28572 4.13677,2.42679 72.20343,15.19402 36.75002,6.8932 67.20489,12.91974 67.67747,13.39232 0.47256,0.47258 -10.37039,12.60988 -24.09547,26.97178 -37.17027,38.89489 -49.76112,52.7502 -48.80501,53.70632 0.47294,0.47293 23.6192,-13.88361 51.43613,-31.90345 27.81692,-18.01984 51.08411,-32.75859 51.70486,-32.75276 0.62075,0.005 42.59485,16.1899 93.27577,35.96461 50.68093,19.77471 92.71259,35.97945 93.40369,36.01056 0.69111,0.0312 1.25656,-0.31095 1.25656,-0.76014 z M 506.2238,488.04088 c 8.8809,-6.57754 12.38389,-13.80282 11.66675,-24.06395 -0.76764,-10.98384 -5.25929,-18.30252 -13.68717,-22.30181 -8.32819,-3.95199 -19.49277,-3.50429 -26.18441,1.04999 -9.4662,6.44265 -12.54848,12.06049 -12.54848,22.87121 0,8.04109 0.80052,10.69068 4.82368,15.96531 2.65303,3.4783 7.17662,7.38998 10.05242,8.69263 6.93737,3.1424 20.17462,2.01016 25.87721,-2.21338 z"
       style="fill:#e9c02a;fill-opacity:1;stroke:#ffffff;stroke-width:1.6754" />
  </g>
</svg>
